<?xml version="1.0" encoding="UTF-8" standalone="no"?>
<!DOCTYPE svg PUBLIC "-//W3C//DTD SVG 1.1//EN"
 "http://www.w3.org/Graphics/SVG/1.1/DTD/svg11.dtd">
<!-- Generated by graphviz version 2.43.0 (0)
 -->
<!-- Title: %3 Pages: 1 -->
<svg width="96pt" height="260pt"
 viewBox="0.00 0.00 96.00 260.00" xmlns="http://www.w3.org/2000/svg" xmlns:xlink="http://www.w3.org/1999/xlink">
<g id="graph0" class="graph" transform="scale(1 1) rotate(0) translate(4 256)">
<title>%3</title>
<!-- AandUnit -->
<g id="node1" class="node">
<title>AandUnit</title>
<path fill="#586e75" stroke="#586e75" d="M76,-252C76,-252 12,-252 12,-252 6,-252 0,-246 0,-240 0,-240 0,-228 0,-228 0,-222 6,-216 12,-216 12,-216 76,-216 76,-216 82,-216 88,-222 88,-228 88,-228 88,-240 88,-240 88,-246 82,-252 76,-252"/>
<text text-anchor="middle" x="44" y="-230.3" font-family="Inter,Arial" font-size="14.00" fill="#ffffff">A And Unit</text>
</g>
<!-- AndAUnit -->
<!-- AandUnit&#45;&gt;AndAUnit -->
<!-- a -->
<!-- AndAUnit&#45;&gt;a -->
<!-- a&#45;&gt;AndAUnit -->
<!-- A -->
<g id="node4" class="node">
<title>A</title>
<path fill="#586e75" stroke="#586e75" d="M59,-36C59,-36 29,-36 29,-36 23,-36 17,-30 17,-24 17,-24 17,-12 17,-12 17,-6 23,0 29,0 29,0 59,0 59,0 65,0 71,-6 71,-12 71,-12 71,-24 71,-24 71,-30 65,-36 59,-36"/>
<text text-anchor="middle" x="44" y="-14.3" font-family="Inter,Arial" font-size="14.00" fill="#ffffff">A</text>
</g>
<!-- a&#45;&gt;A -->
</g>
</svg>
