<?xml version="1.0" encoding="UTF-8" standalone="no"?>
<!DOCTYPE svg PUBLIC "-//W3C//DTD SVG 1.1//EN"
 "http://www.w3.org/Graphics/SVG/1.1/DTD/svg11.dtd">
<!-- Generated by graphviz version 2.43.0 (0)
 -->
<!-- Title: %3 Pages: 1 -->
<svg width="96pt" height="260pt"
 viewBox="0.00 0.00 96.00 260.00" xmlns="http://www.w3.org/2000/svg" xmlns:xlink="http://www.w3.org/1999/xlink">
<g id="graph0" class="graph" transform="scale(1 1) rotate(0) translate(4 256)">
<title>%3</title>
<!-- AandUnit -->
<g id="node1" class="node">
<title>AandUnit</title>
<path fill="#586e75" stroke="#586e75" d="M76,-252C76,-252 12,-252 12,-252 6,-252 0,-246 0,-240 0,-240 0,-228 0,-228 0,-222 6,-216 12,-216 12,-216 76,-216 76,-216 82,-216 88,-222 88,-228 88,-228 88,-240 88,-240 88,-246 82,-252 76,-252"/>
<text text-anchor="middle" x="44" y="-230.3" font-family="Inter,Arial" font-size="14.00" fill="#ffffff">A And Unit</text>
</g>
<!-- AndAUnit -->
<g id="node2" class="node">
<title>AndAUnit</title>
<path fill="#ffffff" stroke="#586e75" d="M72,-180C72,-180 16,-180 16,-180 10,-180 4,-174 4,-168 4,-168 4,-156 4,-156 4,-150 10,-144 16,-144 16,-144 72,-144 72,-144 78,-144 84,-150 84,-156 84,-156 84,-168 84,-168 84,-174 78,-180 72,-180"/>
<text text-anchor="middle" x="44" y="-158.3" font-family="Inter,Arial" font-size="14.00" fill="#586e75">And(a, ())</text>
</g>
<!-- AandUnit&#45;&gt;AndAUnit -->
<g id="edge1" class="edge">
<title>AandUnit&#45;&gt;AndAUnit</title>
<path fill="none" stroke="#586e75" d="M44,-215.7C44,-207.98 44,-198.71 44,-190.11"/>
<polygon fill="#586e75" stroke="#586e75" points="47.5,-190.1 44,-180.1 40.5,-190.1 47.5,-190.1"/>
</g>
<!-- a -->
<g id="node3" class="node">
<title>a</title>
<path fill="#ffffff" stroke="#586e75" d="M59,-108C59,-108 29,-108 29,-108 23,-108 17,-102 17,-96 17,-96 17,-84 17,-84 17,-78 23,-72 29,-72 29,-72 59,-72 59,-72 65,-72 71,-78 71,-84 71,-84 71,-96 71,-96 71,-102 65,-108 59,-108"/>
<text text-anchor="middle" x="44" y="-86.3" font-family="Inter,Arial" font-size="14.00" fill="#586e75">a</text>
</g>
<!-- AndAUnit&#45;&gt;a -->
<g id="edge3" class="edge">
<title>AndAUnit&#45;&gt;a</title>
<path fill="none" stroke="#586e75" d="M38.08,-143.7C37.29,-135.98 37.06,-126.71 37.4,-118.11"/>
<polygon fill="#586e75" stroke="#586e75" points="40.9,-118.32 38.1,-108.1 33.92,-117.84 40.9,-118.32"/>
</g>
<!-- a&#45;&gt;AndAUnit -->
<g id="edge4" class="edge">
<title>a&#45;&gt;AndAUnit</title>
<path fill="none" stroke="#586e75" d="M49.9,-108.1C50.7,-115.79 50.94,-125.05 50.6,-133.67"/>
<polygon fill="#586e75" stroke="#586e75" points="47.11,-133.48 49.92,-143.7 54.09,-133.96 47.11,-133.48"/>
</g>
<!-- A -->
<g id="node4" class="node">
<title>A</title>
<path fill="#586e75" stroke="#586e75" d="M59,-36C59,-36 29,-36 29,-36 23,-36 17,-30 17,-24 17,-24 17,-12 17,-12 17,-6 23,0 29,0 29,0 59,0 59,0 65,0 71,-6 71,-12 71,-12 71,-24 71,-24 71,-30 65,-36 59,-36"/>
<text text-anchor="middle" x="44" y="-14.3" font-family="Inter,Arial" font-size="14.00" fill="#ffffff">A</text>
</g>
<!-- a&#45;&gt;A -->
<g id="edge2" class="edge">
<title>a&#45;&gt;A</title>
<path fill="none" stroke="#586e75" d="M44,-61.67C44,-53.05 44,-43.79 44,-36.1"/>
<polygon fill="#586e75" stroke="#586e75" points="40.5,-61.7 44,-71.7 47.5,-61.7 40.5,-61.7"/>
</g>
</g>
</svg>
