<?xml version="1.0" encoding="UTF-8" standalone="no"?>
<!DOCTYPE svg PUBLIC "-//W3C//DTD SVG 1.1//EN"
 "http://www.w3.org/Graphics/SVG/1.1/DTD/svg11.dtd">
<!-- Generated by graphviz version 2.43.0 (0)
 -->
<!-- Title: %3 Pages: 1 -->
<svg width="109pt" height="260pt"
 viewBox="0.00 0.00 109.00 260.00" xmlns="http://www.w3.org/2000/svg" xmlns:xlink="http://www.w3.org/1999/xlink">
<g id="graph0" class="graph" transform="scale(1 1) rotate(0) translate(4 256)">
<title>%3</title>
<!-- LeftAssoc -->
<g id="node1" class="node">
<title>LeftAssoc</title>
<path fill="#586e75" stroke="#586e75" d="M86,-252C86,-252 15,-252 15,-252 9,-252 3,-246 3,-240 3,-240 3,-228 3,-228 3,-222 9,-216 15,-216 15,-216 86,-216 86,-216 92,-216 98,-222 98,-228 98,-228 98,-240 98,-240 98,-246 92,-252 86,-252"/>
<text text-anchor="middle" x="50.5" y="-230.3" font-family="Inter,Arial" font-size="14.00" fill="#ffffff">A ⋀ (B ⋀ C)</text>
</g>
<!-- Aand -->
<g id="node2" class="node">
<title>Aand</title>
<path fill="#ffffff" stroke="#586e75" d="M89,-180C89,-180 12,-180 12,-180 6,-180 0,-174 0,-168 0,-168 0,-156 0,-156 0,-150 6,-144 12,-144 12,-144 89,-144 89,-144 95,-144 101,-150 101,-156 101,-156 101,-168 101,-168 101,-174 95,-180 89,-180"/>
<text text-anchor="middle" x="50.5" y="-158.3" font-family="Inter,Arial" font-size="14.00" fill="#586e75">aᵢ ⋀ (bⱼ ⋀ cₖ)</text>
</g>
<!-- LeftAssoc&#45;&gt;Aand -->
<g id="edge1" class="edge">
<title>LeftAssoc&#45;&gt;Aand</title>
<path fill="none" stroke="#586e75" d="M50.5,-215.7C50.5,-207.98 50.5,-198.71 50.5,-190.11"/>
<polygon fill="#586e75" stroke="#586e75" points="54,-190.1 50.5,-180.1 47,-190.1 54,-190.1"/>
</g>
<!-- andC -->
<!-- Aand&#45;&gt;andC -->
<!-- RightAssoc -->
<g id="node3" class="node">
<title>RightAssoc</title>
<path fill="#586e75" stroke="#586e75" d="M86,-36C86,-36 15,-36 15,-36 9,-36 3,-30 3,-24 3,-24 3,-12 3,-12 3,-6 9,0 15,0 15,0 86,0 86,0 92,0 98,-6 98,-12 98,-12 98,-24 98,-24 98,-30 92,-36 86,-36"/>
<text text-anchor="middle" x="50.5" y="-14.3" font-family="Inter,Arial" font-size="14.00" fill="#ffffff">(A ⋀ B) ⋀ C</text>
</g>
<!-- andC&#45;&gt;Aand -->
<!-- andC&#45;&gt;RightAssoc -->
</g>
</svg>
