<?xml version="1.0" encoding="UTF-8" standalone="no"?>
<!DOCTYPE svg PUBLIC "-//W3C//DTD SVG 1.1//EN"
 "http://www.w3.org/Graphics/SVG/1.1/DTD/svg11.dtd">
<!-- Generated by graphviz version 2.43.0 (0)
 -->
<!-- Title: %3 Pages: 1 -->
<svg width="64pt" height="260pt"
 viewBox="0.00 0.00 64.00 260.00" xmlns="http://www.w3.org/2000/svg" xmlns:xlink="http://www.w3.org/1999/xlink">
<g id="graph0" class="graph" transform="scale(1 1) rotate(0) translate(4 256)">
<title>%3</title>
<!-- AandB -->
<g id="node1" class="node">
<title>AandB</title>
<path fill="#586e75" stroke="#586e75" d="M43,-252C43,-252 13,-252 13,-252 7,-252 1,-246 1,-240 1,-240 1,-228 1,-228 1,-222 7,-216 13,-216 13,-216 43,-216 43,-216 49,-216 55,-222 55,-228 55,-228 55,-240 55,-240 55,-246 49,-252 43,-252"/>
<text text-anchor="middle" x="28" y="-230.3" font-family="Inter,Arial" font-size="14.00" fill="#ffffff">A ✕ B</text>
</g>
<!-- AndAB -->
<g id="node2" class="node value">
<title>AndAB</title>
<path fill="#ffffff" stroke="#586e75" d="M44,-180C44,-180 12,-180 12,-180 6,-180 0,-174 0,-168 0,-168 0,-156 0,-156 0,-150 6,-144 12,-144 12,-144 44,-144 44,-144 50,-144 56,-150 56,-156 56,-156 56,-168 56,-168 56,-174 50,-180 44,-180"/>
<text text-anchor="middle" x="28" y="-158.3" font-family="Inter,Arial" font-size="14.00" fill="#586e75">aᵢ ✕ bⱼ</text>
</g>
<!-- AandB&#45;&gt;AndAB -->
<g id="edge1" class="edge">
<title>AandB&#45;&gt;AndAB</title>
<path fill="none" stroke="#586e75" d="M28,-215.7C28,-207.98 28,-198.71 28,-190.11"/>
<polygon fill="#586e75" stroke="#586e75" points="31.5,-190.1 28,-180.1 24.5,-190.1 31.5,-190.1"/>
</g>
<!-- AndBA -->
<g id="node4" class="node value">
<title>AndBA</title>
<path fill="#ffffff" stroke="#586e75" d="M44,-108C44,-108 12,-108 12,-108 6,-108 0,-102 0,-96 0,-96 0,-84 0,-84 0,-78 6,-72 12,-72 12,-72 44,-72 44,-72 50,-72 56,-78 56,-84 56,-84 56,-96 56,-96 56,-102 50,-108 44,-108"/>
<text text-anchor="middle" x="28" y="-86.3" font-family="Inter,Arial" font-size="14.00" fill="#586e75">bⱼ ✕ aᵢ</text>
</g>
<!-- AndAB&#45;&gt;AndBA -->
<g id="edge3" class="edge">
<title>AndAB&#45;&gt;AndBA</title>
<path fill="none" stroke="#586e75" d="M22.08,-143.7C21.29,-135.98 21.06,-126.71 21.4,-118.11"/>
<polygon fill="#586e75" stroke="#586e75" points="24.9,-118.32 22.1,-108.1 17.92,-117.84 24.9,-118.32"/>
</g>
<!-- BandA -->
<g id="node3" class="node">
<title>BandA</title>
<path fill="#586e75" stroke="#586e75" d="M43,-36C43,-36 13,-36 13,-36 7,-36 1,-30 1,-24 1,-24 1,-12 1,-12 1,-6 7,0 13,0 13,0 43,0 43,0 49,0 55,-6 55,-12 55,-12 55,-24 55,-24 55,-30 49,-36 43,-36"/>
<text text-anchor="middle" x="28" y="-14.3" font-family="Inter,Arial" font-size="14.00" fill="#ffffff">B ✕ A</text>
</g>
<!-- AndBA&#45;&gt;AndAB -->
<g id="edge4" class="edge">
<title>AndBA&#45;&gt;AndAB</title>
<path fill="none" stroke="#586e75" d="M33.9,-108.1C34.7,-115.79 34.94,-125.05 34.6,-133.67"/>
<polygon fill="#586e75" stroke="#586e75" points="31.11,-133.48 33.92,-143.7 38.09,-133.96 31.11,-133.48"/>
</g>
<!-- AndBA&#45;&gt;BandA -->
<g id="edge2" class="edge">
<title>AndBA&#45;&gt;BandA</title>
<path fill="none" stroke="#586e75" d="M28,-61.67C28,-53.05 28,-43.79 28,-36.1"/>
<polygon fill="#586e75" stroke="#586e75" points="24.5,-61.7 28,-71.7 31.5,-61.7 24.5,-61.7"/>
</g>
</g>
</svg>
