<?xml version="1.0" encoding="UTF-8" standalone="no"?>
<!DOCTYPE svg PUBLIC "-//W3C//DTD SVG 1.1//EN"
 "http://www.w3.org/Graphics/SVG/1.1/DTD/svg11.dtd">
<!-- Generated by graphviz version 2.43.0 (0)
 -->
<!-- Title: %3 Pages: 1 -->
<svg width="76pt" height="260pt"
 viewBox="0.00 0.00 76.00 260.00" xmlns="http://www.w3.org/2000/svg" xmlns:xlink="http://www.w3.org/1999/xlink">
<g id="graph0" class="graph" transform="scale(1 1) rotate(0) translate(4 256)">
<title>%3</title>
<!-- AandUnit -->
<g id="node1" class="node">
<title>AandUnit</title>
<path fill="#586e75" stroke="#586e75" d="M56,-252C56,-252 12,-252 12,-252 6,-252 0,-246 0,-240 0,-240 0,-228 0,-228 0,-222 6,-216 12,-216 12,-216 56,-216 56,-216 62,-216 68,-222 68,-228 68,-228 68,-240 68,-240 68,-246 62,-252 56,-252"/>
<text text-anchor="middle" x="34" y="-230.3" font-family="Inter,Arial" font-size="14.00" fill="#ffffff">A ✕ Unit</text>
</g>
<!-- AndAUnit -->
<g id="node2" class="node value">
<title>AndAUnit</title>
<path fill="#ffffff" stroke="#586e75" d="M49.5,-180C49.5,-180 18.5,-180 18.5,-180 12.5,-180 6.5,-174 6.5,-168 6.5,-168 6.5,-156 6.5,-156 6.5,-150 12.5,-144 18.5,-144 18.5,-144 49.5,-144 49.5,-144 55.5,-144 61.5,-150 61.5,-156 61.5,-156 61.5,-168 61.5,-168 61.5,-174 55.5,-180 49.5,-180"/>
<text text-anchor="middle" x="34" y="-158.3" font-family="Inter,Arial" font-size="14.00" fill="#586e75">aᵢ ✕ ()</text>
</g>
<!-- AandUnit&#45;&gt;AndAUnit -->
<g id="edge1" class="edge">
<title>AandUnit&#45;&gt;AndAUnit</title>
<path fill="none" stroke="#586e75" d="M34,-215.7C34,-207.98 34,-198.71 34,-190.11"/>
<polygon fill="#586e75" stroke="#586e75" points="37.5,-190.1 34,-180.1 30.5,-190.1 37.5,-190.1"/>
</g>
<!-- a -->
<!-- AndAUnit&#45;&gt;a -->
<!-- a&#45;&gt;AndAUnit -->
<!-- A -->
<g id="node4" class="node">
<title>A</title>
<path fill="#586e75" stroke="#586e75" d="M49,-36C49,-36 19,-36 19,-36 13,-36 7,-30 7,-24 7,-24 7,-12 7,-12 7,-6 13,0 19,0 19,0 49,0 49,0 55,0 61,-6 61,-12 61,-12 61,-24 61,-24 61,-30 55,-36 49,-36"/>
<text text-anchor="middle" x="34" y="-14.3" font-family="Inter,Arial" font-size="14.00" fill="#ffffff">A</text>
</g>
<!-- a&#45;&gt;A -->
</g>
</svg>
