<?xml version="1.0" encoding="UTF-8" standalone="no"?>
<!DOCTYPE svg PUBLIC "-//W3C//DTD SVG 1.1//EN"
 "http://www.w3.org/Graphics/SVG/1.1/DTD/svg11.dtd">
<!-- Generated by graphviz version 2.43.0 (0)
 -->
<!-- Title: %3 Pages: 1 -->
<svg width="81pt" height="260pt"
 viewBox="0.00 0.00 81.00 260.00" xmlns="http://www.w3.org/2000/svg" xmlns:xlink="http://www.w3.org/1999/xlink">
<g id="graph0" class="graph" transform="scale(1 1) rotate(0) translate(4 256)">
<title>%3</title>
<!-- AandUnit -->
<g id="node1" class="node">
<title>AandUnit</title>
<path fill="#586e75" stroke="#586e75" d="M61,-252C61,-252 12,-252 12,-252 6,-252 0,-246 0,-240 0,-240 0,-228 0,-228 0,-222 6,-216 12,-216 12,-216 61,-216 61,-216 67,-216 73,-222 73,-228 73,-228 73,-240 73,-240 73,-246 67,-252 61,-252"/>
<text text-anchor="middle" x="36.5" y="-230.3" font-family="Inter,Arial" font-size="14.00" fill="#ffffff">A ⋀ Unit</text>
</g>
<!-- AndAUnit -->
<!-- AandUnit&#45;&gt;AndAUnit -->
<!-- a -->
<!-- AndAUnit&#45;&gt;a -->
<!-- a&#45;&gt;AndAUnit -->
<!-- A -->
<g id="node4" class="node">
<title>A</title>
<path fill="#586e75" stroke="#586e75" d="M51.5,-36C51.5,-36 21.5,-36 21.5,-36 15.5,-36 9.5,-30 9.5,-24 9.5,-24 9.5,-12 9.5,-12 9.5,-6 15.5,0 21.5,0 21.5,0 51.5,0 51.5,0 57.5,0 63.5,-6 63.5,-12 63.5,-12 63.5,-24 63.5,-24 63.5,-30 57.5,-36 51.5,-36"/>
<text text-anchor="middle" x="36.5" y="-14.3" font-family="Inter,Arial" font-size="14.00" fill="#ffffff">A</text>
</g>
<!-- a&#45;&gt;A -->
</g>
</svg>
