<?xml version="1.0" encoding="UTF-8" standalone="no"?>
<!DOCTYPE svg PUBLIC "-//W3C//DTD SVG 1.1//EN"
 "http://www.w3.org/Graphics/SVG/1.1/DTD/svg11.dtd">
<!-- Generated by graphviz version 2.43.0 (0)
 -->
<!-- Title: %3 Pages: 1 -->
<svg width="64pt" height="260pt"
 viewBox="0.00 0.00 64.00 260.00" xmlns="http://www.w3.org/2000/svg" xmlns:xlink="http://www.w3.org/1999/xlink">
<g id="graph0" class="graph" transform="scale(1 1) rotate(0) translate(4 256)">
<title>%3</title>
<!-- AandB -->
<g id="node1" class="node">
<title>AandB</title>
<path fill="#586e75" stroke="#586e75" d="M43,-252C43,-252 13,-252 13,-252 7,-252 1,-246 1,-240 1,-240 1,-228 1,-228 1,-222 7,-216 13,-216 13,-216 43,-216 43,-216 49,-216 55,-222 55,-228 55,-228 55,-240 55,-240 55,-246 49,-252 43,-252"/>
<text text-anchor="middle" x="28" y="-230.3" font-family="Inter,Arial" font-size="14.00" fill="#ffffff">A ✕ B</text>
</g>
<!-- AndAB -->
<!-- AandB&#45;&gt;AndAB -->
<!-- AndBA -->
<!-- AndAB&#45;&gt;AndBA -->
<!-- BandA -->
<g id="node3" class="node">
<title>BandA</title>
<path fill="#586e75" stroke="#586e75" d="M43,-36C43,-36 13,-36 13,-36 7,-36 1,-30 1,-24 1,-24 1,-12 1,-12 1,-6 7,0 13,0 13,0 43,0 43,0 49,0 55,-6 55,-12 55,-12 55,-24 55,-24 55,-30 49,-36 43,-36"/>
<text text-anchor="middle" x="28" y="-14.3" font-family="Inter,Arial" font-size="14.00" fill="#ffffff">B ✕ A</text>
</g>
<!-- AndBA&#45;&gt;AndAB -->
<!-- AndBA&#45;&gt;BandA -->
</g>
</svg>
