<?xml version="1.0" encoding="UTF-8" standalone="no"?>
<!DOCTYPE svg PUBLIC "-//W3C//DTD SVG 1.1//EN"
 "http://www.w3.org/Graphics/SVG/1.1/DTD/svg11.dtd">
<!-- Generated by graphviz version 2.43.0 (0)
 -->
<!-- Title: %3 Pages: 1 -->
<svg width="87pt" height="260pt"
 viewBox="0.00 0.00 87.00 260.00" xmlns="http://www.w3.org/2000/svg" xmlns:xlink="http://www.w3.org/1999/xlink">
<g id="graph0" class="graph" transform="scale(1 1) rotate(0) translate(4 256)">
<title>%3</title>
<!-- AandB -->
<g id="node1" class="node">
<title>AandB</title>
<path fill="#586e75" stroke="#586e75" d="M62.5,-252C62.5,-252 16.5,-252 16.5,-252 10.5,-252 4.5,-246 4.5,-240 4.5,-240 4.5,-228 4.5,-228 4.5,-222 10.5,-216 16.5,-216 16.5,-216 62.5,-216 62.5,-216 68.5,-216 74.5,-222 74.5,-228 74.5,-228 74.5,-240 74.5,-240 74.5,-246 68.5,-252 62.5,-252"/>
<text text-anchor="middle" x="39.5" y="-230.3" font-family="Inter,Arial" font-size="14.00" fill="#ffffff">A And B</text>
</g>
<!-- AndAB -->
<g id="node2" class="node">
<title>AndAB</title>
<path fill="#ffffff" stroke="#586e75" d="M66.5,-180C66.5,-180 12.5,-180 12.5,-180 6.5,-180 0.5,-174 0.5,-168 0.5,-168 0.5,-156 0.5,-156 0.5,-150 6.5,-144 12.5,-144 12.5,-144 66.5,-144 66.5,-144 72.5,-144 78.5,-150 78.5,-156 78.5,-156 78.5,-168 78.5,-168 78.5,-174 72.5,-180 66.5,-180"/>
<text text-anchor="middle" x="39.5" y="-158.3" font-family="Inter,Arial" font-size="14.00" fill="#586e75">And(a, b)</text>
</g>
<!-- AandB&#45;&gt;AndAB -->
<g id="edge1" class="edge">
<title>AandB&#45;&gt;AndAB</title>
<path fill="none" stroke="#586e75" d="M39.5,-215.7C39.5,-207.98 39.5,-198.71 39.5,-190.11"/>
<polygon fill="#586e75" stroke="#586e75" points="43,-190.1 39.5,-180.1 36,-190.1 43,-190.1"/>
</g>
<!-- AndBA -->
<g id="node4" class="node">
<title>AndBA</title>
<path fill="#ffffff" stroke="#586e75" d="M67,-108C67,-108 12,-108 12,-108 6,-108 0,-102 0,-96 0,-96 0,-84 0,-84 0,-78 6,-72 12,-72 12,-72 67,-72 67,-72 73,-72 79,-78 79,-84 79,-84 79,-96 79,-96 79,-102 73,-108 67,-108"/>
<text text-anchor="middle" x="39.5" y="-86.3" font-family="Inter,Arial" font-size="14.00" fill="#586e75">And(b, a)</text>
</g>
<!-- AndAB&#45;&gt;AndBA -->
<g id="edge3" class="edge">
<title>AndAB&#45;&gt;AndBA</title>
<path fill="none" stroke="#586e75" d="M33.58,-143.7C32.79,-135.98 32.56,-126.71 32.9,-118.11"/>
<polygon fill="#586e75" stroke="#586e75" points="36.4,-118.32 33.6,-108.1 29.42,-117.84 36.4,-118.32"/>
</g>
<!-- BandA -->
<g id="node3" class="node">
<title>BandA</title>
<path fill="#586e75" stroke="#586e75" d="M62.5,-36C62.5,-36 16.5,-36 16.5,-36 10.5,-36 4.5,-30 4.5,-24 4.5,-24 4.5,-12 4.5,-12 4.5,-6 10.5,0 16.5,0 16.5,0 62.5,0 62.5,0 68.5,0 74.5,-6 74.5,-12 74.5,-12 74.5,-24 74.5,-24 74.5,-30 68.5,-36 62.5,-36"/>
<text text-anchor="middle" x="39.5" y="-14.3" font-family="Inter,Arial" font-size="14.00" fill="#ffffff">B And A</text>
</g>
<!-- AndBA&#45;&gt;AndAB -->
<g id="edge4" class="edge">
<title>AndBA&#45;&gt;AndAB</title>
<path fill="none" stroke="#586e75" d="M45.4,-108.1C46.2,-115.79 46.44,-125.05 46.1,-133.67"/>
<polygon fill="#586e75" stroke="#586e75" points="42.61,-133.48 45.42,-143.7 49.59,-133.96 42.61,-133.48"/>
</g>
<!-- AndBA&#45;&gt;BandA -->
<g id="edge2" class="edge">
<title>AndBA&#45;&gt;BandA</title>
<path fill="none" stroke="#586e75" d="M39.5,-61.67C39.5,-53.05 39.5,-43.79 39.5,-36.1"/>
<polygon fill="#586e75" stroke="#586e75" points="36,-61.7 39.5,-71.7 43,-61.7 36,-61.7"/>
</g>
</g>
</svg>
