<?xml version="1.0" encoding="UTF-8" standalone="no"?>
<!DOCTYPE svg PUBLIC "-//W3C//DTD SVG 1.1//EN"
 "http://www.w3.org/Graphics/SVG/1.1/DTD/svg11.dtd">
<!-- Generated by graphviz version 2.43.0 (0)
 -->
<!-- Title: %3 Pages: 1 -->
<svg width="103pt" height="260pt"
 viewBox="0.00 0.00 103.00 260.00" xmlns="http://www.w3.org/2000/svg" xmlns:xlink="http://www.w3.org/1999/xlink">
<g id="graph0" class="graph" transform="scale(1 1) rotate(0) translate(4 256)">
<title>%3</title>
<!-- LeftAssoc -->
<g id="node1" class="node">
<title>LeftAssoc</title>
<path fill="#586e75" stroke="#586e75" d="M83,-252C83,-252 12,-252 12,-252 6,-252 0,-246 0,-240 0,-240 0,-228 0,-228 0,-222 6,-216 12,-216 12,-216 83,-216 83,-216 89,-216 95,-222 95,-228 95,-228 95,-240 95,-240 95,-246 89,-252 83,-252"/>
<text text-anchor="middle" x="47.5" y="-230.3" font-family="Inter,Arial" font-size="14.00" fill="#ffffff">A ⋀ (B ⋀ C)</text>
</g>
<!-- Aand -->
<!-- LeftAssoc&#45;&gt;Aand -->
<!-- andC -->
<!-- Aand&#45;&gt;andC -->
<!-- RightAssoc -->
<g id="node3" class="node">
<title>RightAssoc</title>
<path fill="#586e75" stroke="#586e75" d="M83,-36C83,-36 12,-36 12,-36 6,-36 0,-30 0,-24 0,-24 0,-12 0,-12 0,-6 6,0 12,0 12,0 83,0 83,0 89,0 95,-6 95,-12 95,-12 95,-24 95,-24 95,-30 89,-36 83,-36"/>
<text text-anchor="middle" x="47.5" y="-14.3" font-family="Inter,Arial" font-size="14.00" fill="#ffffff">(A ⋀ B) ⋀ C</text>
</g>
<!-- andC&#45;&gt;Aand -->
<!-- andC&#45;&gt;RightAssoc -->
</g>
</svg>
