<?xml version="1.0" encoding="UTF-8" standalone="no"?>
<!DOCTYPE svg PUBLIC "-//W3C//DTD SVG 1.1//EN"
 "http://www.w3.org/Graphics/SVG/1.1/DTD/svg11.dtd">
<!-- Generated by graphviz version 2.43.0 (0)
 -->
<!-- Title: %3 Pages: 1 -->
<svg width="139pt" height="260pt"
 viewBox="0.00 0.00 139.00 260.00" xmlns="http://www.w3.org/2000/svg" xmlns:xlink="http://www.w3.org/1999/xlink">
<g id="graph0" class="graph" transform="scale(1 1) rotate(0) translate(4 256)">
<title>%3</title>
<!-- LeftAssoc -->
<g id="node1" class="node">
<title>LeftAssoc</title>
<path fill="#586e75" stroke="#586e75" d="M116,-252C116,-252 15,-252 15,-252 9,-252 3,-246 3,-240 3,-240 3,-228 3,-228 3,-222 9,-216 15,-216 15,-216 116,-216 116,-216 122,-216 128,-222 128,-228 128,-228 128,-240 128,-240 128,-246 122,-252 116,-252"/>
<text text-anchor="middle" x="65.5" y="-230.3" font-family="Inter,Arial" font-size="14.00" fill="#ffffff">A And (B And C)</text>
</g>
<!-- Aand -->
<!-- LeftAssoc&#45;&gt;Aand -->
<!-- andC -->
<!-- Aand&#45;&gt;andC -->
<!-- RightAssoc -->
<g id="node3" class="node">
<title>RightAssoc</title>
<path fill="#586e75" stroke="#586e75" d="M116,-36C116,-36 15,-36 15,-36 9,-36 3,-30 3,-24 3,-24 3,-12 3,-12 3,-6 9,0 15,0 15,0 116,0 116,0 122,0 128,-6 128,-12 128,-12 128,-24 128,-24 128,-30 122,-36 116,-36"/>
<text text-anchor="middle" x="65.5" y="-14.3" font-family="Inter,Arial" font-size="14.00" fill="#ffffff">(A And B) And C</text>
</g>
<!-- andC&#45;&gt;Aand -->
<!-- andC&#45;&gt;RightAssoc -->
</g>
</svg>
