<?xml version="1.0" encoding="UTF-8" standalone="no"?>
<!DOCTYPE svg PUBLIC "-//W3C//DTD SVG 1.1//EN"
 "http://www.w3.org/Graphics/SVG/1.1/DTD/svg11.dtd">
<!-- Generated by graphviz version 2.43.0 (0)
 -->
<!-- Title: %3 Pages: 1 -->
<svg width="66pt" height="260pt"
 viewBox="0.00 0.00 66.00 260.00" xmlns="http://www.w3.org/2000/svg" xmlns:xlink="http://www.w3.org/1999/xlink">
<g id="graph0" class="graph" transform="scale(1 1) rotate(0) translate(4 256)">
<title>%3</title>
<!-- AandB -->
<g id="node1" class="node">
<title>AandB</title>
<path fill="#586e75" stroke="#586e75" d="M44.5,-252C44.5,-252 13.5,-252 13.5,-252 7.5,-252 1.5,-246 1.5,-240 1.5,-240 1.5,-228 1.5,-228 1.5,-222 7.5,-216 13.5,-216 13.5,-216 44.5,-216 44.5,-216 50.5,-216 56.5,-222 56.5,-228 56.5,-228 56.5,-240 56.5,-240 56.5,-246 50.5,-252 44.5,-252"/>
<text text-anchor="middle" x="29" y="-230.3" font-family="Inter,Arial" font-size="14.00" fill="#ffffff">A ⋀ B</text>
</g>
<!-- AndAB -->
<g id="node2" class="node">
<title>AndAB</title>
<path fill="#ffffff" stroke="#586e75" d="M46,-180C46,-180 12,-180 12,-180 6,-180 0,-174 0,-168 0,-168 0,-156 0,-156 0,-150 6,-144 12,-144 12,-144 46,-144 46,-144 52,-144 58,-150 58,-156 58,-156 58,-168 58,-168 58,-174 52,-180 46,-180"/>
<text text-anchor="middle" x="29" y="-158.3" font-family="Inter,Arial" font-size="14.00" fill="#586e75">aᵢ ⋀ bᵢ</text>
</g>
<!-- AandB&#45;&gt;AndAB -->
<g id="edge1" class="edge">
<title>AandB&#45;&gt;AndAB</title>
<path fill="none" stroke="#586e75" d="M29,-215.7C29,-207.98 29,-198.71 29,-190.11"/>
<polygon fill="#586e75" stroke="#586e75" points="32.5,-190.1 29,-180.1 25.5,-190.1 32.5,-190.1"/>
</g>
<!-- AndBA -->
<g id="node4" class="node">
<title>AndBA</title>
<path fill="#ffffff" stroke="#586e75" d="M46,-108C46,-108 12,-108 12,-108 6,-108 0,-102 0,-96 0,-96 0,-84 0,-84 0,-78 6,-72 12,-72 12,-72 46,-72 46,-72 52,-72 58,-78 58,-84 58,-84 58,-96 58,-96 58,-102 52,-108 46,-108"/>
<text text-anchor="middle" x="29" y="-86.3" font-family="Inter,Arial" font-size="14.00" fill="#586e75">bᵢ ⋀ aᵢ</text>
</g>
<!-- AndAB&#45;&gt;AndBA -->
<!-- BandA -->
<g id="node3" class="node">
<title>BandA</title>
<path fill="#586e75" stroke="#586e75" d="M44.5,-36C44.5,-36 13.5,-36 13.5,-36 7.5,-36 1.5,-30 1.5,-24 1.5,-24 1.5,-12 1.5,-12 1.5,-6 7.5,0 13.5,0 13.5,0 44.5,0 44.5,0 50.5,0 56.5,-6 56.5,-12 56.5,-12 56.5,-24 56.5,-24 56.5,-30 50.5,-36 44.5,-36"/>
<text text-anchor="middle" x="29" y="-14.3" font-family="Inter,Arial" font-size="14.00" fill="#ffffff">B ⋀ A</text>
</g>
<!-- AndBA&#45;&gt;AndAB -->
<!-- AndBA&#45;&gt;BandA -->
<g id="edge2" class="edge">
<title>AndBA&#45;&gt;BandA</title>
<path fill="none" stroke="#586e75" d="M29,-61.67C29,-53.05 29,-43.79 29,-36.1"/>
<polygon fill="#586e75" stroke="#586e75" points="25.5,-61.7 29,-71.7 32.5,-61.7 25.5,-61.7"/>
</g>
</g>
</svg>
