<?xml version="1.0" encoding="UTF-8" standalone="no"?>
<!DOCTYPE svg PUBLIC "-//W3C//DTD SVG 1.1//EN"
 "http://www.w3.org/Graphics/SVG/1.1/DTD/svg11.dtd">
<!-- Generated by graphviz version 2.43.0 (0)
 -->
<!-- Title: %3 Pages: 1 -->
<svg width="87pt" height="260pt"
 viewBox="0.00 0.00 87.00 260.00" xmlns="http://www.w3.org/2000/svg" xmlns:xlink="http://www.w3.org/1999/xlink">
<g id="graph0" class="graph" transform="scale(1 1) rotate(0) translate(4 256)">
<title>%3</title>
<!-- AandB -->
<g id="node1" class="node">
<title>AandB</title>
<path fill="#586e75" stroke="#586e75" d="M62.5,-252C62.5,-252 16.5,-252 16.5,-252 10.5,-252 4.5,-246 4.5,-240 4.5,-240 4.5,-228 4.5,-228 4.5,-222 10.5,-216 16.5,-216 16.5,-216 62.5,-216 62.5,-216 68.5,-216 74.5,-222 74.5,-228 74.5,-228 74.5,-240 74.5,-240 74.5,-246 68.5,-252 62.5,-252"/>
<text text-anchor="middle" x="39.5" y="-230.3" font-family="Inter,Arial" font-size="14.00" fill="#ffffff">A And B</text>
</g>
<!-- AndAB -->
<g id="node2" class="node">
<title>AndAB</title>
<path fill="#ffffff" stroke="#586e75" d="M66.5,-180C66.5,-180 12.5,-180 12.5,-180 6.5,-180 0.5,-174 0.5,-168 0.5,-168 0.5,-156 0.5,-156 0.5,-150 6.5,-144 12.5,-144 12.5,-144 66.5,-144 66.5,-144 72.5,-144 78.5,-150 78.5,-156 78.5,-156 78.5,-168 78.5,-168 78.5,-174 72.5,-180 66.5,-180"/>
<text text-anchor="middle" x="39.5" y="-158.3" font-family="Inter,Arial" font-size="14.00" fill="#586e75">And(a, b)</text>
</g>
<!-- AandB&#45;&gt;AndAB -->
<g id="edge1" class="edge">
<title>AandB&#45;&gt;AndAB</title>
<path fill="none" stroke="#586e75" d="M39.5,-215.7C39.5,-207.98 39.5,-198.71 39.5,-190.11"/>
<polygon fill="#586e75" stroke="#586e75" points="43,-190.1 39.5,-180.1 36,-190.1 43,-190.1"/>
</g>
<!-- AndBA -->
<!-- AndAB&#45;&gt;AndBA -->
<!-- BandA -->
<g id="node3" class="node">
<title>BandA</title>
<path fill="#586e75" stroke="#586e75" d="M62.5,-36C62.5,-36 16.5,-36 16.5,-36 10.5,-36 4.5,-30 4.5,-24 4.5,-24 4.5,-12 4.5,-12 4.5,-6 10.5,0 16.5,0 16.5,0 62.5,0 62.5,0 68.5,0 74.5,-6 74.5,-12 74.5,-12 74.5,-24 74.5,-24 74.5,-30 68.5,-36 62.5,-36"/>
<text text-anchor="middle" x="39.5" y="-14.3" font-family="Inter,Arial" font-size="14.00" fill="#ffffff">B And A</text>
</g>
<!-- AndBA&#45;&gt;AndAB -->
<!-- AndBA&#45;&gt;BandA -->
</g>
</svg>
