<?xml version="1.0" encoding="UTF-8" standalone="no"?>
<!DOCTYPE svg PUBLIC "-//W3C//DTD SVG 1.1//EN"
 "http://www.w3.org/Graphics/SVG/1.1/DTD/svg11.dtd">
<!-- Generated by graphviz version 2.43.0 (0)
 -->
<!-- Title: %3 Pages: 1 -->
<svg width="103pt" height="260pt"
 viewBox="0.00 0.00 103.00 260.00" xmlns="http://www.w3.org/2000/svg" xmlns:xlink="http://www.w3.org/1999/xlink">
<g id="graph0" class="graph" transform="scale(1 1) rotate(0) translate(4 256)">
<title>%3</title>
<!-- LeftAssoc -->
<g id="node1" class="node">
<title>LeftAssoc</title>
<path fill="#586e75" stroke="#586e75" d="M81.5,-252C81.5,-252 13.5,-252 13.5,-252 7.5,-252 1.5,-246 1.5,-240 1.5,-240 1.5,-228 1.5,-228 1.5,-222 7.5,-216 13.5,-216 13.5,-216 81.5,-216 81.5,-216 87.5,-216 93.5,-222 93.5,-228 93.5,-228 93.5,-240 93.5,-240 93.5,-246 87.5,-252 81.5,-252"/>
<text text-anchor="middle" x="47.5" y="-230.3" font-family="Inter,Arial" font-size="14.00" fill="#ffffff">A ✕ (B ✕ C)</text>
</g>
<!-- Aand -->
<g id="node2" class="node value">
<title>Aand</title>
<path fill="#ffffff" stroke="#586e75" d="M83,-180C83,-180 12,-180 12,-180 6,-180 0,-174 0,-168 0,-168 0,-156 0,-156 0,-150 6,-144 12,-144 12,-144 83,-144 83,-144 89,-144 95,-150 95,-156 95,-156 95,-168 95,-168 95,-174 89,-180 83,-180"/>
<text text-anchor="middle" x="47.5" y="-158.3" font-family="Inter,Arial" font-size="14.00" fill="#586e75">aᵢ ✕ (bⱼ ✕ cₖ)</text>
</g>
<!-- LeftAssoc&#45;&gt;Aand -->
<g id="edge1" class="edge">
<title>LeftAssoc&#45;&gt;Aand</title>
<path fill="none" stroke="#586e75" d="M47.5,-215.7C47.5,-207.98 47.5,-198.71 47.5,-190.11"/>
<polygon fill="#586e75" stroke="#586e75" points="51,-190.1 47.5,-180.1 44,-190.1 51,-190.1"/>
</g>
<!-- andC -->
<!-- Aand&#45;&gt;andC -->
<!-- RightAssoc -->
<g id="node3" class="node">
<title>RightAssoc</title>
<path fill="#586e75" stroke="#586e75" d="M81.5,-36C81.5,-36 13.5,-36 13.5,-36 7.5,-36 1.5,-30 1.5,-24 1.5,-24 1.5,-12 1.5,-12 1.5,-6 7.5,0 13.5,0 13.5,0 81.5,0 81.5,0 87.5,0 93.5,-6 93.5,-12 93.5,-12 93.5,-24 93.5,-24 93.5,-30 87.5,-36 81.5,-36"/>
<text text-anchor="middle" x="47.5" y="-14.3" font-family="Inter,Arial" font-size="14.00" fill="#ffffff">(A ✕ B) ✕ C</text>
</g>
<!-- andC&#45;&gt;Aand -->
<!-- andC&#45;&gt;RightAssoc -->
</g>
</svg>
