<?xml version="1.0" encoding="UTF-8" standalone="no"?>
<!DOCTYPE svg PUBLIC "-//W3C//DTD SVG 1.1//EN"
 "http://www.w3.org/Graphics/SVG/1.1/DTD/svg11.dtd">
<!-- Generated by graphviz version 2.43.0 (0)
 -->
<!-- Title: %3 Pages: 1 -->
<svg width="63pt" height="260pt"
 viewBox="0.00 0.00 63.00 260.00" xmlns="http://www.w3.org/2000/svg" xmlns:xlink="http://www.w3.org/1999/xlink">
<g id="graph0" class="graph" transform="scale(1 1) rotate(0) translate(4 256)">
<title>%3</title>
<!-- AandB -->
<g id="node1" class="node">
<title>AandB</title>
<path fill="#586e75" stroke="#586e75" d="M43,-252C43,-252 12,-252 12,-252 6,-252 0,-246 0,-240 0,-240 0,-228 0,-228 0,-222 6,-216 12,-216 12,-216 43,-216 43,-216 49,-216 55,-222 55,-228 55,-228 55,-240 55,-240 55,-246 49,-252 43,-252"/>
<text text-anchor="middle" x="27.5" y="-230.3" font-family="Inter,Arial" font-size="14.00" fill="#ffffff">A ⋀ B</text>
</g>
<!-- AndAB -->
<g id="node2" class="node">
<title>AndAB</title>
<path fill="#ffffff" stroke="#586e75" d="M42.5,-180C42.5,-180 12.5,-180 12.5,-180 6.5,-180 0.5,-174 0.5,-168 0.5,-168 0.5,-156 0.5,-156 0.5,-150 6.5,-144 12.5,-144 12.5,-144 42.5,-144 42.5,-144 48.5,-144 54.5,-150 54.5,-156 54.5,-156 54.5,-168 54.5,-168 54.5,-174 48.5,-180 42.5,-180"/>
<text text-anchor="middle" x="27.5" y="-158.3" font-family="Inter,Arial" font-size="14.00" fill="#586e75">a ⋀ b</text>
</g>
<!-- AandB&#45;&gt;AndAB -->
<g id="edge1" class="edge">
<title>AandB&#45;&gt;AndAB</title>
<path fill="none" stroke="#586e75" d="M27.5,-215.7C27.5,-207.98 27.5,-198.71 27.5,-190.11"/>
<polygon fill="#586e75" stroke="#586e75" points="31,-190.1 27.5,-180.1 24,-190.1 31,-190.1"/>
</g>
<!-- AndBA -->
<g id="node4" class="node">
<title>AndBA</title>
<path fill="#ffffff" stroke="#586e75" d="M42.5,-108C42.5,-108 12.5,-108 12.5,-108 6.5,-108 0.5,-102 0.5,-96 0.5,-96 0.5,-84 0.5,-84 0.5,-78 6.5,-72 12.5,-72 12.5,-72 42.5,-72 42.5,-72 48.5,-72 54.5,-78 54.5,-84 54.5,-84 54.5,-96 54.5,-96 54.5,-102 48.5,-108 42.5,-108"/>
<text text-anchor="middle" x="27.5" y="-86.3" font-family="Inter,Arial" font-size="14.00" fill="#586e75">b ⋀ a</text>
</g>
<!-- AndAB&#45;&gt;AndBA -->
<!-- BandA -->
<g id="node3" class="node">
<title>BandA</title>
<path fill="#586e75" stroke="#586e75" d="M43,-36C43,-36 12,-36 12,-36 6,-36 0,-30 0,-24 0,-24 0,-12 0,-12 0,-6 6,0 12,0 12,0 43,0 43,0 49,0 55,-6 55,-12 55,-12 55,-24 55,-24 55,-30 49,-36 43,-36"/>
<text text-anchor="middle" x="27.5" y="-14.3" font-family="Inter,Arial" font-size="14.00" fill="#ffffff">B ⋀ A</text>
</g>
<!-- AndBA&#45;&gt;AndAB -->
<!-- AndBA&#45;&gt;BandA -->
<g id="edge2" class="edge">
<title>AndBA&#45;&gt;BandA</title>
<path fill="none" stroke="#586e75" d="M27.5,-61.67C27.5,-53.05 27.5,-43.79 27.5,-36.1"/>
<polygon fill="#586e75" stroke="#586e75" points="24,-61.7 27.5,-71.7 31,-61.7 24,-61.7"/>
</g>
</g>
</svg>
