<?xml version="1.0" encoding="UTF-8" standalone="no"?>
<!DOCTYPE svg PUBLIC "-//W3C//DTD SVG 1.1//EN"
 "http://www.w3.org/Graphics/SVG/1.1/DTD/svg11.dtd">
<!-- Generated by graphviz version 2.43.0 (0)
 -->
<!-- Title: %3 Pages: 1 -->
<svg width="106pt" height="260pt"
 viewBox="0.00 0.00 106.00 260.00" xmlns="http://www.w3.org/2000/svg" xmlns:xlink="http://www.w3.org/1999/xlink">
<g id="graph0" class="graph" transform="scale(1 1) rotate(0) translate(4 256)">
<title>%3</title>
<!-- LeftAssoc -->
<g id="node1" class="node">
<title>LeftAssoc</title>
<path fill="#586e75" stroke="#586e75" d="M84.5,-252C84.5,-252 13.5,-252 13.5,-252 7.5,-252 1.5,-246 1.5,-240 1.5,-240 1.5,-228 1.5,-228 1.5,-222 7.5,-216 13.5,-216 13.5,-216 84.5,-216 84.5,-216 90.5,-216 96.5,-222 96.5,-228 96.5,-228 96.5,-240 96.5,-240 96.5,-246 90.5,-252 84.5,-252"/>
<text text-anchor="middle" x="49" y="-230.3" font-family="Inter,Arial" font-size="14.00" fill="#ffffff">A ⋀ (B ⋀ C)</text>
</g>
<!-- Aand -->
<!-- LeftAssoc&#45;&gt;Aand -->
<!-- andC -->
<!-- Aand&#45;&gt;andC -->
<!-- RightAssoc -->
<g id="node3" class="node">
<title>RightAssoc</title>
<path fill="#586e75" stroke="#586e75" d="M84.5,-36C84.5,-36 13.5,-36 13.5,-36 7.5,-36 1.5,-30 1.5,-24 1.5,-24 1.5,-12 1.5,-12 1.5,-6 7.5,0 13.5,0 13.5,0 84.5,0 84.5,0 90.5,0 96.5,-6 96.5,-12 96.5,-12 96.5,-24 96.5,-24 96.5,-30 90.5,-36 84.5,-36"/>
<text text-anchor="middle" x="49" y="-14.3" font-family="Inter,Arial" font-size="14.00" fill="#ffffff">(A ⋀ B) ⋀ C</text>
</g>
<!-- andC&#45;&gt;Aand -->
<!-- andC&#45;&gt;RightAssoc -->
</g>
</svg>
