<?xml version="1.0" encoding="UTF-8" standalone="no"?>
<!DOCTYPE svg PUBLIC "-//W3C//DTD SVG 1.1//EN"
 "http://www.w3.org/Graphics/SVG/1.1/DTD/svg11.dtd">
<!-- Generated by graphviz version 2.43.0 (0)
 -->
<!-- Title: %3 Pages: 1 -->
<svg width="81pt" height="260pt"
 viewBox="0.00 0.00 81.00 260.00" xmlns="http://www.w3.org/2000/svg" xmlns:xlink="http://www.w3.org/1999/xlink">
<g id="graph0" class="graph" transform="scale(1 1) rotate(0) translate(4 256)">
<title>%3</title>
<!-- AandUnit -->
<g id="node1" class="node">
<title>AandUnit</title>
<path fill="#586e75" stroke="#586e75" d="M61,-252C61,-252 12,-252 12,-252 6,-252 0,-246 0,-240 0,-240 0,-228 0,-228 0,-222 6,-216 12,-216 12,-216 61,-216 61,-216 67,-216 73,-222 73,-228 73,-228 73,-240 73,-240 73,-246 67,-252 61,-252"/>
<text text-anchor="middle" x="36.5" y="-230.3" font-family="Inter,Arial" font-size="14.00" fill="#ffffff">A ⋀ Unit</text>
</g>
<!-- AndAUnit -->
<g id="node2" class="node">
<title>AndAUnit</title>
<path fill="#ffffff" stroke="#586e75" d="M53,-180C53,-180 20,-180 20,-180 14,-180 8,-174 8,-168 8,-168 8,-156 8,-156 8,-150 14,-144 20,-144 20,-144 53,-144 53,-144 59,-144 65,-150 65,-156 65,-156 65,-168 65,-168 65,-174 59,-180 53,-180"/>
<text text-anchor="middle" x="36.5" y="-158.3" font-family="Inter,Arial" font-size="14.00" fill="#586e75">aᵢ ⋀ ()</text>
</g>
<!-- AandUnit&#45;&gt;AndAUnit -->
<g id="edge1" class="edge">
<title>AandUnit&#45;&gt;AndAUnit</title>
<path fill="none" stroke="#586e75" d="M36.5,-215.7C36.5,-207.98 36.5,-198.71 36.5,-190.11"/>
<polygon fill="#586e75" stroke="#586e75" points="40,-190.1 36.5,-180.1 33,-190.1 40,-190.1"/>
</g>
<!-- a -->
<g id="node3" class="node">
<title>a</title>
<path fill="#ffffff" stroke="#586e75" d="M51.5,-108C51.5,-108 21.5,-108 21.5,-108 15.5,-108 9.5,-102 9.5,-96 9.5,-96 9.5,-84 9.5,-84 9.5,-78 15.5,-72 21.5,-72 21.5,-72 51.5,-72 51.5,-72 57.5,-72 63.5,-78 63.5,-84 63.5,-84 63.5,-96 63.5,-96 63.5,-102 57.5,-108 51.5,-108"/>
<text text-anchor="middle" x="36.5" y="-86.3" font-family="Inter,Arial" font-size="14.00" fill="#586e75">aᵢ</text>
</g>
<!-- AndAUnit&#45;&gt;a -->
<g id="edge3" class="edge">
<title>AndAUnit&#45;&gt;a</title>
<path fill="none" stroke="#586e75" d="M30.58,-143.7C29.79,-135.98 29.56,-126.71 29.9,-118.11"/>
<polygon fill="#586e75" stroke="#586e75" points="33.4,-118.32 30.6,-108.1 26.42,-117.84 33.4,-118.32"/>
</g>
<!-- a&#45;&gt;AndAUnit -->
<g id="edge4" class="edge">
<title>a&#45;&gt;AndAUnit</title>
<path fill="none" stroke="#586e75" d="M42.4,-108.1C43.2,-115.79 43.44,-125.05 43.1,-133.67"/>
<polygon fill="#586e75" stroke="#586e75" points="39.61,-133.48 42.42,-143.7 46.59,-133.96 39.61,-133.48"/>
</g>
<!-- A -->
<g id="node4" class="node">
<title>A</title>
<path fill="#586e75" stroke="#586e75" d="M51.5,-36C51.5,-36 21.5,-36 21.5,-36 15.5,-36 9.5,-30 9.5,-24 9.5,-24 9.5,-12 9.5,-12 9.5,-6 15.5,0 21.5,0 21.5,0 51.5,0 51.5,0 57.5,0 63.5,-6 63.5,-12 63.5,-12 63.5,-24 63.5,-24 63.5,-30 57.5,-36 51.5,-36"/>
<text text-anchor="middle" x="36.5" y="-14.3" font-family="Inter,Arial" font-size="14.00" fill="#ffffff">A</text>
</g>
<!-- a&#45;&gt;A -->
<g id="edge2" class="edge">
<title>a&#45;&gt;A</title>
<path fill="none" stroke="#586e75" d="M36.5,-61.67C36.5,-53.05 36.5,-43.79 36.5,-36.1"/>
<polygon fill="#586e75" stroke="#586e75" points="33,-61.7 36.5,-71.7 40,-61.7 33,-61.7"/>
</g>
</g>
</svg>
