<?xml version="1.0" encoding="UTF-8" standalone="no"?>
<!DOCTYPE svg PUBLIC "-//W3C//DTD SVG 1.1//EN"
 "http://www.w3.org/Graphics/SVG/1.1/DTD/svg11.dtd">
<!-- Generated by graphviz version 2.43.0 (0)
 -->
<!-- Title: %3 Pages: 1 -->
<svg width="355pt" height="260pt"
 viewBox="0.00 0.00 354.50 260.00" xmlns="http://www.w3.org/2000/svg" xmlns:xlink="http://www.w3.org/1999/xlink">
<g id="graph0" class="graph" transform="scale(1 1) rotate(0) translate(4 256)">
<title>%3</title>
<!-- LeftAssoc -->
<g id="node1" class="node">
<title>LeftAssoc</title>
<path fill="#586e75" stroke="#586e75" d="M197.5,-252C197.5,-252 126.5,-252 126.5,-252 120.5,-252 114.5,-246 114.5,-240 114.5,-240 114.5,-228 114.5,-228 114.5,-222 120.5,-216 126.5,-216 126.5,-216 197.5,-216 197.5,-216 203.5,-216 209.5,-222 209.5,-228 209.5,-228 209.5,-240 209.5,-240 209.5,-246 203.5,-252 197.5,-252"/>
<text text-anchor="middle" x="162" y="-230.3" font-family="Inter,Arial" font-size="14.00" fill="#ffffff">A ⋁ (B ⋁ C)</text>
</g>
<!-- LeftA -->
<g id="node2" class="node">
<title>LeftA</title>
<path fill="#ffffff" stroke="#586e75" d="M69,-180C69,-180 31,-180 31,-180 25,-180 19,-174 19,-168 19,-168 19,-156 19,-156 19,-150 25,-144 31,-144 31,-144 69,-144 69,-144 75,-144 81,-150 81,-156 81,-156 81,-168 81,-168 81,-174 75,-180 69,-180"/>
<text text-anchor="middle" x="50" y="-158.3" font-family="Inter,Arial" font-size="14.00" fill="#586e75">Left(a)</text>
</g>
<!-- LeftAssoc&#45;&gt;LeftA -->
<g id="edge1" class="edge">
<title>LeftAssoc&#45;&gt;LeftA</title>
<path fill="none" stroke="#586e75" d="M134.6,-215.88C120.09,-206.81 102.08,-195.55 86.41,-185.76"/>
<polygon fill="#586e75" stroke="#586e75" points="87.84,-182.52 77.5,-180.19 84.13,-188.46 87.84,-182.52"/>
</g>
<!-- RightLeftB -->
<g id="node3" class="node">
<title>RightLeftB</title>
<path fill="#ffffff" stroke="#586e75" d="M203.5,-180C203.5,-180 120.5,-180 120.5,-180 114.5,-180 108.5,-174 108.5,-168 108.5,-168 108.5,-156 108.5,-156 108.5,-150 114.5,-144 120.5,-144 120.5,-144 203.5,-144 203.5,-144 209.5,-144 215.5,-150 215.5,-156 215.5,-156 215.5,-168 215.5,-168 215.5,-174 209.5,-180 203.5,-180"/>
<text text-anchor="middle" x="162" y="-158.3" font-family="Inter,Arial" font-size="14.00" fill="#586e75">Right(Left(b))</text>
</g>
<!-- LeftAssoc&#45;&gt;RightLeftB -->
<g id="edge2" class="edge">
<title>LeftAssoc&#45;&gt;RightLeftB</title>
<path fill="none" stroke="#586e75" d="M162,-215.7C162,-207.98 162,-198.71 162,-190.11"/>
<polygon fill="#586e75" stroke="#586e75" points="165.5,-190.1 162,-180.1 158.5,-190.1 165.5,-190.1"/>
</g>
<!-- RightRightC -->
<g id="node4" class="node">
<title>RightRightC</title>
<path fill="#ffffff" stroke="#586e75" d="M334.5,-180C334.5,-180 245.5,-180 245.5,-180 239.5,-180 233.5,-174 233.5,-168 233.5,-168 233.5,-156 233.5,-156 233.5,-150 239.5,-144 245.5,-144 245.5,-144 334.5,-144 334.5,-144 340.5,-144 346.5,-150 346.5,-156 346.5,-156 346.5,-168 346.5,-168 346.5,-174 340.5,-180 334.5,-180"/>
<text text-anchor="middle" x="290" y="-158.3" font-family="Inter,Arial" font-size="14.00" fill="#586e75">Right(Right(c))</text>
</g>
<!-- LeftAssoc&#45;&gt;RightRightC -->
<g id="edge3" class="edge">
<title>LeftAssoc&#45;&gt;RightRightC</title>
<path fill="none" stroke="#586e75" d="M193.31,-215.88C210.2,-206.64 231.25,-195.13 249.38,-185.21"/>
<polygon fill="#586e75" stroke="#586e75" points="251.47,-188.06 258.57,-180.19 248.11,-181.92 251.47,-188.06"/>
</g>
<!-- LeftLeftA -->
<g id="node6" class="node">
<title>LeftLeftA</title>
<path fill="#ffffff" stroke="#586e75" d="M88,-108C88,-108 12,-108 12,-108 6,-108 0,-102 0,-96 0,-96 0,-84 0,-84 0,-78 6,-72 12,-72 12,-72 88,-72 88,-72 94,-72 100,-78 100,-84 100,-84 100,-96 100,-96 100,-102 94,-108 88,-108"/>
<text text-anchor="middle" x="50" y="-86.3" font-family="Inter,Arial" font-size="14.00" fill="#586e75">Left(Left(a))</text>
</g>
<!-- LeftA&#45;&gt;LeftLeftA -->
<!-- LeftRightB -->
<!-- RightLeftB&#45;&gt;LeftRightB -->
<!-- RightC -->
<!-- RightRightC&#45;&gt;RightC -->
<!-- RightAssoc -->
<g id="node5" class="node">
<title>RightAssoc</title>
<path fill="#586e75" stroke="#586e75" d="M207.5,-36C207.5,-36 136.5,-36 136.5,-36 130.5,-36 124.5,-30 124.5,-24 124.5,-24 124.5,-12 124.5,-12 124.5,-6 130.5,0 136.5,0 136.5,0 207.5,0 207.5,0 213.5,0 219.5,-6 219.5,-12 219.5,-12 219.5,-24 219.5,-24 219.5,-30 213.5,-36 207.5,-36"/>
<text text-anchor="middle" x="172" y="-14.3" font-family="Inter,Arial" font-size="14.00" fill="#ffffff">(A ⋁ B) ⋁ C</text>
</g>
<!-- LeftLeftA&#45;&gt;LeftA -->
<!-- LeftLeftA&#45;&gt;RightAssoc -->
<g id="edge4" class="edge">
<title>LeftLeftA&#45;&gt;RightAssoc</title>
<path fill="none" stroke="#586e75" d="M88.59,-66.86C105.86,-56.95 125.92,-45.44 142.04,-36.19"/>
<polygon fill="#586e75" stroke="#586e75" points="86.78,-63.86 79.84,-71.88 90.26,-69.94 86.78,-63.86"/>
</g>
<!-- LeftRightB&#45;&gt;RightLeftB -->
<!-- LeftRightB&#45;&gt;RightAssoc -->
<!-- RightC&#45;&gt;RightRightC -->
<!-- RightC&#45;&gt;RightAssoc -->
</g>
</svg>
