<?xml version="1.0" encoding="UTF-8" standalone="no"?>
<!DOCTYPE svg PUBLIC "-//W3C//DTD SVG 1.1//EN"
 "http://www.w3.org/Graphics/SVG/1.1/DTD/svg11.dtd">
<!-- Generated by graphviz version 2.43.0 (0)
 -->
<!-- Title: %3 Pages: 1 -->
<svg width="178pt" height="260pt"
 viewBox="0.00 0.00 178.00 260.00" xmlns="http://www.w3.org/2000/svg" xmlns:xlink="http://www.w3.org/1999/xlink">
<g id="graph0" class="graph" transform="scale(1 1) rotate(0) translate(4 256)">
<title>%3</title>
<!-- AorA -->
<g id="node1" class="node">
<title>AorA</title>
<path fill="#586e75" stroke="#586e75" d="M102,-252C102,-252 70,-252 70,-252 64,-252 58,-246 58,-240 58,-240 58,-228 58,-228 58,-222 64,-216 70,-216 70,-216 102,-216 102,-216 108,-216 114,-222 114,-228 114,-228 114,-240 114,-240 114,-246 108,-252 102,-252"/>
<text text-anchor="middle" x="86" y="-230.3" font-family="Inter,Arial" font-size="14.00" fill="#ffffff">A ⋁ A</text>
</g>
<!-- LeftA -->
<g id="node2" class="node">
<title>LeftA</title>
<path fill="#ffffff" stroke="#586e75" d="M59.5,-180C59.5,-180 18.5,-180 18.5,-180 12.5,-180 6.5,-174 6.5,-168 6.5,-168 6.5,-156 6.5,-156 6.5,-150 12.5,-144 18.5,-144 18.5,-144 59.5,-144 59.5,-144 65.5,-144 71.5,-150 71.5,-156 71.5,-156 71.5,-168 71.5,-168 71.5,-174 65.5,-180 59.5,-180"/>
<text text-anchor="middle" x="39" y="-158.3" font-family="Inter,Arial" font-size="14.00" fill="#586e75">Left(aᵢ)</text>
</g>
<!-- AorA&#45;&gt;LeftA -->
<g id="edge1" class="edge">
<title>AorA&#45;&gt;LeftA</title>
<path fill="none" stroke="#586e75" d="M74.38,-215.7C68.86,-207.47 62.15,-197.48 56.07,-188.42"/>
<polygon fill="#586e75" stroke="#586e75" points="58.96,-186.46 50.48,-180.1 53.15,-190.36 58.96,-186.46"/>
</g>
<!-- RightA -->
<g id="node3" class="node">
<title>RightA</title>
<path fill="#ffffff" stroke="#586e75" d="M156.5,-180C156.5,-180 109.5,-180 109.5,-180 103.5,-180 97.5,-174 97.5,-168 97.5,-168 97.5,-156 97.5,-156 97.5,-150 103.5,-144 109.5,-144 109.5,-144 156.5,-144 156.5,-144 162.5,-144 168.5,-150 168.5,-156 168.5,-156 168.5,-168 168.5,-168 168.5,-174 162.5,-180 156.5,-180"/>
<text text-anchor="middle" x="133" y="-158.3" font-family="Inter,Arial" font-size="14.00" fill="#586e75">Right(aᵢ)</text>
</g>
<!-- AorA&#45;&gt;RightA -->
<g id="edge2" class="edge">
<title>AorA&#45;&gt;RightA</title>
<path fill="none" stroke="#586e75" d="M97.62,-215.7C103.14,-207.47 109.85,-197.48 115.93,-188.42"/>
<polygon fill="#586e75" stroke="#586e75" points="118.85,-190.36 121.52,-180.1 113.04,-186.46 118.85,-190.36"/>
</g>
<!-- falseAndA -->
<g id="node6" class="node">
<title>falseAndA</title>
<path fill="#ffffff" stroke="#586e75" d="M66,-108C66,-108 12,-108 12,-108 6,-108 0,-102 0,-96 0,-96 0,-84 0,-84 0,-78 6,-72 12,-72 12,-72 66,-72 66,-72 72,-72 78,-78 78,-84 78,-84 78,-96 78,-96 78,-102 72,-108 66,-108"/>
<text text-anchor="middle" x="39" y="-86.3" font-family="Inter,Arial" font-size="14.00" fill="#586e75">false ⋀ aᵢ</text>
</g>
<!-- LeftA&#45;&gt;falseAndA -->
<g id="edge5" class="edge">
<title>LeftA&#45;&gt;falseAndA</title>
<path fill="none" stroke="#586e75" d="M33.08,-143.7C32.29,-135.98 32.06,-126.71 32.4,-118.11"/>
<polygon fill="#586e75" stroke="#586e75" points="35.9,-118.32 33.1,-108.1 28.92,-117.84 35.9,-118.32"/>
</g>
<!-- trueAndA -->
<g id="node5" class="node">
<title>trueAndA</title>
<path fill="#ffffff" stroke="#586e75" d="M158,-108C158,-108 108,-108 108,-108 102,-108 96,-102 96,-96 96,-96 96,-84 96,-84 96,-78 102,-72 108,-72 108,-72 158,-72 158,-72 164,-72 170,-78 170,-84 170,-84 170,-96 170,-96 170,-102 164,-108 158,-108"/>
<text text-anchor="middle" x="133" y="-86.3" font-family="Inter,Arial" font-size="14.00" fill="#586e75">true ⋀ aᵢ</text>
</g>
<!-- RightA&#45;&gt;trueAndA -->
<g id="edge7" class="edge">
<title>RightA&#45;&gt;trueAndA</title>
<path fill="none" stroke="#586e75" d="M127.08,-143.7C126.29,-135.98 126.06,-126.71 126.4,-118.11"/>
<polygon fill="#586e75" stroke="#586e75" points="129.9,-118.32 127.1,-108.1 122.92,-117.84 129.9,-118.32"/>
</g>
<!-- BooleanAndA -->
<g id="node4" class="node">
<title>BooleanAndA</title>
<path fill="#586e75" stroke="#586e75" d="M123.5,-36C123.5,-36 48.5,-36 48.5,-36 42.5,-36 36.5,-30 36.5,-24 36.5,-24 36.5,-12 36.5,-12 36.5,-6 42.5,0 48.5,0 48.5,0 123.5,0 123.5,0 129.5,0 135.5,-6 135.5,-12 135.5,-12 135.5,-24 135.5,-24 135.5,-30 129.5,-36 123.5,-36"/>
<text text-anchor="middle" x="86" y="-14.3" font-family="Inter,Arial" font-size="14.00" fill="#ffffff">Boolean ⋀ A</text>
</g>
<!-- trueAndA&#45;&gt;RightA -->
<g id="edge8" class="edge">
<title>trueAndA&#45;&gt;RightA</title>
<path fill="none" stroke="#586e75" d="M138.9,-108.1C139.7,-115.79 139.94,-125.05 139.6,-133.67"/>
<polygon fill="#586e75" stroke="#586e75" points="136.11,-133.48 138.92,-143.7 143.09,-133.96 136.11,-133.48"/>
</g>
<!-- trueAndA&#45;&gt;BooleanAndA -->
<g id="edge3" class="edge">
<title>trueAndA&#45;&gt;BooleanAndA</title>
<path fill="none" stroke="#586e75" d="M115.78,-63.36C109.69,-54.28 102.99,-44.3 97.48,-36.1"/>
<polygon fill="#586e75" stroke="#586e75" points="112.9,-65.35 121.38,-71.7 118.71,-61.44 112.9,-65.35"/>
</g>
<!-- falseAndA&#45;&gt;LeftA -->
<g id="edge6" class="edge">
<title>falseAndA&#45;&gt;LeftA</title>
<path fill="none" stroke="#586e75" d="M44.9,-108.1C45.7,-115.79 45.94,-125.05 45.6,-133.67"/>
<polygon fill="#586e75" stroke="#586e75" points="42.11,-133.48 44.92,-143.7 49.09,-133.96 42.11,-133.48"/>
</g>
<!-- falseAndA&#45;&gt;BooleanAndA -->
<g id="edge4" class="edge">
<title>falseAndA&#45;&gt;BooleanAndA</title>
<path fill="none" stroke="#586e75" d="M56.22,-63.36C62.31,-54.28 69.01,-44.3 74.52,-36.1"/>
<polygon fill="#586e75" stroke="#586e75" points="53.29,-61.44 50.62,-71.7 59.1,-65.35 53.29,-61.44"/>
</g>
</g>
</svg>
