<?xml version="1.0" encoding="UTF-8" standalone="no"?>
<!DOCTYPE svg PUBLIC "-//W3C//DTD SVG 1.1//EN"
 "http://www.w3.org/Graphics/SVG/1.1/DTD/svg11.dtd">
<!-- Generated by graphviz version 2.43.0 (0)
 -->
<!-- Title: %3 Pages: 1 -->
<svg width="365pt" height="260pt"
 viewBox="0.00 0.00 365.00 260.00" xmlns="http://www.w3.org/2000/svg" xmlns:xlink="http://www.w3.org/1999/xlink">
<g id="graph0" class="graph" transform="scale(1 1) rotate(0) translate(4 256)">
<title>%3</title>
<!-- LeftAssoc -->
<g id="node1" class="node">
<title>LeftAssoc</title>
<path fill="#586e75" stroke="#586e75" d="M201.5,-252C201.5,-252 130.5,-252 130.5,-252 124.5,-252 118.5,-246 118.5,-240 118.5,-240 118.5,-228 118.5,-228 118.5,-222 124.5,-216 130.5,-216 130.5,-216 201.5,-216 201.5,-216 207.5,-216 213.5,-222 213.5,-228 213.5,-228 213.5,-240 213.5,-240 213.5,-246 207.5,-252 201.5,-252"/>
<text text-anchor="middle" x="166" y="-230.3" font-family="Inter,Arial" font-size="14.00" fill="#ffffff">A ⋁ (B ⋁ C)</text>
</g>
<!-- LeftA -->
<g id="node2" class="node value">
<title>LeftA</title>
<path fill="#ffffff" stroke="#586e75" d="M71.5,-180C71.5,-180 30.5,-180 30.5,-180 24.5,-180 18.5,-174 18.5,-168 18.5,-168 18.5,-156 18.5,-156 18.5,-150 24.5,-144 30.5,-144 30.5,-144 71.5,-144 71.5,-144 77.5,-144 83.5,-150 83.5,-156 83.5,-156 83.5,-168 83.5,-168 83.5,-174 77.5,-180 71.5,-180"/>
<text text-anchor="middle" x="51" y="-158.3" font-family="Inter,Arial" font-size="14.00" fill="#586e75">Left(aᵢ)</text>
</g>
<!-- LeftAssoc&#45;&gt;LeftA -->
<g id="edge1" class="edge">
<title>LeftAssoc&#45;&gt;LeftA</title>
<path fill="none" stroke="#586e75" d="M137.87,-215.88C122.83,-206.72 104.13,-195.34 87.94,-185.48"/>
<polygon fill="#586e75" stroke="#586e75" points="89.6,-182.4 79.24,-180.19 85.96,-188.38 89.6,-182.4"/>
</g>
<!-- RightLeftB -->
<g id="node3" class="node value">
<title>RightLeftB</title>
<path fill="#ffffff" stroke="#586e75" d="M209,-180C209,-180 123,-180 123,-180 117,-180 111,-174 111,-168 111,-168 111,-156 111,-156 111,-150 117,-144 123,-144 123,-144 209,-144 209,-144 215,-144 221,-150 221,-156 221,-156 221,-168 221,-168 221,-174 215,-180 209,-180"/>
<text text-anchor="middle" x="166" y="-158.3" font-family="Inter,Arial" font-size="14.00" fill="#586e75">Right(Left(bⱼ))</text>
</g>
<!-- LeftAssoc&#45;&gt;RightLeftB -->
<g id="edge2" class="edge">
<title>LeftAssoc&#45;&gt;RightLeftB</title>
<path fill="none" stroke="#586e75" d="M166,-215.7C166,-207.98 166,-198.71 166,-190.11"/>
<polygon fill="#586e75" stroke="#586e75" points="169.5,-190.1 166,-180.1 162.5,-190.1 169.5,-190.1"/>
</g>
<!-- RightRightC -->
<g id="node4" class="node value">
<title>RightRightC</title>
<path fill="#ffffff" stroke="#586e75" d="M345,-180C345,-180 251,-180 251,-180 245,-180 239,-174 239,-168 239,-168 239,-156 239,-156 239,-150 245,-144 251,-144 251,-144 345,-144 345,-144 351,-144 357,-150 357,-156 357,-156 357,-168 357,-168 357,-174 351,-180 345,-180"/>
<text text-anchor="middle" x="298" y="-158.3" font-family="Inter,Arial" font-size="14.00" fill="#586e75">Right(Right(cₖ))</text>
</g>
<!-- LeftAssoc&#45;&gt;RightRightC -->
<g id="edge3" class="edge">
<title>LeftAssoc&#45;&gt;RightRightC</title>
<path fill="none" stroke="#586e75" d="M198.29,-215.88C215.87,-206.55 237.81,-194.92 256.63,-184.94"/>
<polygon fill="#586e75" stroke="#586e75" points="258.39,-187.97 265.59,-180.19 255.11,-181.78 258.39,-187.97"/>
</g>
<!-- LeftLeftA -->
<g id="node6" class="node value">
<title>LeftLeftA</title>
<path fill="#ffffff" stroke="#586e75" d="M90,-108C90,-108 12,-108 12,-108 6,-108 0,-102 0,-96 0,-96 0,-84 0,-84 0,-78 6,-72 12,-72 12,-72 90,-72 90,-72 96,-72 102,-78 102,-84 102,-84 102,-96 102,-96 102,-102 96,-108 90,-108"/>
<text text-anchor="middle" x="51" y="-86.3" font-family="Inter,Arial" font-size="14.00" fill="#586e75">Left(Left(aᵢ))</text>
</g>
<!-- LeftA&#45;&gt;LeftLeftA -->
<g id="edge7" class="edge">
<title>LeftA&#45;&gt;LeftLeftA</title>
<path fill="none" stroke="#586e75" d="M45.08,-143.7C44.29,-135.98 44.06,-126.71 44.4,-118.11"/>
<polygon fill="#586e75" stroke="#586e75" points="47.9,-118.32 45.1,-108.1 40.92,-117.84 47.9,-118.32"/>
</g>
<!-- LeftRightB -->
<g id="node7" class="node value">
<title>LeftRightB</title>
<path fill="#ffffff" stroke="#586e75" d="M218,-108C218,-108 132,-108 132,-108 126,-108 120,-102 120,-96 120,-96 120,-84 120,-84 120,-78 126,-72 132,-72 132,-72 218,-72 218,-72 224,-72 230,-78 230,-84 230,-84 230,-96 230,-96 230,-102 224,-108 218,-108"/>
<text text-anchor="middle" x="175" y="-86.3" font-family="Inter,Arial" font-size="14.00" fill="#586e75">Left(Right(bⱼ))</text>
</g>
<!-- RightLeftB&#45;&gt;LeftRightB -->
<g id="edge8" class="edge">
<title>RightLeftB&#45;&gt;LeftRightB</title>
<path fill="none" stroke="#586e75" d="M162.31,-143.7C162.51,-135.98 163.47,-126.71 164.92,-118.11"/>
<polygon fill="#586e75" stroke="#586e75" points="168.39,-118.59 166.91,-108.1 161.53,-117.23 168.39,-118.59"/>
</g>
<!-- RightC -->
<g id="node8" class="node value">
<title>RightC</title>
<path fill="#ffffff" stroke="#586e75" d="M323,-108C323,-108 273,-108 273,-108 267,-108 261,-102 261,-96 261,-96 261,-84 261,-84 261,-78 267,-72 273,-72 273,-72 323,-72 323,-72 329,-72 335,-78 335,-84 335,-84 335,-96 335,-96 335,-102 329,-108 323,-108"/>
<text text-anchor="middle" x="298" y="-86.3" font-family="Inter,Arial" font-size="14.00" fill="#586e75">Right(cₖ)</text>
</g>
<!-- RightRightC&#45;&gt;RightC -->
<g id="edge9" class="edge">
<title>RightRightC&#45;&gt;RightC</title>
<path fill="none" stroke="#586e75" d="M292.08,-143.7C291.29,-135.98 291.06,-126.71 291.4,-118.11"/>
<polygon fill="#586e75" stroke="#586e75" points="294.9,-118.32 292.1,-108.1 287.92,-117.84 294.9,-118.32"/>
</g>
<!-- RightAssoc -->
<g id="node5" class="node">
<title>RightAssoc</title>
<path fill="#586e75" stroke="#586e75" d="M210.5,-36C210.5,-36 139.5,-36 139.5,-36 133.5,-36 127.5,-30 127.5,-24 127.5,-24 127.5,-12 127.5,-12 127.5,-6 133.5,0 139.5,0 139.5,0 210.5,0 210.5,0 216.5,0 222.5,-6 222.5,-12 222.5,-12 222.5,-24 222.5,-24 222.5,-30 216.5,-36 210.5,-36"/>
<text text-anchor="middle" x="175" y="-14.3" font-family="Inter,Arial" font-size="14.00" fill="#ffffff">(A ⋁ B) ⋁ C</text>
</g>
<!-- LeftLeftA&#45;&gt;LeftA -->
<g id="edge10" class="edge">
<title>LeftLeftA&#45;&gt;LeftA</title>
<path fill="none" stroke="#586e75" d="M56.9,-108.1C57.7,-115.79 57.94,-125.05 57.6,-133.67"/>
<polygon fill="#586e75" stroke="#586e75" points="54.11,-133.48 56.92,-143.7 61.09,-133.96 54.11,-133.48"/>
</g>
<!-- LeftLeftA&#45;&gt;RightAssoc -->
<g id="edge4" class="edge">
<title>LeftLeftA&#45;&gt;RightAssoc</title>
<path fill="none" stroke="#586e75" d="M90.22,-66.86C107.78,-56.95 128.17,-45.44 144.55,-36.19"/>
<polygon fill="#586e75" stroke="#586e75" points="88.32,-63.91 81.33,-71.88 91.76,-70.01 88.32,-63.91"/>
</g>
<!-- LeftRightB&#45;&gt;RightLeftB -->
<g id="edge11" class="edge">
<title>LeftRightB&#45;&gt;RightLeftB</title>
<path fill="none" stroke="#586e75" d="M178.7,-108.1C178.51,-115.79 177.56,-125.05 176.12,-133.67"/>
<polygon fill="#586e75" stroke="#586e75" points="172.64,-133.21 174.14,-143.7 179.51,-134.56 172.64,-133.21"/>
</g>
<!-- LeftRightB&#45;&gt;RightAssoc -->
<g id="edge5" class="edge">
<title>LeftRightB&#45;&gt;RightAssoc</title>
<path fill="none" stroke="#586e75" d="M175,-61.67C175,-53.05 175,-43.79 175,-36.1"/>
<polygon fill="#586e75" stroke="#586e75" points="171.5,-61.7 175,-71.7 178.5,-61.7 171.5,-61.7"/>
</g>
<!-- RightC&#45;&gt;RightRightC -->
<g id="edge12" class="edge">
<title>RightC&#45;&gt;RightRightC</title>
<path fill="none" stroke="#586e75" d="M303.9,-108.1C304.7,-115.79 304.94,-125.05 304.6,-133.67"/>
<polygon fill="#586e75" stroke="#586e75" points="301.11,-133.48 303.92,-143.7 308.09,-133.96 301.11,-133.48"/>
</g>
<!-- RightC&#45;&gt;RightAssoc -->
<g id="edge6" class="edge">
<title>RightC&#45;&gt;RightAssoc</title>
<path fill="none" stroke="#586e75" d="M259.1,-66.86C241.68,-56.95 221.45,-45.44 205.2,-36.19"/>
<polygon fill="#586e75" stroke="#586e75" points="257.49,-69.97 267.91,-71.88 260.95,-63.89 257.49,-69.97"/>
</g>
</g>
</svg>
