<?xml version="1.0" encoding="UTF-8" standalone="no"?>
<!DOCTYPE svg PUBLIC "-//W3C//DTD SVG 1.1//EN"
 "http://www.w3.org/Graphics/SVG/1.1/DTD/svg11.dtd">
<!-- Generated by graphviz version 2.43.0 (0)
 -->
<!-- Title: %3 Pages: 1 -->
<svg width="138pt" height="260pt"
 viewBox="0.00 0.00 138.00 260.00" xmlns="http://www.w3.org/2000/svg" xmlns:xlink="http://www.w3.org/1999/xlink">
<g id="graph0" class="graph" transform="scale(1 1) rotate(0) translate(4 256)">
<title>%3</title>
<!-- AorNothing -->
<g id="node1" class="node">
<title>AorNothing</title>
<path fill="#586e75" stroke="#586e75" d="M97.5,-252C97.5,-252 34.5,-252 34.5,-252 28.5,-252 22.5,-246 22.5,-240 22.5,-240 22.5,-228 22.5,-228 22.5,-222 28.5,-216 34.5,-216 34.5,-216 97.5,-216 97.5,-216 103.5,-216 109.5,-222 109.5,-228 109.5,-228 109.5,-240 109.5,-240 109.5,-246 103.5,-252 97.5,-252"/>
<text text-anchor="middle" x="66" y="-230.3" font-family="Inter,Arial" font-size="14.00" fill="#ffffff">A + Nothing</text>
</g>
<!-- LeftA -->
<g id="node2" class="node value">
<title>LeftA</title>
<path fill="#ffffff" stroke="#586e75" d="M46,-180C46,-180 12,-180 12,-180 6,-180 0,-174 0,-168 0,-168 0,-156 0,-156 0,-150 6,-144 12,-144 12,-144 46,-144 46,-144 52,-144 58,-150 58,-156 58,-156 58,-168 58,-168 58,-174 52,-180 46,-180"/>
<text text-anchor="middle" x="29" y="-158.3" font-family="Inter,Arial" font-size="14.00" fill="#586e75">Left(aᵢ)</text>
</g>
<!-- AorNothing&#45;&gt;LeftA -->
<g id="edge1" class="edge">
<title>AorNothing&#45;&gt;LeftA</title>
<path fill="none" stroke="#586e75" d="M56.85,-215.7C52.6,-207.64 47.44,-197.89 42.73,-188.98"/>
<polygon fill="#586e75" stroke="#586e75" points="45.81,-187.31 38.04,-180.1 39.62,-190.58 45.81,-187.31"/>
</g>
<!-- na -->
<!-- AorNothing&#45;&gt;na -->
<!-- a -->
<!-- LeftA&#45;&gt;a -->
<!-- na2 -->
<!-- na&#45;&gt;na2 -->
<!-- na2&#45;&gt;na -->
<!-- A -->
<g id="node6" class="node">
<title>A</title>
<path fill="#586e75" stroke="#586e75" d="M81,-36C81,-36 51,-36 51,-36 45,-36 39,-30 39,-24 39,-24 39,-12 39,-12 39,-6 45,0 51,0 51,0 81,0 81,0 87,0 93,-6 93,-12 93,-12 93,-24 93,-24 93,-30 87,-36 81,-36"/>
<text text-anchor="middle" x="66" y="-14.3" font-family="Inter,Arial" font-size="14.00" fill="#ffffff">A</text>
</g>
<!-- na2&#45;&gt;A -->
<!-- a&#45;&gt;LeftA -->
<!-- a&#45;&gt;A -->
</g>
</svg>
