<?xml version="1.0" encoding="UTF-8" standalone="no"?>
<!DOCTYPE svg PUBLIC "-//W3C//DTD SVG 1.1//EN"
 "http://www.w3.org/Graphics/SVG/1.1/DTD/svg11.dtd">
<!-- Generated by graphviz version 2.43.0 (0)
 -->
<!-- Title: %3 Pages: 1 -->
<svg width="224pt" height="260pt"
 viewBox="0.00 0.00 224.00 260.00" xmlns="http://www.w3.org/2000/svg" xmlns:xlink="http://www.w3.org/1999/xlink">
<g id="graph0" class="graph" transform="scale(1 1) rotate(0) translate(4 256)">
<title>%3</title>
<!-- AorA -->
<g id="node1" class="node">
<title>AorA</title>
<path fill="#586e75" stroke="#586e75" d="M126,-252C126,-252 91,-252 91,-252 85,-252 79,-246 79,-240 79,-240 79,-228 79,-228 79,-222 85,-216 91,-216 91,-216 126,-216 126,-216 132,-216 138,-222 138,-228 138,-228 138,-240 138,-240 138,-246 132,-252 126,-252"/>
<text text-anchor="middle" x="108.5" y="-230.3" font-family="Inter,Arial" font-size="14.00" fill="#ffffff">A Or A</text>
</g>
<!-- LeftA -->
<!-- AorA&#45;&gt;LeftA -->
<!-- RightA -->
<!-- AorA&#45;&gt;RightA -->
<!-- falseAndA -->
<!-- LeftA&#45;&gt;falseAndA -->
<!-- trueAndA -->
<!-- RightA&#45;&gt;trueAndA -->
<!-- BooleanAndA -->
<g id="node4" class="node">
<title>BooleanAndA</title>
<path fill="#586e75" stroke="#586e75" d="M153.5,-36C153.5,-36 63.5,-36 63.5,-36 57.5,-36 51.5,-30 51.5,-24 51.5,-24 51.5,-12 51.5,-12 51.5,-6 57.5,0 63.5,0 63.5,0 153.5,0 153.5,0 159.5,0 165.5,-6 165.5,-12 165.5,-12 165.5,-24 165.5,-24 165.5,-30 159.5,-36 153.5,-36"/>
<text text-anchor="middle" x="108.5" y="-14.3" font-family="Inter,Arial" font-size="14.00" fill="#ffffff">Boolean And A</text>
</g>
<!-- trueAndA&#45;&gt;RightA -->
<!-- trueAndA&#45;&gt;BooleanAndA -->
<!-- falseAndA&#45;&gt;LeftA -->
<!-- falseAndA&#45;&gt;BooleanAndA -->
</g>
</svg>
