<?xml version="1.0" encoding="UTF-8" standalone="no"?>
<!DOCTYPE svg PUBLIC "-//W3C//DTD SVG 1.1//EN"
 "http://www.w3.org/Graphics/SVG/1.1/DTD/svg11.dtd">
<!-- Generated by graphviz version 2.43.0 (0)
 -->
<!-- Title: %3 Pages: 1 -->
<svg width="167pt" height="260pt"
 viewBox="0.00 0.00 166.50 260.00" xmlns="http://www.w3.org/2000/svg" xmlns:xlink="http://www.w3.org/1999/xlink">
<g id="graph0" class="graph" transform="scale(1 1) rotate(0) translate(4 256)">
<title>%3</title>
<!-- AorB -->
<g id="node1" class="node">
<title>AorB</title>
<path fill="#586e75" stroke="#586e75" d="M94,-252C94,-252 63,-252 63,-252 57,-252 51,-246 51,-240 51,-240 51,-228 51,-228 51,-222 57,-216 63,-216 63,-216 94,-216 94,-216 100,-216 106,-222 106,-228 106,-228 106,-240 106,-240 106,-246 100,-252 94,-252"/>
<text text-anchor="middle" x="78.5" y="-230.3" font-family="Inter,Arial" font-size="14.00" fill="#ffffff">A ⋁ B</text>
</g>
<!-- LeftA -->
<g id="node2" class="node">
<title>LeftA</title>
<path fill="#ffffff" stroke="#586e75" d="M56,-180C56,-180 15,-180 15,-180 9,-180 3,-174 3,-168 3,-168 3,-156 3,-156 3,-150 9,-144 15,-144 15,-144 56,-144 56,-144 62,-144 68,-150 68,-156 68,-156 68,-168 68,-168 68,-174 62,-180 56,-180"/>
<text text-anchor="middle" x="35.5" y="-158.3" font-family="Inter,Arial" font-size="14.00" fill="#586e75">Left(aᵢ)</text>
</g>
<!-- AorB&#45;&gt;LeftA -->
<g id="edge1" class="edge">
<title>AorB&#45;&gt;LeftA</title>
<path fill="none" stroke="#586e75" d="M67.87,-215.7C62.87,-207.56 56.81,-197.69 51.29,-188.7"/>
<polygon fill="#586e75" stroke="#586e75" points="54.22,-186.79 46.01,-180.1 48.26,-190.46 54.22,-186.79"/>
</g>
<!-- RightB -->
<g id="node3" class="node">
<title>RightB</title>
<path fill="#ffffff" stroke="#586e75" d="M146.5,-180C146.5,-180 98.5,-180 98.5,-180 92.5,-180 86.5,-174 86.5,-168 86.5,-168 86.5,-156 86.5,-156 86.5,-150 92.5,-144 98.5,-144 98.5,-144 146.5,-144 146.5,-144 152.5,-144 158.5,-150 158.5,-156 158.5,-156 158.5,-168 158.5,-168 158.5,-174 152.5,-180 146.5,-180"/>
<text text-anchor="middle" x="122.5" y="-158.3" font-family="Inter,Arial" font-size="14.00" fill="#586e75">Right(bᵢ)</text>
</g>
<!-- AorB&#45;&gt;RightB -->
<g id="edge2" class="edge">
<title>AorB&#45;&gt;RightB</title>
<path fill="none" stroke="#586e75" d="M89.38,-215.7C94.49,-207.56 100.7,-197.69 106.34,-188.7"/>
<polygon fill="#586e75" stroke="#586e75" points="109.39,-190.43 111.75,-180.1 103.46,-186.71 109.39,-190.43"/>
</g>
<!-- RightA -->
<g id="node6" class="node">
<title>RightA</title>
<path fill="#ffffff" stroke="#586e75" d="M59,-108C59,-108 12,-108 12,-108 6,-108 0,-102 0,-96 0,-96 0,-84 0,-84 0,-78 6,-72 12,-72 12,-72 59,-72 59,-72 65,-72 71,-78 71,-84 71,-84 71,-96 71,-96 71,-102 65,-108 59,-108"/>
<text text-anchor="middle" x="35.5" y="-86.3" font-family="Inter,Arial" font-size="14.00" fill="#586e75">Right(aᵢ)</text>
</g>
<!-- LeftA&#45;&gt;RightA -->
<!-- LeftB -->
<g id="node5" class="node">
<title>LeftB</title>
<path fill="#ffffff" stroke="#586e75" d="M143,-108C143,-108 102,-108 102,-108 96,-108 90,-102 90,-96 90,-96 90,-84 90,-84 90,-78 96,-72 102,-72 102,-72 143,-72 143,-72 149,-72 155,-78 155,-84 155,-84 155,-96 155,-96 155,-102 149,-108 143,-108"/>
<text text-anchor="middle" x="122.5" y="-86.3" font-family="Inter,Arial" font-size="14.00" fill="#586e75">Left(bᵢ)</text>
</g>
<!-- RightB&#45;&gt;LeftB -->
<!-- BorA -->
<g id="node4" class="node">
<title>BorA</title>
<path fill="#586e75" stroke="#586e75" d="M94,-36C94,-36 63,-36 63,-36 57,-36 51,-30 51,-24 51,-24 51,-12 51,-12 51,-6 57,0 63,0 63,0 94,0 94,0 100,0 106,-6 106,-12 106,-12 106,-24 106,-24 106,-30 100,-36 94,-36"/>
<text text-anchor="middle" x="78.5" y="-14.3" font-family="Inter,Arial" font-size="14.00" fill="#ffffff">B ⋁ A</text>
</g>
<!-- LeftB&#45;&gt;RightB -->
<!-- LeftB&#45;&gt;BorA -->
<g id="edge3" class="edge">
<title>LeftB&#45;&gt;BorA</title>
<path fill="none" stroke="#586e75" d="M106.21,-63.08C100.55,-54.08 94.35,-44.21 89.25,-36.1"/>
<polygon fill="#586e75" stroke="#586e75" points="103.34,-65.09 111.62,-71.7 109.27,-61.37 103.34,-65.09"/>
</g>
<!-- RightA&#45;&gt;LeftA -->
<!-- RightA&#45;&gt;BorA -->
<g id="edge4" class="edge">
<title>RightA&#45;&gt;BorA</title>
<path fill="none" stroke="#586e75" d="M51.42,-63.08C56.95,-54.08 63.01,-44.21 67.99,-36.1"/>
<polygon fill="#586e75" stroke="#586e75" points="48.38,-61.34 46.13,-71.7 54.35,-65.01 48.38,-61.34"/>
</g>
</g>
</svg>
