<?xml version="1.0" encoding="UTF-8" standalone="no"?>
<!DOCTYPE svg PUBLIC "-//W3C//DTD SVG 1.1//EN"
 "http://www.w3.org/Graphics/SVG/1.1/DTD/svg11.dtd">
<!-- Generated by graphviz version 2.43.0 (0)
 -->
<!-- Title: %3 Pages: 1 -->
<svg width="170pt" height="260pt"
 viewBox="0.00 0.00 169.50 260.00" xmlns="http://www.w3.org/2000/svg" xmlns:xlink="http://www.w3.org/1999/xlink">
<g id="graph0" class="graph" transform="scale(1 1) rotate(0) translate(4 256)">
<title>%3</title>
<!-- AorA -->
<g id="node1" class="node">
<title>AorA</title>
<path fill="#586e75" stroke="#586e75" d="M97,-252C97,-252 67,-252 67,-252 61,-252 55,-246 55,-240 55,-240 55,-228 55,-228 55,-222 61,-216 67,-216 67,-216 97,-216 97,-216 103,-216 109,-222 109,-228 109,-228 109,-240 109,-240 109,-246 103,-252 97,-252"/>
<text text-anchor="middle" x="82" y="-230.3" font-family="Inter,Arial" font-size="14.00" fill="#ffffff">A + A</text>
</g>
<!-- LeftA -->
<g id="node2" class="node value">
<title>LeftA</title>
<path fill="#ffffff" stroke="#586e75" d="M54,-180C54,-180 20,-180 20,-180 14,-180 8,-174 8,-168 8,-168 8,-156 8,-156 8,-150 14,-144 20,-144 20,-144 54,-144 54,-144 60,-144 66,-150 66,-156 66,-156 66,-168 66,-168 66,-174 60,-180 54,-180"/>
<text text-anchor="middle" x="37" y="-158.3" font-family="Inter,Arial" font-size="14.00" fill="#586e75">Left(aᵢ)</text>
</g>
<!-- AorA&#45;&gt;LeftA -->
<g id="edge1" class="edge">
<title>AorA&#45;&gt;LeftA</title>
<path fill="none" stroke="#586e75" d="M70.88,-215.7C65.64,-207.56 59.3,-197.69 53.52,-188.7"/>
<polygon fill="#586e75" stroke="#586e75" points="56.35,-186.62 48,-180.1 50.46,-190.41 56.35,-186.62"/>
</g>
<!-- RightA -->
<g id="node3" class="node value">
<title>RightA</title>
<path fill="#ffffff" stroke="#586e75" d="M148.5,-180C148.5,-180 105.5,-180 105.5,-180 99.5,-180 93.5,-174 93.5,-168 93.5,-168 93.5,-156 93.5,-156 93.5,-150 99.5,-144 105.5,-144 105.5,-144 148.5,-144 148.5,-144 154.5,-144 160.5,-150 160.5,-156 160.5,-156 160.5,-168 160.5,-168 160.5,-174 154.5,-180 148.5,-180"/>
<text text-anchor="middle" x="127" y="-158.3" font-family="Inter,Arial" font-size="14.00" fill="#586e75">Right(aⱼ)</text>
</g>
<!-- AorA&#45;&gt;RightA -->
<g id="edge2" class="edge">
<title>AorA&#45;&gt;RightA</title>
<path fill="none" stroke="#586e75" d="M93.12,-215.7C98.36,-207.56 104.7,-197.69 110.48,-188.7"/>
<polygon fill="#586e75" stroke="#586e75" points="113.54,-190.41 116,-180.1 107.65,-186.62 113.54,-190.41"/>
</g>
<!-- falseAndA -->
<g id="node6" class="node value">
<title>falseAndA</title>
<path fill="#ffffff" stroke="#586e75" d="M62,-108C62,-108 12,-108 12,-108 6,-108 0,-102 0,-96 0,-96 0,-84 0,-84 0,-78 6,-72 12,-72 12,-72 62,-72 62,-72 68,-72 74,-78 74,-84 74,-84 74,-96 74,-96 74,-102 68,-108 62,-108"/>
<text text-anchor="middle" x="37" y="-86.3" font-family="Inter,Arial" font-size="14.00" fill="#586e75">false ✕ aᵢ</text>
</g>
<!-- LeftA&#45;&gt;falseAndA -->
<g id="edge5" class="edge">
<title>LeftA&#45;&gt;falseAndA</title>
<path fill="none" stroke="#586e75" d="M31.08,-143.7C30.29,-135.98 30.06,-126.71 30.4,-118.11"/>
<polygon fill="#586e75" stroke="#586e75" points="33.9,-118.32 31.1,-108.1 26.92,-117.84 33.9,-118.32"/>
</g>
<!-- trueAndA -->
<g id="node5" class="node value">
<title>trueAndA</title>
<path fill="#ffffff" stroke="#586e75" d="M149.5,-108C149.5,-108 104.5,-108 104.5,-108 98.5,-108 92.5,-102 92.5,-96 92.5,-96 92.5,-84 92.5,-84 92.5,-78 98.5,-72 104.5,-72 104.5,-72 149.5,-72 149.5,-72 155.5,-72 161.5,-78 161.5,-84 161.5,-84 161.5,-96 161.5,-96 161.5,-102 155.5,-108 149.5,-108"/>
<text text-anchor="middle" x="127" y="-86.3" font-family="Inter,Arial" font-size="14.00" fill="#586e75">true ✕ aⱼ</text>
</g>
<!-- RightA&#45;&gt;trueAndA -->
<g id="edge7" class="edge">
<title>RightA&#45;&gt;trueAndA</title>
<path fill="none" stroke="#586e75" d="M121.08,-143.7C120.29,-135.98 120.06,-126.71 120.4,-118.11"/>
<polygon fill="#586e75" stroke="#586e75" points="123.9,-118.32 121.1,-108.1 116.92,-117.84 123.9,-118.32"/>
</g>
<!-- BooleanAndA -->
<g id="node4" class="node">
<title>BooleanAndA</title>
<path fill="#586e75" stroke="#586e75" d="M117,-36C117,-36 47,-36 47,-36 41,-36 35,-30 35,-24 35,-24 35,-12 35,-12 35,-6 41,0 47,0 47,0 117,0 117,0 123,0 129,-6 129,-12 129,-12 129,-24 129,-24 129,-30 123,-36 117,-36"/>
<text text-anchor="middle" x="82" y="-14.3" font-family="Inter,Arial" font-size="14.00" fill="#ffffff">Boolean ✕ A</text>
</g>
<!-- trueAndA&#45;&gt;RightA -->
<g id="edge8" class="edge">
<title>trueAndA&#45;&gt;RightA</title>
<path fill="none" stroke="#586e75" d="M132.9,-108.1C133.7,-115.79 133.94,-125.05 133.6,-133.67"/>
<polygon fill="#586e75" stroke="#586e75" points="130.11,-133.48 132.92,-143.7 137.09,-133.96 130.11,-133.48"/>
</g>
<!-- trueAndA&#45;&gt;BooleanAndA -->
<g id="edge3" class="edge">
<title>trueAndA&#45;&gt;BooleanAndA</title>
<path fill="none" stroke="#586e75" d="M110.34,-63.08C104.55,-54.08 98.21,-44.21 93,-36.1"/>
<polygon fill="#586e75" stroke="#586e75" points="107.52,-65.18 115.88,-71.7 113.41,-61.39 107.52,-65.18"/>
</g>
<!-- falseAndA&#45;&gt;LeftA -->
<g id="edge6" class="edge">
<title>falseAndA&#45;&gt;LeftA</title>
<path fill="none" stroke="#586e75" d="M42.9,-108.1C43.7,-115.79 43.94,-125.05 43.6,-133.67"/>
<polygon fill="#586e75" stroke="#586e75" points="40.11,-133.48 42.92,-143.7 47.09,-133.96 40.11,-133.48"/>
</g>
<!-- falseAndA&#45;&gt;BooleanAndA -->
<g id="edge4" class="edge">
<title>falseAndA&#45;&gt;BooleanAndA</title>
<path fill="none" stroke="#586e75" d="M53.66,-63.08C59.45,-54.08 65.79,-44.21 71,-36.1"/>
<polygon fill="#586e75" stroke="#586e75" points="50.59,-61.39 48.12,-71.7 56.48,-65.18 50.59,-61.39"/>
</g>
</g>
</svg>
