<?xml version="1.0" encoding="UTF-8" standalone="no"?>
<!DOCTYPE svg PUBLIC "-//W3C//DTD SVG 1.1//EN"
 "http://www.w3.org/Graphics/SVG/1.1/DTD/svg11.dtd">
<!-- Generated by graphviz version 2.43.0 (0)
 -->
<!-- Title: %3 Pages: 1 -->
<svg width="365pt" height="260pt"
 viewBox="0.00 0.00 365.00 260.00" xmlns="http://www.w3.org/2000/svg" xmlns:xlink="http://www.w3.org/1999/xlink">
<g id="graph0" class="graph" transform="scale(1 1) rotate(0) translate(4 256)">
<title>%3</title>
<!-- LeftAssoc -->
<g id="node1" class="node">
<title>LeftAssoc</title>
<path fill="#586e75" stroke="#586e75" d="M201.5,-252C201.5,-252 130.5,-252 130.5,-252 124.5,-252 118.5,-246 118.5,-240 118.5,-240 118.5,-228 118.5,-228 118.5,-222 124.5,-216 130.5,-216 130.5,-216 201.5,-216 201.5,-216 207.5,-216 213.5,-222 213.5,-228 213.5,-228 213.5,-240 213.5,-240 213.5,-246 207.5,-252 201.5,-252"/>
<text text-anchor="middle" x="166" y="-230.3" font-family="Inter,Arial" font-size="14.00" fill="#ffffff">A ⋁ (B ⋁ C)</text>
</g>
<!-- LeftA -->
<!-- LeftAssoc&#45;&gt;LeftA -->
<!-- RightLeftB -->
<!-- LeftAssoc&#45;&gt;RightLeftB -->
<!-- RightRightC -->
<!-- LeftAssoc&#45;&gt;RightRightC -->
<!-- LeftLeftA -->
<!-- LeftA&#45;&gt;LeftLeftA -->
<!-- LeftRightB -->
<!-- RightLeftB&#45;&gt;LeftRightB -->
<!-- RightC -->
<!-- RightRightC&#45;&gt;RightC -->
<!-- RightAssoc -->
<g id="node5" class="node">
<title>RightAssoc</title>
<path fill="#586e75" stroke="#586e75" d="M210.5,-36C210.5,-36 139.5,-36 139.5,-36 133.5,-36 127.5,-30 127.5,-24 127.5,-24 127.5,-12 127.5,-12 127.5,-6 133.5,0 139.5,0 139.5,0 210.5,0 210.5,0 216.5,0 222.5,-6 222.5,-12 222.5,-12 222.5,-24 222.5,-24 222.5,-30 216.5,-36 210.5,-36"/>
<text text-anchor="middle" x="175" y="-14.3" font-family="Inter,Arial" font-size="14.00" fill="#ffffff">(A ⋁ B) ⋁ C</text>
</g>
<!-- LeftLeftA&#45;&gt;LeftA -->
<!-- LeftLeftA&#45;&gt;RightAssoc -->
<!-- LeftRightB&#45;&gt;RightLeftB -->
<!-- LeftRightB&#45;&gt;RightAssoc -->
<!-- RightC&#45;&gt;RightRightC -->
<!-- RightC&#45;&gt;RightAssoc -->
</g>
</svg>
