<?xml version="1.0" encoding="UTF-8" standalone="no"?>
<!DOCTYPE svg PUBLIC "-//W3C//DTD SVG 1.1//EN"
 "http://www.w3.org/Graphics/SVG/1.1/DTD/svg11.dtd">
<!-- Generated by graphviz version 2.43.0 (0)
 -->
<!-- Title: %3 Pages: 1 -->
<svg width="161pt" height="260pt"
 viewBox="0.00 0.00 161.00 260.00" xmlns="http://www.w3.org/2000/svg" xmlns:xlink="http://www.w3.org/1999/xlink">
<g id="graph0" class="graph" transform="scale(1 1) rotate(0) translate(4 256)">
<title>%3</title>
<!-- AorB -->
<g id="node1" class="node">
<title>AorB</title>
<path fill="#586e75" stroke="#586e75" d="M94,-252C94,-252 59,-252 59,-252 53,-252 47,-246 47,-240 47,-240 47,-228 47,-228 47,-222 53,-216 59,-216 59,-216 94,-216 94,-216 100,-216 106,-222 106,-228 106,-228 106,-240 106,-240 106,-246 100,-252 94,-252"/>
<text text-anchor="middle" x="76.5" y="-230.3" font-family="Inter,Arial" font-size="14.00" fill="#ffffff">A Or B</text>
</g>
<!-- LeftA -->
<g id="node2" class="node">
<title>LeftA</title>
<path fill="#ffffff" stroke="#586e75" d="M53.5,-180C53.5,-180 15.5,-180 15.5,-180 9.5,-180 3.5,-174 3.5,-168 3.5,-168 3.5,-156 3.5,-156 3.5,-150 9.5,-144 15.5,-144 15.5,-144 53.5,-144 53.5,-144 59.5,-144 65.5,-150 65.5,-156 65.5,-156 65.5,-168 65.5,-168 65.5,-174 59.5,-180 53.5,-180"/>
<text text-anchor="middle" x="34.5" y="-158.3" font-family="Inter,Arial" font-size="14.00" fill="#586e75">Left(a)</text>
</g>
<!-- AorB&#45;&gt;LeftA -->
<g id="edge1" class="edge">
<title>AorB&#45;&gt;LeftA</title>
<path fill="none" stroke="#586e75" d="M66.12,-215.7C61.24,-207.56 55.31,-197.69 49.92,-188.7"/>
<polygon fill="#586e75" stroke="#586e75" points="52.91,-186.88 44.76,-180.1 46.91,-190.48 52.91,-186.88"/>
</g>
<!-- RightB -->
<g id="node3" class="node">
<title>RightB</title>
<path fill="#ffffff" stroke="#586e75" d="M141,-180C141,-180 96,-180 96,-180 90,-180 84,-174 84,-168 84,-168 84,-156 84,-156 84,-150 90,-144 96,-144 96,-144 141,-144 141,-144 147,-144 153,-150 153,-156 153,-156 153,-168 153,-168 153,-174 147,-180 141,-180"/>
<text text-anchor="middle" x="118.5" y="-158.3" font-family="Inter,Arial" font-size="14.00" fill="#586e75">Right(b)</text>
</g>
<!-- AorB&#45;&gt;RightB -->
<g id="edge2" class="edge">
<title>AorB&#45;&gt;RightB</title>
<path fill="none" stroke="#586e75" d="M86.88,-215.7C91.76,-207.56 97.69,-197.69 103.08,-188.7"/>
<polygon fill="#586e75" stroke="#586e75" points="106.09,-190.48 108.24,-180.1 100.09,-186.88 106.09,-190.48"/>
</g>
<!-- RightA -->
<g id="node6" class="node">
<title>RightA</title>
<path fill="#ffffff" stroke="#586e75" d="M57,-108C57,-108 12,-108 12,-108 6,-108 0,-102 0,-96 0,-96 0,-84 0,-84 0,-78 6,-72 12,-72 12,-72 57,-72 57,-72 63,-72 69,-78 69,-84 69,-84 69,-96 69,-96 69,-102 63,-108 57,-108"/>
<text text-anchor="middle" x="34.5" y="-86.3" font-family="Inter,Arial" font-size="14.00" fill="#586e75">Right(a)</text>
</g>
<!-- LeftA&#45;&gt;RightA -->
<!-- LeftB -->
<g id="node5" class="node">
<title>LeftB</title>
<path fill="#ffffff" stroke="#586e75" d="M137.5,-108C137.5,-108 99.5,-108 99.5,-108 93.5,-108 87.5,-102 87.5,-96 87.5,-96 87.5,-84 87.5,-84 87.5,-78 93.5,-72 99.5,-72 99.5,-72 137.5,-72 137.5,-72 143.5,-72 149.5,-78 149.5,-84 149.5,-84 149.5,-96 149.5,-96 149.5,-102 143.5,-108 137.5,-108"/>
<text text-anchor="middle" x="118.5" y="-86.3" font-family="Inter,Arial" font-size="14.00" fill="#586e75">Left(b)</text>
</g>
<!-- RightB&#45;&gt;LeftB -->
<!-- BorA -->
<g id="node4" class="node">
<title>BorA</title>
<path fill="#586e75" stroke="#586e75" d="M94,-36C94,-36 59,-36 59,-36 53,-36 47,-30 47,-24 47,-24 47,-12 47,-12 47,-6 53,0 59,0 59,0 94,0 94,0 100,0 106,-6 106,-12 106,-12 106,-24 106,-24 106,-30 100,-36 94,-36"/>
<text text-anchor="middle" x="76.5" y="-14.3" font-family="Inter,Arial" font-size="14.00" fill="#ffffff">B Or A</text>
</g>
<!-- LeftB&#45;&gt;RightB -->
<!-- LeftB&#45;&gt;BorA -->
<g id="edge3" class="edge">
<title>LeftB&#45;&gt;BorA</title>
<path fill="none" stroke="#586e75" d="M102.95,-63.08C97.55,-54.08 91.63,-44.21 86.76,-36.1"/>
<polygon fill="#586e75" stroke="#586e75" points="99.97,-64.92 108.12,-71.7 105.97,-61.32 99.97,-64.92"/>
</g>
<!-- RightA&#45;&gt;LeftA -->
<!-- RightA&#45;&gt;BorA -->
<g id="edge4" class="edge">
<title>RightA&#45;&gt;BorA</title>
<path fill="none" stroke="#586e75" d="M50.05,-63.08C55.45,-54.08 61.37,-44.21 66.24,-36.1"/>
<polygon fill="#586e75" stroke="#586e75" points="47.03,-61.32 44.88,-71.7 53.03,-64.92 47.03,-61.32"/>
</g>
</g>
</svg>
