<?xml version="1.0" encoding="UTF-8" standalone="no"?>
<!DOCTYPE svg PUBLIC "-//W3C//DTD SVG 1.1//EN"
 "http://www.w3.org/Graphics/SVG/1.1/DTD/svg11.dtd">
<!-- Generated by graphviz version 2.43.0 (0)
 -->
<!-- Title: %3 Pages: 1 -->
<svg width="142pt" height="260pt"
 viewBox="0.00 0.00 142.00 260.00" xmlns="http://www.w3.org/2000/svg" xmlns:xlink="http://www.w3.org/1999/xlink">
<g id="graph0" class="graph" transform="scale(1 1) rotate(0) translate(4 256)">
<title>%3</title>
<!-- AorNothing -->
<g id="node1" class="node">
<title>AorNothing</title>
<path fill="#586e75" stroke="#586e75" d="M107.5,-252C107.5,-252 30.5,-252 30.5,-252 24.5,-252 18.5,-246 18.5,-240 18.5,-240 18.5,-228 18.5,-228 18.5,-222 24.5,-216 30.5,-216 30.5,-216 107.5,-216 107.5,-216 113.5,-216 119.5,-222 119.5,-228 119.5,-228 119.5,-240 119.5,-240 119.5,-246 113.5,-252 107.5,-252"/>
<text text-anchor="middle" x="69" y="-230.3" font-family="Inter,Arial" font-size="14.00" fill="#ffffff">A Or Nothing</text>
</g>
<!-- LeftA -->
<g id="node2" class="node">
<title>LeftA</title>
<path fill="#ffffff" stroke="#586e75" d="M50,-180C50,-180 12,-180 12,-180 6,-180 0,-174 0,-168 0,-168 0,-156 0,-156 0,-150 6,-144 12,-144 12,-144 50,-144 50,-144 56,-144 62,-150 62,-156 62,-156 62,-168 62,-168 62,-174 56,-180 50,-180"/>
<text text-anchor="middle" x="31" y="-158.3" font-family="Inter,Arial" font-size="14.00" fill="#586e75">Left(a)</text>
</g>
<!-- AorNothing&#45;&gt;LeftA -->
<g id="edge1" class="edge">
<title>AorNothing&#45;&gt;LeftA</title>
<path fill="none" stroke="#586e75" d="M59.61,-215.7C55.24,-207.64 49.94,-197.89 45.1,-188.98"/>
<polygon fill="#586e75" stroke="#586e75" points="48.13,-187.22 40.29,-180.1 41.98,-190.56 48.13,-187.22"/>
</g>
<!-- na -->
<g id="node3" class="node">
<title>na</title>
<polygon fill="none" stroke="transparent" points="134,-180 80,-180 80,-144 134,-144 134,-180"/>
<text text-anchor="middle" x="107" y="-158.3" font-family="Inter,Arial" font-size="14.00" fill="#586e75">∅</text>
</g>
<!-- AorNothing&#45;&gt;na -->
<g id="edge2" class="edge">
<title>AorNothing&#45;&gt;na</title>
<path fill="none" stroke="#586e75" d="M78.39,-215.7C82.76,-207.64 88.06,-197.89 92.9,-188.98"/>
<polygon fill="#586e75" stroke="#586e75" points="96.02,-190.56 97.71,-180.1 89.87,-187.22 96.02,-190.56"/>
</g>
<!-- a -->
<!-- LeftA&#45;&gt;a -->
<!-- na2 -->
<!-- na&#45;&gt;na2 -->
<!-- na2&#45;&gt;na -->
<!-- A -->
<g id="node6" class="node">
<title>A</title>
<path fill="#586e75" stroke="#586e75" d="M84,-36C84,-36 54,-36 54,-36 48,-36 42,-30 42,-24 42,-24 42,-12 42,-12 42,-6 48,0 54,0 54,0 84,0 84,0 90,0 96,-6 96,-12 96,-12 96,-24 96,-24 96,-30 90,-36 84,-36"/>
<text text-anchor="middle" x="69" y="-14.3" font-family="Inter,Arial" font-size="14.00" fill="#ffffff">A</text>
</g>
<!-- na2&#45;&gt;A -->
<!-- a&#45;&gt;LeftA -->
<!-- a&#45;&gt;A -->
</g>
</svg>
