<?xml version="1.0" encoding="UTF-8" standalone="no"?>
<!DOCTYPE svg PUBLIC "-//W3C//DTD SVG 1.1//EN"
 "http://www.w3.org/Graphics/SVG/1.1/DTD/svg11.dtd">
<!-- Generated by graphviz version 2.43.0 (0)
 -->
<!-- Title: %3 Pages: 1 -->
<svg width="174pt" height="260pt"
 viewBox="0.00 0.00 173.50 260.00" xmlns="http://www.w3.org/2000/svg" xmlns:xlink="http://www.w3.org/1999/xlink">
<g id="graph0" class="graph" transform="scale(1 1) rotate(0) translate(4 256)">
<title>%3</title>
<!-- AorA -->
<g id="node1" class="node">
<title>AorA</title>
<path fill="#586e75" stroke="#586e75" d="M100,-252C100,-252 68,-252 68,-252 62,-252 56,-246 56,-240 56,-240 56,-228 56,-228 56,-222 62,-216 68,-216 68,-216 100,-216 100,-216 106,-216 112,-222 112,-228 112,-228 112,-240 112,-240 112,-246 106,-252 100,-252"/>
<text text-anchor="middle" x="84" y="-230.3" font-family="Inter,Arial" font-size="14.00" fill="#ffffff">A ⋁ A</text>
</g>
<!-- LeftA -->
<!-- AorA&#45;&gt;LeftA -->
<!-- RightA -->
<!-- AorA&#45;&gt;RightA -->
<!-- falseAndA -->
<!-- LeftA&#45;&gt;falseAndA -->
<!-- trueAndA -->
<!-- RightA&#45;&gt;trueAndA -->
<!-- BooleanAndA -->
<g id="node4" class="node">
<title>BooleanAndA</title>
<path fill="#586e75" stroke="#586e75" d="M121.5,-36C121.5,-36 46.5,-36 46.5,-36 40.5,-36 34.5,-30 34.5,-24 34.5,-24 34.5,-12 34.5,-12 34.5,-6 40.5,0 46.5,0 46.5,0 121.5,0 121.5,0 127.5,0 133.5,-6 133.5,-12 133.5,-12 133.5,-24 133.5,-24 133.5,-30 127.5,-36 121.5,-36"/>
<text text-anchor="middle" x="84" y="-14.3" font-family="Inter,Arial" font-size="14.00" fill="#ffffff">Boolean ⋀ A</text>
</g>
<!-- trueAndA&#45;&gt;RightA -->
<!-- trueAndA&#45;&gt;BooleanAndA -->
<!-- falseAndA&#45;&gt;LeftA -->
<!-- falseAndA&#45;&gt;BooleanAndA -->
</g>
</svg>
