<?xml version="1.0" encoding="UTF-8" standalone="no"?>
<!DOCTYPE svg PUBLIC "-//W3C//DTD SVG 1.1//EN"
 "http://www.w3.org/Graphics/SVG/1.1/DTD/svg11.dtd">
<!-- Generated by graphviz version 2.43.0 (0)
 -->
<!-- Title: %3 Pages: 1 -->
<svg width="146pt" height="260pt"
 viewBox="0.00 0.00 145.50 260.00" xmlns="http://www.w3.org/2000/svg" xmlns:xlink="http://www.w3.org/1999/xlink">
<g id="graph0" class="graph" transform="scale(1 1) rotate(0) translate(4 256)">
<title>%3</title>
<!-- AorNothing -->
<g id="node1" class="node">
<title>AorNothing</title>
<path fill="#586e75" stroke="#586e75" d="M108.5,-252C108.5,-252 34.5,-252 34.5,-252 28.5,-252 22.5,-246 22.5,-240 22.5,-240 22.5,-228 22.5,-228 22.5,-222 28.5,-216 34.5,-216 34.5,-216 108.5,-216 108.5,-216 114.5,-216 120.5,-222 120.5,-228 120.5,-228 120.5,-240 120.5,-240 120.5,-246 114.5,-252 108.5,-252"/>
<text text-anchor="middle" x="71.5" y="-230.3" font-family="Inter,Arial" font-size="14.00" fill="#ffffff">A ⋁ Nothing</text>
</g>
<!-- LeftA -->
<g id="node2" class="node value">
<title>LeftA</title>
<path fill="#ffffff" stroke="#586e75" d="M53,-180C53,-180 12,-180 12,-180 6,-180 0,-174 0,-168 0,-168 0,-156 0,-156 0,-150 6,-144 12,-144 12,-144 53,-144 53,-144 59,-144 65,-150 65,-156 65,-156 65,-168 65,-168 65,-174 59,-180 53,-180"/>
<text text-anchor="middle" x="32.5" y="-158.3" font-family="Inter,Arial" font-size="14.00" fill="#586e75">Left(aᵢ)</text>
</g>
<!-- AorNothing&#45;&gt;LeftA -->
<g id="edge1" class="edge">
<title>AorNothing&#45;&gt;LeftA</title>
<path fill="none" stroke="#586e75" d="M61.86,-215.7C57.37,-207.64 51.94,-197.89 46.98,-188.98"/>
<polygon fill="#586e75" stroke="#586e75" points="49.95,-187.14 42.03,-180.1 43.84,-190.54 49.95,-187.14"/>
</g>
<!-- na -->
<g id="node3" class="node na,value">
<title>na</title>
<polygon fill="none" stroke="transparent" points="137.5,-180 83.5,-180 83.5,-144 137.5,-144 137.5,-180"/>
<text text-anchor="middle" x="110.5" y="-158.3" font-family="Inter,Arial" font-size="14.00" fill="#586e75">∅</text>
</g>
<!-- AorNothing&#45;&gt;na -->
<g id="edge2" class="edge">
<title>AorNothing&#45;&gt;na</title>
<path fill="none" stroke="#586e75" d="M81.14,-215.7C85.63,-207.64 91.06,-197.89 96.02,-188.98"/>
<polygon fill="#586e75" stroke="#586e75" points="99.16,-190.54 100.97,-180.1 93.05,-187.14 99.16,-190.54"/>
</g>
<!-- a -->
<g id="node5" class="node value">
<title>a</title>
<path fill="#ffffff" stroke="#586e75" d="M47.5,-108C47.5,-108 17.5,-108 17.5,-108 11.5,-108 5.5,-102 5.5,-96 5.5,-96 5.5,-84 5.5,-84 5.5,-78 11.5,-72 17.5,-72 17.5,-72 47.5,-72 47.5,-72 53.5,-72 59.5,-78 59.5,-84 59.5,-84 59.5,-96 59.5,-96 59.5,-102 53.5,-108 47.5,-108"/>
<text text-anchor="middle" x="32.5" y="-86.3" font-family="Inter,Arial" font-size="14.00" fill="#586e75">aᵢ</text>
</g>
<!-- LeftA&#45;&gt;a -->
<!-- na2 -->
<!-- na&#45;&gt;na2 -->
<!-- na2&#45;&gt;na -->
<!-- A -->
<g id="node6" class="node">
<title>A</title>
<path fill="#586e75" stroke="#586e75" d="M86.5,-36C86.5,-36 56.5,-36 56.5,-36 50.5,-36 44.5,-30 44.5,-24 44.5,-24 44.5,-12 44.5,-12 44.5,-6 50.5,0 56.5,0 56.5,0 86.5,0 86.5,0 92.5,0 98.5,-6 98.5,-12 98.5,-12 98.5,-24 98.5,-24 98.5,-30 92.5,-36 86.5,-36"/>
<text text-anchor="middle" x="71.5" y="-14.3" font-family="Inter,Arial" font-size="14.00" fill="#ffffff">A</text>
</g>
<!-- na2&#45;&gt;A -->
<!-- a&#45;&gt;LeftA -->
<!-- a&#45;&gt;A -->
<g id="edge4" class="edge">
<title>a&#45;&gt;A</title>
<path fill="none" stroke="#586e75" d="M47.1,-62.8C52.07,-53.87 57.5,-44.13 61.97,-36.1"/>
<polygon fill="#586e75" stroke="#586e75" points="43.95,-61.26 42.14,-71.7 50.07,-64.66 43.95,-61.26"/>
</g>
</g>
</svg>
