<?xml version="1.0" encoding="UTF-8" standalone="no"?>
<!DOCTYPE svg PUBLIC "-//W3C//DTD SVG 1.1//EN"
 "http://www.w3.org/Graphics/SVG/1.1/DTD/svg11.dtd">
<!-- Generated by graphviz version 2.43.0 (0)
 -->
<!-- Title: %3 Pages: 1 -->
<svg width="161pt" height="260pt"
 viewBox="0.00 0.00 161.00 260.00" xmlns="http://www.w3.org/2000/svg" xmlns:xlink="http://www.w3.org/1999/xlink">
<g id="graph0" class="graph" transform="scale(1 1) rotate(0) translate(4 256)">
<title>%3</title>
<!-- AorB -->
<g id="node1" class="node">
<title>AorB</title>
<path fill="#586e75" stroke="#586e75" d="M92,-252C92,-252 61,-252 61,-252 55,-252 49,-246 49,-240 49,-240 49,-228 49,-228 49,-222 55,-216 61,-216 61,-216 92,-216 92,-216 98,-216 104,-222 104,-228 104,-228 104,-240 104,-240 104,-246 98,-252 92,-252"/>
<text text-anchor="middle" x="76.5" y="-230.3" font-family="Inter,Arial" font-size="14.00" fill="#ffffff">A ⋁ B</text>
</g>
<!-- LeftA -->
<g id="node2" class="node">
<title>LeftA</title>
<path fill="#ffffff" stroke="#586e75" d="M53.5,-180C53.5,-180 15.5,-180 15.5,-180 9.5,-180 3.5,-174 3.5,-168 3.5,-168 3.5,-156 3.5,-156 3.5,-150 9.5,-144 15.5,-144 15.5,-144 53.5,-144 53.5,-144 59.5,-144 65.5,-150 65.5,-156 65.5,-156 65.5,-168 65.5,-168 65.5,-174 59.5,-180 53.5,-180"/>
<text text-anchor="middle" x="34.5" y="-158.3" font-family="Inter,Arial" font-size="14.00" fill="#586e75">Left(a)</text>
</g>
<!-- AorB&#45;&gt;LeftA -->
<g id="edge1" class="edge">
<title>AorB&#45;&gt;LeftA</title>
<path fill="none" stroke="#586e75" d="M66.12,-215.7C61.24,-207.56 55.31,-197.69 49.92,-188.7"/>
<polygon fill="#586e75" stroke="#586e75" points="52.91,-186.88 44.76,-180.1 46.91,-190.48 52.91,-186.88"/>
</g>
<!-- RightB -->
<g id="node3" class="node">
<title>RightB</title>
<path fill="#ffffff" stroke="#586e75" d="M141,-180C141,-180 96,-180 96,-180 90,-180 84,-174 84,-168 84,-168 84,-156 84,-156 84,-150 90,-144 96,-144 96,-144 141,-144 141,-144 147,-144 153,-150 153,-156 153,-156 153,-168 153,-168 153,-174 147,-180 141,-180"/>
<text text-anchor="middle" x="118.5" y="-158.3" font-family="Inter,Arial" font-size="14.00" fill="#586e75">Right(b)</text>
</g>
<!-- AorB&#45;&gt;RightB -->
<g id="edge2" class="edge">
<title>AorB&#45;&gt;RightB</title>
<path fill="none" stroke="#586e75" d="M86.88,-215.7C91.76,-207.56 97.69,-197.69 103.08,-188.7"/>
<polygon fill="#586e75" stroke="#586e75" points="106.09,-190.48 108.24,-180.1 100.09,-186.88 106.09,-190.48"/>
</g>
<!-- RightA -->
<g id="node6" class="node">
<title>RightA</title>
<path fill="#ffffff" stroke="#586e75" d="M57,-108C57,-108 12,-108 12,-108 6,-108 0,-102 0,-96 0,-96 0,-84 0,-84 0,-78 6,-72 12,-72 12,-72 57,-72 57,-72 63,-72 69,-78 69,-84 69,-84 69,-96 69,-96 69,-102 63,-108 57,-108"/>
<text text-anchor="middle" x="34.5" y="-86.3" font-family="Inter,Arial" font-size="14.00" fill="#586e75">Right(a)</text>
</g>
<!-- LeftA&#45;&gt;RightA -->
<g id="edge5" class="edge">
<title>LeftA&#45;&gt;RightA</title>
<path fill="none" stroke="#586e75" d="M28.58,-143.7C27.79,-135.98 27.56,-126.71 27.9,-118.11"/>
<polygon fill="#586e75" stroke="#586e75" points="31.4,-118.32 28.6,-108.1 24.42,-117.84 31.4,-118.32"/>
</g>
<!-- LeftB -->
<g id="node5" class="node">
<title>LeftB</title>
<path fill="#ffffff" stroke="#586e75" d="M137.5,-108C137.5,-108 99.5,-108 99.5,-108 93.5,-108 87.5,-102 87.5,-96 87.5,-96 87.5,-84 87.5,-84 87.5,-78 93.5,-72 99.5,-72 99.5,-72 137.5,-72 137.5,-72 143.5,-72 149.5,-78 149.5,-84 149.5,-84 149.5,-96 149.5,-96 149.5,-102 143.5,-108 137.5,-108"/>
<text text-anchor="middle" x="118.5" y="-86.3" font-family="Inter,Arial" font-size="14.00" fill="#586e75">Left(b)</text>
</g>
<!-- RightB&#45;&gt;LeftB -->
<g id="edge8" class="edge">
<title>RightB&#45;&gt;LeftB</title>
<path fill="none" stroke="#586e75" d="M112.58,-143.7C111.79,-135.98 111.56,-126.71 111.9,-118.11"/>
<polygon fill="#586e75" stroke="#586e75" points="115.4,-118.32 112.6,-108.1 108.42,-117.84 115.4,-118.32"/>
</g>
<!-- BorA -->
<g id="node4" class="node">
<title>BorA</title>
<path fill="#586e75" stroke="#586e75" d="M92,-36C92,-36 61,-36 61,-36 55,-36 49,-30 49,-24 49,-24 49,-12 49,-12 49,-6 55,0 61,0 61,0 92,0 92,0 98,0 104,-6 104,-12 104,-12 104,-24 104,-24 104,-30 98,-36 92,-36"/>
<text text-anchor="middle" x="76.5" y="-14.3" font-family="Inter,Arial" font-size="14.00" fill="#ffffff">B ⋁ A</text>
</g>
<!-- LeftB&#45;&gt;RightB -->
<g id="edge7" class="edge">
<title>LeftB&#45;&gt;RightB</title>
<path fill="none" stroke="#586e75" d="M124.4,-108.1C125.2,-115.79 125.44,-125.05 125.1,-133.67"/>
<polygon fill="#586e75" stroke="#586e75" points="121.61,-133.48 124.42,-143.7 128.59,-133.96 121.61,-133.48"/>
</g>
<!-- LeftB&#45;&gt;BorA -->
<g id="edge3" class="edge">
<title>LeftB&#45;&gt;BorA</title>
<path fill="none" stroke="#586e75" d="M102.95,-63.08C97.55,-54.08 91.63,-44.21 86.76,-36.1"/>
<polygon fill="#586e75" stroke="#586e75" points="99.97,-64.92 108.12,-71.7 105.97,-61.32 99.97,-64.92"/>
</g>
<!-- RightA&#45;&gt;LeftA -->
<g id="edge6" class="edge">
<title>RightA&#45;&gt;LeftA</title>
<path fill="none" stroke="#586e75" d="M40.4,-108.1C41.2,-115.79 41.44,-125.05 41.1,-133.67"/>
<polygon fill="#586e75" stroke="#586e75" points="37.61,-133.48 40.42,-143.7 44.59,-133.96 37.61,-133.48"/>
</g>
<!-- RightA&#45;&gt;BorA -->
<g id="edge4" class="edge">
<title>RightA&#45;&gt;BorA</title>
<path fill="none" stroke="#586e75" d="M50.05,-63.08C55.45,-54.08 61.37,-44.21 66.24,-36.1"/>
<polygon fill="#586e75" stroke="#586e75" points="47.03,-61.32 44.88,-71.7 53.03,-64.92 47.03,-61.32"/>
</g>
</g>
</svg>
