<?xml version="1.0" encoding="UTF-8" standalone="no"?>
<!DOCTYPE svg PUBLIC "-//W3C//DTD SVG 1.1//EN"
 "http://www.w3.org/Graphics/SVG/1.1/DTD/svg11.dtd">
<!-- Generated by graphviz version 2.43.0 (0)
 -->
<!-- Title: %3 Pages: 1 -->
<svg width="156pt" height="260pt"
 viewBox="0.00 0.00 156.00 260.00" xmlns="http://www.w3.org/2000/svg" xmlns:xlink="http://www.w3.org/1999/xlink">
<g id="graph0" class="graph" transform="scale(1 1) rotate(0) translate(4 256)">
<title>%3</title>
<!-- AorB -->
<g id="node1" class="node">
<title>AorB</title>
<path fill="#586e75" stroke="#586e75" d="M88.5,-252C88.5,-252 58.5,-252 58.5,-252 52.5,-252 46.5,-246 46.5,-240 46.5,-240 46.5,-228 46.5,-228 46.5,-222 52.5,-216 58.5,-216 58.5,-216 88.5,-216 88.5,-216 94.5,-216 100.5,-222 100.5,-228 100.5,-228 100.5,-240 100.5,-240 100.5,-246 94.5,-252 88.5,-252"/>
<text text-anchor="middle" x="73.5" y="-230.3" font-family="Inter,Arial" font-size="14.00" fill="#ffffff">A + B</text>
</g>
<!-- LeftA -->
<!-- AorB&#45;&gt;LeftA -->
<!-- RightB -->
<!-- AorB&#45;&gt;RightB -->
<!-- RightA -->
<!-- LeftA&#45;&gt;RightA -->
<!-- LeftB -->
<!-- RightB&#45;&gt;LeftB -->
<!-- BorA -->
<g id="node4" class="node">
<title>BorA</title>
<path fill="#586e75" stroke="#586e75" d="M88.5,-36C88.5,-36 58.5,-36 58.5,-36 52.5,-36 46.5,-30 46.5,-24 46.5,-24 46.5,-12 46.5,-12 46.5,-6 52.5,0 58.5,0 58.5,0 88.5,0 88.5,0 94.5,0 100.5,-6 100.5,-12 100.5,-12 100.5,-24 100.5,-24 100.5,-30 94.5,-36 88.5,-36"/>
<text text-anchor="middle" x="73.5" y="-14.3" font-family="Inter,Arial" font-size="14.00" fill="#ffffff">B + A</text>
</g>
<!-- LeftB&#45;&gt;RightB -->
<!-- LeftB&#45;&gt;BorA -->
<!-- RightA&#45;&gt;LeftA -->
<!-- RightA&#45;&gt;BorA -->
</g>
</svg>
