<?xml version="1.0" encoding="UTF-8" standalone="no"?>
<!DOCTYPE svg PUBLIC "-//W3C//DTD SVG 1.1//EN"
 "http://www.w3.org/Graphics/SVG/1.1/DTD/svg11.dtd">
<!-- Generated by graphviz version 2.43.0 (0)
 -->
<!-- Title: %3 Pages: 1 -->
<svg width="224pt" height="260pt"
 viewBox="0.00 0.00 224.00 260.00" xmlns="http://www.w3.org/2000/svg" xmlns:xlink="http://www.w3.org/1999/xlink">
<g id="graph0" class="graph" transform="scale(1 1) rotate(0) translate(4 256)">
<title>%3</title>
<!-- AorA -->
<g id="node1" class="node">
<title>AorA</title>
<path fill="#586e75" stroke="#586e75" d="M126,-252C126,-252 91,-252 91,-252 85,-252 79,-246 79,-240 79,-240 79,-228 79,-228 79,-222 85,-216 91,-216 91,-216 126,-216 126,-216 132,-216 138,-222 138,-228 138,-228 138,-240 138,-240 138,-246 132,-252 126,-252"/>
<text text-anchor="middle" x="108.5" y="-230.3" font-family="Inter,Arial" font-size="14.00" fill="#ffffff">A Or A</text>
</g>
<!-- LeftA -->
<g id="node2" class="node">
<title>LeftA</title>
<path fill="#ffffff" stroke="#586e75" d="M69.5,-180C69.5,-180 31.5,-180 31.5,-180 25.5,-180 19.5,-174 19.5,-168 19.5,-168 19.5,-156 19.5,-156 19.5,-150 25.5,-144 31.5,-144 31.5,-144 69.5,-144 69.5,-144 75.5,-144 81.5,-150 81.5,-156 81.5,-156 81.5,-168 81.5,-168 81.5,-174 75.5,-180 69.5,-180"/>
<text text-anchor="middle" x="50.5" y="-158.3" font-family="Inter,Arial" font-size="14.00" fill="#586e75">Left(a)</text>
</g>
<!-- AorA&#45;&gt;LeftA -->
<g id="edge1" class="edge">
<title>AorA&#45;&gt;LeftA</title>
<path fill="none" stroke="#586e75" d="M94.16,-215.7C87.21,-207.3 78.73,-197.07 71.1,-187.86"/>
<polygon fill="#586e75" stroke="#586e75" points="73.75,-185.57 64.67,-180.1 68.36,-190.04 73.75,-185.57"/>
</g>
<!-- RightA -->
<g id="node3" class="node">
<title>RightA</title>
<path fill="#ffffff" stroke="#586e75" d="M190,-180C190,-180 145,-180 145,-180 139,-180 133,-174 133,-168 133,-168 133,-156 133,-156 133,-150 139,-144 145,-144 145,-144 190,-144 190,-144 196,-144 202,-150 202,-156 202,-156 202,-168 202,-168 202,-174 196,-180 190,-180"/>
<text text-anchor="middle" x="167.5" y="-158.3" font-family="Inter,Arial" font-size="14.00" fill="#586e75">Right(a)</text>
</g>
<!-- AorA&#45;&gt;RightA -->
<g id="edge2" class="edge">
<title>AorA&#45;&gt;RightA</title>
<path fill="none" stroke="#586e75" d="M123.08,-215.7C130.16,-207.3 138.78,-197.07 146.55,-187.86"/>
<polygon fill="#586e75" stroke="#586e75" points="149.31,-190.01 153.08,-180.1 143.96,-185.49 149.31,-190.01"/>
</g>
<!-- falseAndA -->
<g id="node6" class="node">
<title>falseAndA</title>
<path fill="#ffffff" stroke="#586e75" d="M89,-108C89,-108 12,-108 12,-108 6,-108 0,-102 0,-96 0,-96 0,-84 0,-84 0,-78 6,-72 12,-72 12,-72 89,-72 89,-72 95,-72 101,-78 101,-84 101,-84 101,-96 101,-96 101,-102 95,-108 89,-108"/>
<text text-anchor="middle" x="50.5" y="-86.3" font-family="Inter,Arial" font-size="14.00" fill="#586e75">And(false, a)</text>
</g>
<!-- LeftA&#45;&gt;falseAndA -->
<!-- trueAndA -->
<!-- RightA&#45;&gt;trueAndA -->
<!-- BooleanAndA -->
<g id="node4" class="node">
<title>BooleanAndA</title>
<path fill="#586e75" stroke="#586e75" d="M153.5,-36C153.5,-36 63.5,-36 63.5,-36 57.5,-36 51.5,-30 51.5,-24 51.5,-24 51.5,-12 51.5,-12 51.5,-6 57.5,0 63.5,0 63.5,0 153.5,0 153.5,0 159.5,0 165.5,-6 165.5,-12 165.5,-12 165.5,-24 165.5,-24 165.5,-30 159.5,-36 153.5,-36"/>
<text text-anchor="middle" x="108.5" y="-14.3" font-family="Inter,Arial" font-size="14.00" fill="#ffffff">Boolean And A</text>
</g>
<!-- trueAndA&#45;&gt;RightA -->
<!-- trueAndA&#45;&gt;BooleanAndA -->
<!-- falseAndA&#45;&gt;LeftA -->
<!-- falseAndA&#45;&gt;BooleanAndA -->
<g id="edge4" class="edge">
<title>falseAndA&#45;&gt;BooleanAndA</title>
<path fill="none" stroke="#586e75" d="M71.28,-63.92C78.92,-54.69 87.4,-44.47 94.33,-36.1"/>
<polygon fill="#586e75" stroke="#586e75" points="68.52,-61.76 64.84,-71.7 73.91,-66.23 68.52,-61.76"/>
</g>
</g>
</svg>
