<?xml version="1.0" encoding="UTF-8" standalone="no"?>
<!DOCTYPE svg PUBLIC "-//W3C//DTD SVG 1.1//EN"
 "http://www.w3.org/Graphics/SVG/1.1/DTD/svg11.dtd">
<!-- Generated by graphviz version 2.43.0 (0)
 -->
<!-- Title: %3 Pages: 1 -->
<svg width="146pt" height="260pt"
 viewBox="0.00 0.00 145.50 260.00" xmlns="http://www.w3.org/2000/svg" xmlns:xlink="http://www.w3.org/1999/xlink">
<g id="graph0" class="graph" transform="scale(1 1) rotate(0) translate(4 256)">
<title>%3</title>
<!-- AorNothing -->
<g id="node1" class="node">
<title>AorNothing</title>
<path fill="#586e75" stroke="#586e75" d="M108.5,-252C108.5,-252 34.5,-252 34.5,-252 28.5,-252 22.5,-246 22.5,-240 22.5,-240 22.5,-228 22.5,-228 22.5,-222 28.5,-216 34.5,-216 34.5,-216 108.5,-216 108.5,-216 114.5,-216 120.5,-222 120.5,-228 120.5,-228 120.5,-240 120.5,-240 120.5,-246 114.5,-252 108.5,-252"/>
<text text-anchor="middle" x="71.5" y="-230.3" font-family="Inter,Arial" font-size="14.00" fill="#ffffff">A ⋁ Nothing</text>
</g>
<!-- LeftA -->
<g id="node2" class="node">
<title>LeftA</title>
<path fill="#ffffff" stroke="#586e75" d="M53,-180C53,-180 12,-180 12,-180 6,-180 0,-174 0,-168 0,-168 0,-156 0,-156 0,-150 6,-144 12,-144 12,-144 53,-144 53,-144 59,-144 65,-150 65,-156 65,-156 65,-168 65,-168 65,-174 59,-180 53,-180"/>
<text text-anchor="middle" x="32.5" y="-158.3" font-family="Inter,Arial" font-size="14.00" fill="#586e75">Left(aᵢ)</text>
</g>
<!-- AorNothing&#45;&gt;LeftA -->
<g id="edge1" class="edge">
<title>AorNothing&#45;&gt;LeftA</title>
<path fill="none" stroke="#586e75" d="M61.86,-215.7C57.37,-207.64 51.94,-197.89 46.98,-188.98"/>
<polygon fill="#586e75" stroke="#586e75" points="49.95,-187.14 42.03,-180.1 43.84,-190.54 49.95,-187.14"/>
</g>
<!-- na -->
<!-- AorNothing&#45;&gt;na -->
<!-- a -->
<!-- LeftA&#45;&gt;a -->
<!-- na2 -->
<!-- na&#45;&gt;na2 -->
<!-- na2&#45;&gt;na -->
<!-- A -->
<g id="node6" class="node">
<title>A</title>
<path fill="#586e75" stroke="#586e75" d="M86.5,-36C86.5,-36 56.5,-36 56.5,-36 50.5,-36 44.5,-30 44.5,-24 44.5,-24 44.5,-12 44.5,-12 44.5,-6 50.5,0 56.5,0 56.5,0 86.5,0 86.5,0 92.5,0 98.5,-6 98.5,-12 98.5,-12 98.5,-24 98.5,-24 98.5,-30 92.5,-36 86.5,-36"/>
<text text-anchor="middle" x="71.5" y="-14.3" font-family="Inter,Arial" font-size="14.00" fill="#ffffff">A</text>
</g>
<!-- na2&#45;&gt;A -->
<!-- a&#45;&gt;LeftA -->
<!-- a&#45;&gt;A -->
</g>
</svg>
