<?xml version="1.0" encoding="UTF-8" standalone="no"?>
<!DOCTYPE svg PUBLIC "-//W3C//DTD SVG 1.1//EN"
 "http://www.w3.org/Graphics/SVG/1.1/DTD/svg11.dtd">
<!-- Generated by graphviz version 2.43.0 (0)
 -->
<!-- Title: %3 Pages: 1 -->
<svg width="332pt" height="260pt"
 viewBox="0.00 0.00 332.00 260.00" xmlns="http://www.w3.org/2000/svg" xmlns:xlink="http://www.w3.org/1999/xlink">
<g id="graph0" class="graph" transform="scale(1 1) rotate(0) translate(4 256)">
<title>%3</title>
<!-- LeftAssoc -->
<g id="node1" class="node">
<title>LeftAssoc</title>
<path fill="#586e75" stroke="#586e75" d="M177.5,-252C177.5,-252 117.5,-252 117.5,-252 111.5,-252 105.5,-246 105.5,-240 105.5,-240 105.5,-228 105.5,-228 105.5,-222 111.5,-216 117.5,-216 117.5,-216 177.5,-216 177.5,-216 183.5,-216 189.5,-222 189.5,-228 189.5,-228 189.5,-240 189.5,-240 189.5,-246 183.5,-252 177.5,-252"/>
<text text-anchor="middle" x="147.5" y="-230.3" font-family="Inter,Arial" font-size="14.00" fill="#ffffff">A + (B + C)</text>
</g>
<!-- LeftA -->
<g id="node2" class="node value">
<title>LeftA</title>
<path fill="#ffffff" stroke="#586e75" d="M61.5,-180C61.5,-180 27.5,-180 27.5,-180 21.5,-180 15.5,-174 15.5,-168 15.5,-168 15.5,-156 15.5,-156 15.5,-150 21.5,-144 27.5,-144 27.5,-144 61.5,-144 61.5,-144 67.5,-144 73.5,-150 73.5,-156 73.5,-156 73.5,-168 73.5,-168 73.5,-174 67.5,-180 61.5,-180"/>
<text text-anchor="middle" x="44.5" y="-158.3" font-family="Inter,Arial" font-size="14.00" fill="#586e75">Left(aᵢ)</text>
</g>
<!-- LeftAssoc&#45;&gt;LeftA -->
<g id="edge1" class="edge">
<title>LeftAssoc&#45;&gt;LeftA</title>
<path fill="none" stroke="#586e75" d="M122.3,-215.88C109.09,-206.89 92.71,-195.76 78.39,-186.03"/>
<polygon fill="#586e75" stroke="#586e75" points="80.03,-182.92 69.79,-180.19 76.1,-188.71 80.03,-182.92"/>
</g>
<!-- RightLeftB -->
<g id="node3" class="node value">
<title>RightLeftB</title>
<path fill="#ffffff" stroke="#586e75" d="M184.5,-180C184.5,-180 110.5,-180 110.5,-180 104.5,-180 98.5,-174 98.5,-168 98.5,-168 98.5,-156 98.5,-156 98.5,-150 104.5,-144 110.5,-144 110.5,-144 184.5,-144 184.5,-144 190.5,-144 196.5,-150 196.5,-156 196.5,-156 196.5,-168 196.5,-168 196.5,-174 190.5,-180 184.5,-180"/>
<text text-anchor="middle" x="147.5" y="-158.3" font-family="Inter,Arial" font-size="14.00" fill="#586e75">Right(Left(bⱼ))</text>
</g>
<!-- LeftAssoc&#45;&gt;RightLeftB -->
<g id="edge2" class="edge">
<title>LeftAssoc&#45;&gt;RightLeftB</title>
<path fill="none" stroke="#586e75" d="M147.5,-215.7C147.5,-207.98 147.5,-198.71 147.5,-190.11"/>
<polygon fill="#586e75" stroke="#586e75" points="151,-190.1 147.5,-180.1 144,-190.1 151,-190.1"/>
</g>
<!-- RightRightC -->
<g id="node4" class="node value">
<title>RightRightC</title>
<path fill="#ffffff" stroke="#586e75" d="M312,-180C312,-180 227,-180 227,-180 221,-180 215,-174 215,-168 215,-168 215,-156 215,-156 215,-150 221,-144 227,-144 227,-144 312,-144 312,-144 318,-144 324,-150 324,-156 324,-156 324,-168 324,-168 324,-174 318,-180 312,-180"/>
<text text-anchor="middle" x="269.5" y="-158.3" font-family="Inter,Arial" font-size="14.00" fill="#586e75">Right(Right(cₖ))</text>
</g>
<!-- LeftAssoc&#45;&gt;RightRightC -->
<g id="edge3" class="edge">
<title>LeftAssoc&#45;&gt;RightRightC</title>
<path fill="none" stroke="#586e75" d="M177.34,-215.88C193.44,-206.64 213.5,-195.13 230.79,-185.21"/>
<polygon fill="#586e75" stroke="#586e75" points="232.61,-188.2 239.54,-180.19 229.13,-182.13 232.61,-188.2"/>
</g>
<!-- LeftLeftA -->
<!-- LeftA&#45;&gt;LeftLeftA -->
<!-- LeftRightB -->
<!-- RightLeftB&#45;&gt;LeftRightB -->
<!-- RightC -->
<!-- RightRightC&#45;&gt;RightC -->
<!-- RightAssoc -->
<g id="node5" class="node">
<title>RightAssoc</title>
<path fill="#586e75" stroke="#586e75" d="M185.5,-36C185.5,-36 125.5,-36 125.5,-36 119.5,-36 113.5,-30 113.5,-24 113.5,-24 113.5,-12 113.5,-12 113.5,-6 119.5,0 125.5,0 125.5,0 185.5,0 185.5,0 191.5,0 197.5,-6 197.5,-12 197.5,-12 197.5,-24 197.5,-24 197.5,-30 191.5,-36 185.5,-36"/>
<text text-anchor="middle" x="155.5" y="-14.3" font-family="Inter,Arial" font-size="14.00" fill="#ffffff">(A + B) + C</text>
</g>
<!-- LeftLeftA&#45;&gt;LeftA -->
<!-- LeftLeftA&#45;&gt;RightAssoc -->
<!-- LeftRightB&#45;&gt;RightLeftB -->
<!-- LeftRightB&#45;&gt;RightAssoc -->
<!-- RightC&#45;&gt;RightRightC -->
<!-- RightC&#45;&gt;RightAssoc -->
</g>
</svg>
