<?xml version="1.0" encoding="UTF-8" standalone="no"?>
<!DOCTYPE svg PUBLIC "-//W3C//DTD SVG 1.1//EN"
 "http://www.w3.org/Graphics/SVG/1.1/DTD/svg11.dtd">
<!-- Generated by graphviz version 2.43.0 (0)
 -->
<!-- Title: %3 Pages: 1 -->
<svg width="156pt" height="260pt"
 viewBox="0.00 0.00 156.00 260.00" xmlns="http://www.w3.org/2000/svg" xmlns:xlink="http://www.w3.org/1999/xlink">
<g id="graph0" class="graph" transform="scale(1 1) rotate(0) translate(4 256)">
<title>%3</title>
<!-- AorB -->
<g id="node1" class="node">
<title>AorB</title>
<path fill="#586e75" stroke="#586e75" d="M88.5,-252C88.5,-252 58.5,-252 58.5,-252 52.5,-252 46.5,-246 46.5,-240 46.5,-240 46.5,-228 46.5,-228 46.5,-222 52.5,-216 58.5,-216 58.5,-216 88.5,-216 88.5,-216 94.5,-216 100.5,-222 100.5,-228 100.5,-228 100.5,-240 100.5,-240 100.5,-246 94.5,-252 88.5,-252"/>
<text text-anchor="middle" x="73.5" y="-230.3" font-family="Inter,Arial" font-size="14.00" fill="#ffffff">A + B</text>
</g>
<!-- LeftA -->
<g id="node2" class="node value">
<title>LeftA</title>
<path fill="#ffffff" stroke="#586e75" d="M50.5,-180C50.5,-180 16.5,-180 16.5,-180 10.5,-180 4.5,-174 4.5,-168 4.5,-168 4.5,-156 4.5,-156 4.5,-150 10.5,-144 16.5,-144 16.5,-144 50.5,-144 50.5,-144 56.5,-144 62.5,-150 62.5,-156 62.5,-156 62.5,-168 62.5,-168 62.5,-174 56.5,-180 50.5,-180"/>
<text text-anchor="middle" x="33.5" y="-158.3" font-family="Inter,Arial" font-size="14.00" fill="#586e75">Left(aᵢ)</text>
</g>
<!-- AorB&#45;&gt;LeftA -->
<g id="edge1" class="edge">
<title>AorB&#45;&gt;LeftA</title>
<path fill="none" stroke="#586e75" d="M63.61,-215.7C59.01,-207.64 53.44,-197.89 48.35,-188.98"/>
<polygon fill="#586e75" stroke="#586e75" points="51.27,-187.05 43.27,-180.1 45.2,-190.52 51.27,-187.05"/>
</g>
<!-- RightB -->
<g id="node3" class="node value">
<title>RightB</title>
<path fill="#ffffff" stroke="#586e75" d="M136,-180C136,-180 93,-180 93,-180 87,-180 81,-174 81,-168 81,-168 81,-156 81,-156 81,-150 87,-144 93,-144 93,-144 136,-144 136,-144 142,-144 148,-150 148,-156 148,-156 148,-168 148,-168 148,-174 142,-180 136,-180"/>
<text text-anchor="middle" x="114.5" y="-158.3" font-family="Inter,Arial" font-size="14.00" fill="#586e75">Right(bⱼ)</text>
</g>
<!-- AorB&#45;&gt;RightB -->
<g id="edge2" class="edge">
<title>AorB&#45;&gt;RightB</title>
<path fill="none" stroke="#586e75" d="M83.63,-215.7C88.35,-207.64 94.06,-197.89 99.28,-188.98"/>
<polygon fill="#586e75" stroke="#586e75" points="102.45,-190.5 104.48,-180.1 96.41,-186.96 102.45,-190.5"/>
</g>
<!-- RightA -->
<g id="node6" class="node value">
<title>RightA</title>
<path fill="#ffffff" stroke="#586e75" d="M55,-108C55,-108 12,-108 12,-108 6,-108 0,-102 0,-96 0,-96 0,-84 0,-84 0,-78 6,-72 12,-72 12,-72 55,-72 55,-72 61,-72 67,-78 67,-84 67,-84 67,-96 67,-96 67,-102 61,-108 55,-108"/>
<text text-anchor="middle" x="33.5" y="-86.3" font-family="Inter,Arial" font-size="14.00" fill="#586e75">Right(aᵢ)</text>
</g>
<!-- LeftA&#45;&gt;RightA -->
<!-- LeftB -->
<g id="node5" class="node value">
<title>LeftB</title>
<path fill="#ffffff" stroke="#586e75" d="M131.5,-108C131.5,-108 97.5,-108 97.5,-108 91.5,-108 85.5,-102 85.5,-96 85.5,-96 85.5,-84 85.5,-84 85.5,-78 91.5,-72 97.5,-72 97.5,-72 131.5,-72 131.5,-72 137.5,-72 143.5,-78 143.5,-84 143.5,-84 143.5,-96 143.5,-96 143.5,-102 137.5,-108 131.5,-108"/>
<text text-anchor="middle" x="114.5" y="-86.3" font-family="Inter,Arial" font-size="14.00" fill="#586e75">Left(bⱼ)</text>
</g>
<!-- RightB&#45;&gt;LeftB -->
<!-- BorA -->
<g id="node4" class="node">
<title>BorA</title>
<path fill="#586e75" stroke="#586e75" d="M88.5,-36C88.5,-36 58.5,-36 58.5,-36 52.5,-36 46.5,-30 46.5,-24 46.5,-24 46.5,-12 46.5,-12 46.5,-6 52.5,0 58.5,0 58.5,0 88.5,0 88.5,0 94.5,0 100.5,-6 100.5,-12 100.5,-12 100.5,-24 100.5,-24 100.5,-30 94.5,-36 88.5,-36"/>
<text text-anchor="middle" x="73.5" y="-14.3" font-family="Inter,Arial" font-size="14.00" fill="#ffffff">B + A</text>
</g>
<!-- LeftB&#45;&gt;RightB -->
<!-- LeftB&#45;&gt;BorA -->
<g id="edge3" class="edge">
<title>LeftB&#45;&gt;BorA</title>
<path fill="none" stroke="#586e75" d="M99.15,-62.8C93.92,-53.87 88.22,-44.13 83.52,-36.1"/>
<polygon fill="#586e75" stroke="#586e75" points="96.29,-64.84 104.37,-71.7 102.33,-61.3 96.29,-64.84"/>
</g>
<!-- RightA&#45;&gt;LeftA -->
<!-- RightA&#45;&gt;BorA -->
<g id="edge4" class="edge">
<title>RightA&#45;&gt;BorA</title>
<path fill="none" stroke="#586e75" d="M48.47,-62.8C53.57,-53.87 59.14,-44.13 63.73,-36.1"/>
<polygon fill="#586e75" stroke="#586e75" points="45.31,-61.28 43.39,-71.7 51.39,-64.75 45.31,-61.28"/>
</g>
</g>
</svg>
