<?xml version="1.0" encoding="UTF-8" standalone="no"?>
<!DOCTYPE svg PUBLIC "-//W3C//DTD SVG 1.1//EN"
 "http://www.w3.org/Graphics/SVG/1.1/DTD/svg11.dtd">
<!-- Generated by graphviz version 2.43.0 (0)
 -->
<!-- Title: %3 Pages: 1 -->
<svg width="170pt" height="260pt"
 viewBox="0.00 0.00 169.50 260.00" xmlns="http://www.w3.org/2000/svg" xmlns:xlink="http://www.w3.org/1999/xlink">
<g id="graph0" class="graph" transform="scale(1 1) rotate(0) translate(4 256)">
<title>%3</title>
<!-- AorA -->
<g id="node1" class="node">
<title>AorA</title>
<path fill="#586e75" stroke="#586e75" d="M97,-252C97,-252 67,-252 67,-252 61,-252 55,-246 55,-240 55,-240 55,-228 55,-228 55,-222 61,-216 67,-216 67,-216 97,-216 97,-216 103,-216 109,-222 109,-228 109,-228 109,-240 109,-240 109,-246 103,-252 97,-252"/>
<text text-anchor="middle" x="82" y="-230.3" font-family="Inter,Arial" font-size="14.00" fill="#ffffff">A + A</text>
</g>
<!-- LeftA -->
<!-- AorA&#45;&gt;LeftA -->
<!-- RightA -->
<!-- AorA&#45;&gt;RightA -->
<!-- falseAndA -->
<!-- LeftA&#45;&gt;falseAndA -->
<!-- trueAndA -->
<!-- RightA&#45;&gt;trueAndA -->
<!-- BooleanAndA -->
<g id="node4" class="node">
<title>BooleanAndA</title>
<path fill="#586e75" stroke="#586e75" d="M117,-36C117,-36 47,-36 47,-36 41,-36 35,-30 35,-24 35,-24 35,-12 35,-12 35,-6 41,0 47,0 47,0 117,0 117,0 123,0 129,-6 129,-12 129,-12 129,-24 129,-24 129,-30 123,-36 117,-36"/>
<text text-anchor="middle" x="82" y="-14.3" font-family="Inter,Arial" font-size="14.00" fill="#ffffff">Boolean ✕ A</text>
</g>
<!-- trueAndA&#45;&gt;RightA -->
<!-- trueAndA&#45;&gt;BooleanAndA -->
<!-- falseAndA&#45;&gt;LeftA -->
<!-- falseAndA&#45;&gt;BooleanAndA -->
</g>
</svg>
