<?xml version="1.0" encoding="UTF-8" standalone="no"?>
<!DOCTYPE svg PUBLIC "-//W3C//DTD SVG 1.1//EN"
 "http://www.w3.org/Graphics/SVG/1.1/DTD/svg11.dtd">
<!-- Generated by graphviz version 2.43.0 (0)
 -->
<!-- Title: %3 Pages: 1 -->
<svg width="138pt" height="260pt"
 viewBox="0.00 0.00 138.00 260.00" xmlns="http://www.w3.org/2000/svg" xmlns:xlink="http://www.w3.org/1999/xlink">
<g id="graph0" class="graph" transform="scale(1 1) rotate(0) translate(4 256)">
<title>%3</title>
<!-- AorNothing -->
<g id="node1" class="node">
<title>AorNothing</title>
<path fill="#586e75" stroke="#586e75" d="M97.5,-252C97.5,-252 34.5,-252 34.5,-252 28.5,-252 22.5,-246 22.5,-240 22.5,-240 22.5,-228 22.5,-228 22.5,-222 28.5,-216 34.5,-216 34.5,-216 97.5,-216 97.5,-216 103.5,-216 109.5,-222 109.5,-228 109.5,-228 109.5,-240 109.5,-240 109.5,-246 103.5,-252 97.5,-252"/>
<text text-anchor="middle" x="66" y="-230.3" font-family="Inter,Arial" font-size="14.00" fill="#ffffff">A + Nothing</text>
</g>
<!-- LeftA -->
<g id="node2" class="node value">
<title>LeftA</title>
<path fill="#ffffff" stroke="#586e75" d="M46,-180C46,-180 12,-180 12,-180 6,-180 0,-174 0,-168 0,-168 0,-156 0,-156 0,-150 6,-144 12,-144 12,-144 46,-144 46,-144 52,-144 58,-150 58,-156 58,-156 58,-168 58,-168 58,-174 52,-180 46,-180"/>
<text text-anchor="middle" x="29" y="-158.3" font-family="Inter,Arial" font-size="14.00" fill="#586e75">Left(aᵢ)</text>
</g>
<!-- AorNothing&#45;&gt;LeftA -->
<g id="edge1" class="edge">
<title>AorNothing&#45;&gt;LeftA</title>
<path fill="none" stroke="#586e75" d="M56.85,-215.7C52.6,-207.64 47.44,-197.89 42.73,-188.98"/>
<polygon fill="#586e75" stroke="#586e75" points="45.81,-187.31 38.04,-180.1 39.62,-190.58 45.81,-187.31"/>
</g>
<!-- na -->
<g id="node3" class="node na,value">
<title>na</title>
<polygon fill="none" stroke="transparent" points="130,-180 76,-180 76,-144 130,-144 130,-180"/>
<text text-anchor="middle" x="103" y="-158.3" font-family="Inter,Arial" font-size="14.00" fill="#586e75">∅</text>
</g>
<!-- AorNothing&#45;&gt;na -->
<g id="edge2" class="edge">
<title>AorNothing&#45;&gt;na</title>
<path fill="none" stroke="#586e75" d="M75.15,-215.7C79.4,-207.64 84.56,-197.89 89.27,-188.98"/>
<polygon fill="#586e75" stroke="#586e75" points="92.38,-190.58 93.96,-180.1 86.19,-187.31 92.38,-190.58"/>
</g>
<!-- a -->
<g id="node5" class="node value">
<title>a</title>
<path fill="#ffffff" stroke="#586e75" d="M44,-108C44,-108 14,-108 14,-108 8,-108 2,-102 2,-96 2,-96 2,-84 2,-84 2,-78 8,-72 14,-72 14,-72 44,-72 44,-72 50,-72 56,-78 56,-84 56,-84 56,-96 56,-96 56,-102 50,-108 44,-108"/>
<text text-anchor="middle" x="29" y="-86.3" font-family="Inter,Arial" font-size="14.00" fill="#586e75">aᵢ</text>
</g>
<!-- LeftA&#45;&gt;a -->
<g id="edge6" class="edge">
<title>LeftA&#45;&gt;a</title>
<path fill="none" stroke="#586e75" d="M23.08,-143.7C22.29,-135.98 22.06,-126.71 22.4,-118.11"/>
<polygon fill="#586e75" stroke="#586e75" points="25.9,-118.32 23.1,-108.1 18.92,-117.84 25.9,-118.32"/>
</g>
<!-- na2 -->
<!-- na&#45;&gt;na2 -->
<!-- na2&#45;&gt;na -->
<!-- A -->
<g id="node6" class="node">
<title>A</title>
<path fill="#586e75" stroke="#586e75" d="M81,-36C81,-36 51,-36 51,-36 45,-36 39,-30 39,-24 39,-24 39,-12 39,-12 39,-6 45,0 51,0 51,0 81,0 81,0 87,0 93,-6 93,-12 93,-12 93,-24 93,-24 93,-30 87,-36 81,-36"/>
<text text-anchor="middle" x="66" y="-14.3" font-family="Inter,Arial" font-size="14.00" fill="#ffffff">A</text>
</g>
<!-- na2&#45;&gt;A -->
<!-- a&#45;&gt;LeftA -->
<g id="edge5" class="edge">
<title>a&#45;&gt;LeftA</title>
<path fill="none" stroke="#586e75" d="M34.9,-108.1C35.7,-115.79 35.94,-125.05 35.6,-133.67"/>
<polygon fill="#586e75" stroke="#586e75" points="32.11,-133.48 34.92,-143.7 39.09,-133.96 32.11,-133.48"/>
</g>
<!-- a&#45;&gt;A -->
<g id="edge4" class="edge">
<title>a&#45;&gt;A</title>
<path fill="none" stroke="#586e75" d="M42.85,-62.8C47.57,-53.87 52.72,-44.13 56.96,-36.1"/>
<polygon fill="#586e75" stroke="#586e75" points="39.72,-61.22 38.15,-71.7 45.91,-64.49 39.72,-61.22"/>
</g>
</g>
</svg>
