<?xml version="1.0" encoding="UTF-8" standalone="no"?>
<!DOCTYPE svg PUBLIC "-//W3C//DTD SVG 1.1//EN"
 "http://www.w3.org/Graphics/SVG/1.1/DTD/svg11.dtd">
<!-- Generated by graphviz version 2.43.0 (0)
 -->
<!-- Title: %3 Pages: 1 -->
<svg width="178pt" height="260pt"
 viewBox="0.00 0.00 178.00 260.00" xmlns="http://www.w3.org/2000/svg" xmlns:xlink="http://www.w3.org/1999/xlink">
<g id="graph0" class="graph" transform="scale(1 1) rotate(0) translate(4 256)">
<title>%3</title>
<!-- AorA -->
<g id="node1" class="node">
<title>AorA</title>
<path fill="#586e75" stroke="#586e75" d="M102,-252C102,-252 70,-252 70,-252 64,-252 58,-246 58,-240 58,-240 58,-228 58,-228 58,-222 64,-216 70,-216 70,-216 102,-216 102,-216 108,-216 114,-222 114,-228 114,-228 114,-240 114,-240 114,-246 108,-252 102,-252"/>
<text text-anchor="middle" x="86" y="-230.3" font-family="Inter,Arial" font-size="14.00" fill="#ffffff">A ⋁ A</text>
</g>
<!-- LeftA -->
<!-- AorA&#45;&gt;LeftA -->
<!-- RightA -->
<!-- AorA&#45;&gt;RightA -->
<!-- falseAndA -->
<!-- LeftA&#45;&gt;falseAndA -->
<!-- trueAndA -->
<!-- RightA&#45;&gt;trueAndA -->
<!-- BooleanAndA -->
<g id="node4" class="node">
<title>BooleanAndA</title>
<path fill="#586e75" stroke="#586e75" d="M123.5,-36C123.5,-36 48.5,-36 48.5,-36 42.5,-36 36.5,-30 36.5,-24 36.5,-24 36.5,-12 36.5,-12 36.5,-6 42.5,0 48.5,0 48.5,0 123.5,0 123.5,0 129.5,0 135.5,-6 135.5,-12 135.5,-12 135.5,-24 135.5,-24 135.5,-30 129.5,-36 123.5,-36"/>
<text text-anchor="middle" x="86" y="-14.3" font-family="Inter,Arial" font-size="14.00" fill="#ffffff">Boolean ⋀ A</text>
</g>
<!-- trueAndA&#45;&gt;RightA -->
<!-- trueAndA&#45;&gt;BooleanAndA -->
<!-- falseAndA&#45;&gt;LeftA -->
<!-- falseAndA&#45;&gt;BooleanAndA -->
</g>
</svg>
