<?xml version="1.0" encoding="UTF-8" standalone="no"?>
<!DOCTYPE svg PUBLIC "-//W3C//DTD SVG 1.1//EN"
 "http://www.w3.org/Graphics/SVG/1.1/DTD/svg11.dtd">
<!-- Generated by graphviz version 2.43.0 (0)
 -->
<!-- Title: %3 Pages: 1 -->
<svg width="355pt" height="260pt"
 viewBox="0.00 0.00 354.50 260.00" xmlns="http://www.w3.org/2000/svg" xmlns:xlink="http://www.w3.org/1999/xlink">
<g id="graph0" class="graph" transform="scale(1 1) rotate(0) translate(4 256)">
<title>%3</title>
<!-- LeftAssoc -->
<g id="node1" class="node">
<title>LeftAssoc</title>
<path fill="#586e75" stroke="#586e75" d="M197.5,-252C197.5,-252 126.5,-252 126.5,-252 120.5,-252 114.5,-246 114.5,-240 114.5,-240 114.5,-228 114.5,-228 114.5,-222 120.5,-216 126.5,-216 126.5,-216 197.5,-216 197.5,-216 203.5,-216 209.5,-222 209.5,-228 209.5,-228 209.5,-240 209.5,-240 209.5,-246 203.5,-252 197.5,-252"/>
<text text-anchor="middle" x="162" y="-230.3" font-family="Inter,Arial" font-size="14.00" fill="#ffffff">A ⋁ (B ⋁ C)</text>
</g>
<!-- LeftA -->
<g id="node2" class="node">
<title>LeftA</title>
<path fill="#ffffff" stroke="#586e75" d="M69,-180C69,-180 31,-180 31,-180 25,-180 19,-174 19,-168 19,-168 19,-156 19,-156 19,-150 25,-144 31,-144 31,-144 69,-144 69,-144 75,-144 81,-150 81,-156 81,-156 81,-168 81,-168 81,-174 75,-180 69,-180"/>
<text text-anchor="middle" x="50" y="-158.3" font-family="Inter,Arial" font-size="14.00" fill="#586e75">Left(a)</text>
</g>
<!-- LeftAssoc&#45;&gt;LeftA -->
<g id="edge1" class="edge">
<title>LeftAssoc&#45;&gt;LeftA</title>
<path fill="none" stroke="#586e75" d="M134.6,-215.88C120.09,-206.81 102.08,-195.55 86.41,-185.76"/>
<polygon fill="#586e75" stroke="#586e75" points="87.84,-182.52 77.5,-180.19 84.13,-188.46 87.84,-182.52"/>
</g>
<!-- RightLeftB -->
<!-- LeftAssoc&#45;&gt;RightLeftB -->
<!-- RightRightC -->
<!-- LeftAssoc&#45;&gt;RightRightC -->
<!-- LeftLeftA -->
<!-- LeftA&#45;&gt;LeftLeftA -->
<!-- LeftRightB -->
<!-- RightLeftB&#45;&gt;LeftRightB -->
<!-- RightC -->
<!-- RightRightC&#45;&gt;RightC -->
<!-- RightAssoc -->
<g id="node5" class="node">
<title>RightAssoc</title>
<path fill="#586e75" stroke="#586e75" d="M207.5,-36C207.5,-36 136.5,-36 136.5,-36 130.5,-36 124.5,-30 124.5,-24 124.5,-24 124.5,-12 124.5,-12 124.5,-6 130.5,0 136.5,0 136.5,0 207.5,0 207.5,0 213.5,0 219.5,-6 219.5,-12 219.5,-12 219.5,-24 219.5,-24 219.5,-30 213.5,-36 207.5,-36"/>
<text text-anchor="middle" x="172" y="-14.3" font-family="Inter,Arial" font-size="14.00" fill="#ffffff">(A ⋁ B) ⋁ C</text>
</g>
<!-- LeftLeftA&#45;&gt;LeftA -->
<!-- LeftLeftA&#45;&gt;RightAssoc -->
<!-- LeftRightB&#45;&gt;RightLeftB -->
<!-- LeftRightB&#45;&gt;RightAssoc -->
<!-- RightC&#45;&gt;RightRightC -->
<!-- RightC&#45;&gt;RightAssoc -->
</g>
</svg>
