<?xml version="1.0" encoding="UTF-8" standalone="no"?>
<!DOCTYPE svg PUBLIC "-//W3C//DTD SVG 1.1//EN"
 "http://www.w3.org/Graphics/SVG/1.1/DTD/svg11.dtd">
<!-- Generated by graphviz version 2.43.0 (0)
 -->
<!-- Title: %3 Pages: 1 -->
<svg width="161pt" height="260pt"
 viewBox="0.00 0.00 161.00 260.00" xmlns="http://www.w3.org/2000/svg" xmlns:xlink="http://www.w3.org/1999/xlink">
<g id="graph0" class="graph" transform="scale(1 1) rotate(0) translate(4 256)">
<title>%3</title>
<!-- AorB -->
<g id="node1" class="node">
<title>AorB</title>
<path fill="#586e75" stroke="#586e75" d="M94,-252C94,-252 59,-252 59,-252 53,-252 47,-246 47,-240 47,-240 47,-228 47,-228 47,-222 53,-216 59,-216 59,-216 94,-216 94,-216 100,-216 106,-222 106,-228 106,-228 106,-240 106,-240 106,-246 100,-252 94,-252"/>
<text text-anchor="middle" x="76.5" y="-230.3" font-family="Inter,Arial" font-size="14.00" fill="#ffffff">A Or B</text>
</g>
<!-- LeftA -->
<!-- AorB&#45;&gt;LeftA -->
<!-- RightB -->
<!-- AorB&#45;&gt;RightB -->
<!-- RightA -->
<!-- LeftA&#45;&gt;RightA -->
<!-- LeftB -->
<!-- RightB&#45;&gt;LeftB -->
<!-- BorA -->
<g id="node4" class="node">
<title>BorA</title>
<path fill="#586e75" stroke="#586e75" d="M94,-36C94,-36 59,-36 59,-36 53,-36 47,-30 47,-24 47,-24 47,-12 47,-12 47,-6 53,0 59,0 59,0 94,0 94,0 100,0 106,-6 106,-12 106,-12 106,-24 106,-24 106,-30 100,-36 94,-36"/>
<text text-anchor="middle" x="76.5" y="-14.3" font-family="Inter,Arial" font-size="14.00" fill="#ffffff">B Or A</text>
</g>
<!-- LeftB&#45;&gt;RightB -->
<!-- LeftB&#45;&gt;BorA -->
<!-- RightA&#45;&gt;LeftA -->
<!-- RightA&#45;&gt;BorA -->
</g>
</svg>
