<?xml version="1.0" encoding="UTF-8" standalone="no"?>
<!DOCTYPE svg PUBLIC "-//W3C//DTD SVG 1.1//EN"
 "http://www.w3.org/Graphics/SVG/1.1/DTD/svg11.dtd">
<!-- Generated by graphviz version 2.43.0 (0)
 -->
<!-- Title: %3 Pages: 1 -->
<svg width="363pt" height="260pt"
 viewBox="0.00 0.00 362.50 260.00" xmlns="http://www.w3.org/2000/svg" xmlns:xlink="http://www.w3.org/1999/xlink">
<g id="graph0" class="graph" transform="scale(1 1) rotate(0) translate(4 256)">
<title>%3</title>
<!-- LeftAssoc -->
<g id="node1" class="node">
<title>LeftAssoc</title>
<path fill="#586e75" stroke="#586e75" d="M201.5,-252C201.5,-252 130.5,-252 130.5,-252 124.5,-252 118.5,-246 118.5,-240 118.5,-240 118.5,-228 118.5,-228 118.5,-222 124.5,-216 130.5,-216 130.5,-216 201.5,-216 201.5,-216 207.5,-216 213.5,-222 213.5,-228 213.5,-228 213.5,-240 213.5,-240 213.5,-246 207.5,-252 201.5,-252"/>
<text text-anchor="middle" x="166" y="-230.3" font-family="Inter,Arial" font-size="14.00" fill="#ffffff">A ⋁ (B ⋁ C)</text>
</g>
<!-- LeftA -->
<g id="node2" class="node">
<title>LeftA</title>
<path fill="#ffffff" stroke="#586e75" d="M71.5,-180C71.5,-180 30.5,-180 30.5,-180 24.5,-180 18.5,-174 18.5,-168 18.5,-168 18.5,-156 18.5,-156 18.5,-150 24.5,-144 30.5,-144 30.5,-144 71.5,-144 71.5,-144 77.5,-144 83.5,-150 83.5,-156 83.5,-156 83.5,-168 83.5,-168 83.5,-174 77.5,-180 71.5,-180"/>
<text text-anchor="middle" x="51" y="-158.3" font-family="Inter,Arial" font-size="14.00" fill="#586e75">Left(aᵢ)</text>
</g>
<!-- LeftAssoc&#45;&gt;LeftA -->
<g id="edge1" class="edge">
<title>LeftAssoc&#45;&gt;LeftA</title>
<path fill="none" stroke="#586e75" d="M137.87,-215.88C122.83,-206.72 104.13,-195.34 87.94,-185.48"/>
<polygon fill="#586e75" stroke="#586e75" points="89.6,-182.4 79.24,-180.19 85.96,-188.38 89.6,-182.4"/>
</g>
<!-- RightLeftB -->
<g id="node3" class="node">
<title>RightLeftB</title>
<path fill="#ffffff" stroke="#586e75" d="M209,-180C209,-180 123,-180 123,-180 117,-180 111,-174 111,-168 111,-168 111,-156 111,-156 111,-150 117,-144 123,-144 123,-144 209,-144 209,-144 215,-144 221,-150 221,-156 221,-156 221,-168 221,-168 221,-174 215,-180 209,-180"/>
<text text-anchor="middle" x="166" y="-158.3" font-family="Inter,Arial" font-size="14.00" fill="#586e75">Right(Left(bᵢ))</text>
</g>
<!-- LeftAssoc&#45;&gt;RightLeftB -->
<g id="edge2" class="edge">
<title>LeftAssoc&#45;&gt;RightLeftB</title>
<path fill="none" stroke="#586e75" d="M166,-215.7C166,-207.98 166,-198.71 166,-190.11"/>
<polygon fill="#586e75" stroke="#586e75" points="169.5,-190.1 166,-180.1 162.5,-190.1 169.5,-190.1"/>
</g>
<!-- RightRightC -->
<g id="node4" class="node">
<title>RightRightC</title>
<path fill="#ffffff" stroke="#586e75" d="M342.5,-180C342.5,-180 251.5,-180 251.5,-180 245.5,-180 239.5,-174 239.5,-168 239.5,-168 239.5,-156 239.5,-156 239.5,-150 245.5,-144 251.5,-144 251.5,-144 342.5,-144 342.5,-144 348.5,-144 354.5,-150 354.5,-156 354.5,-156 354.5,-168 354.5,-168 354.5,-174 348.5,-180 342.5,-180"/>
<text text-anchor="middle" x="297" y="-158.3" font-family="Inter,Arial" font-size="14.00" fill="#586e75">Right(Right(cᵢ))</text>
</g>
<!-- LeftAssoc&#45;&gt;RightRightC -->
<g id="edge3" class="edge">
<title>LeftAssoc&#45;&gt;RightRightC</title>
<path fill="none" stroke="#586e75" d="M198.05,-215.88C215.49,-206.55 237.27,-194.92 255.94,-184.94"/>
<polygon fill="#586e75" stroke="#586e75" points="257.66,-187.99 264.83,-180.19 254.36,-181.82 257.66,-187.99"/>
</g>
<!-- LeftLeftA -->
<g id="node6" class="node">
<title>LeftLeftA</title>
<path fill="#ffffff" stroke="#586e75" d="M90,-108C90,-108 12,-108 12,-108 6,-108 0,-102 0,-96 0,-96 0,-84 0,-84 0,-78 6,-72 12,-72 12,-72 90,-72 90,-72 96,-72 102,-78 102,-84 102,-84 102,-96 102,-96 102,-102 96,-108 90,-108"/>
<text text-anchor="middle" x="51" y="-86.3" font-family="Inter,Arial" font-size="14.00" fill="#586e75">Left(Left(aᵢ))</text>
</g>
<!-- LeftA&#45;&gt;LeftLeftA -->
<!-- LeftRightB -->
<g id="node7" class="node">
<title>LeftRightB</title>
<path fill="#ffffff" stroke="#586e75" d="M218,-108C218,-108 132,-108 132,-108 126,-108 120,-102 120,-96 120,-96 120,-84 120,-84 120,-78 126,-72 132,-72 132,-72 218,-72 218,-72 224,-72 230,-78 230,-84 230,-84 230,-96 230,-96 230,-102 224,-108 218,-108"/>
<text text-anchor="middle" x="175" y="-86.3" font-family="Inter,Arial" font-size="14.00" fill="#586e75">Left(Right(bᵢ))</text>
</g>
<!-- RightLeftB&#45;&gt;LeftRightB -->
<!-- RightC -->
<g id="node8" class="node">
<title>RightC</title>
<path fill="#ffffff" stroke="#586e75" d="M320.5,-108C320.5,-108 273.5,-108 273.5,-108 267.5,-108 261.5,-102 261.5,-96 261.5,-96 261.5,-84 261.5,-84 261.5,-78 267.5,-72 273.5,-72 273.5,-72 320.5,-72 320.5,-72 326.5,-72 332.5,-78 332.5,-84 332.5,-84 332.5,-96 332.5,-96 332.5,-102 326.5,-108 320.5,-108"/>
<text text-anchor="middle" x="297" y="-86.3" font-family="Inter,Arial" font-size="14.00" fill="#586e75">Right(cᵢ)</text>
</g>
<!-- RightRightC&#45;&gt;RightC -->
<!-- RightAssoc -->
<g id="node5" class="node">
<title>RightAssoc</title>
<path fill="#586e75" stroke="#586e75" d="M210.5,-36C210.5,-36 139.5,-36 139.5,-36 133.5,-36 127.5,-30 127.5,-24 127.5,-24 127.5,-12 127.5,-12 127.5,-6 133.5,0 139.5,0 139.5,0 210.5,0 210.5,0 216.5,0 222.5,-6 222.5,-12 222.5,-12 222.5,-24 222.5,-24 222.5,-30 216.5,-36 210.5,-36"/>
<text text-anchor="middle" x="175" y="-14.3" font-family="Inter,Arial" font-size="14.00" fill="#ffffff">(A ⋁ B) ⋁ C</text>
</g>
<!-- LeftLeftA&#45;&gt;LeftA -->
<!-- LeftLeftA&#45;&gt;RightAssoc -->
<g id="edge4" class="edge">
<title>LeftLeftA&#45;&gt;RightAssoc</title>
<path fill="none" stroke="#586e75" d="M90.22,-66.86C107.78,-56.95 128.17,-45.44 144.55,-36.19"/>
<polygon fill="#586e75" stroke="#586e75" points="88.32,-63.91 81.33,-71.88 91.76,-70.01 88.32,-63.91"/>
</g>
<!-- LeftRightB&#45;&gt;RightLeftB -->
<!-- LeftRightB&#45;&gt;RightAssoc -->
<g id="edge5" class="edge">
<title>LeftRightB&#45;&gt;RightAssoc</title>
<path fill="none" stroke="#586e75" d="M175,-61.67C175,-53.05 175,-43.79 175,-36.1"/>
<polygon fill="#586e75" stroke="#586e75" points="171.5,-61.7 175,-71.7 178.5,-61.7 171.5,-61.7"/>
</g>
<!-- RightC&#45;&gt;RightRightC -->
<!-- RightC&#45;&gt;RightAssoc -->
<g id="edge6" class="edge">
<title>RightC&#45;&gt;RightAssoc</title>
<path fill="none" stroke="#586e75" d="M258.41,-66.86C241.14,-56.95 221.08,-45.44 204.96,-36.19"/>
<polygon fill="#586e75" stroke="#586e75" points="256.74,-69.94 267.16,-71.88 260.22,-63.86 256.74,-69.94"/>
</g>
</g>
</svg>
