<?xml version="1.0" encoding="UTF-8" standalone="no"?>
<!DOCTYPE svg PUBLIC "-//W3C//DTD SVG 1.1//EN"
 "http://www.w3.org/Graphics/SVG/1.1/DTD/svg11.dtd">
<!-- Generated by graphviz version 2.43.0 (0)
 -->
<!-- Title: %3 Pages: 1 -->
<svg width="156pt" height="260pt"
 viewBox="0.00 0.00 156.00 260.00" xmlns="http://www.w3.org/2000/svg" xmlns:xlink="http://www.w3.org/1999/xlink">
<g id="graph0" class="graph" transform="scale(1 1) rotate(0) translate(4 256)">
<title>%3</title>
<!-- AorB -->
<g id="node1" class="node">
<title>AorB</title>
<path fill="#586e75" stroke="#586e75" d="M88.5,-252C88.5,-252 58.5,-252 58.5,-252 52.5,-252 46.5,-246 46.5,-240 46.5,-240 46.5,-228 46.5,-228 46.5,-222 52.5,-216 58.5,-216 58.5,-216 88.5,-216 88.5,-216 94.5,-216 100.5,-222 100.5,-228 100.5,-228 100.5,-240 100.5,-240 100.5,-246 94.5,-252 88.5,-252"/>
<text text-anchor="middle" x="73.5" y="-230.3" font-family="Inter,Arial" font-size="14.00" fill="#ffffff">A + B</text>
</g>
<!-- LeftA -->
<g id="node2" class="node value">
<title>LeftA</title>
<path fill="#ffffff" stroke="#586e75" d="M50.5,-180C50.5,-180 16.5,-180 16.5,-180 10.5,-180 4.5,-174 4.5,-168 4.5,-168 4.5,-156 4.5,-156 4.5,-150 10.5,-144 16.5,-144 16.5,-144 50.5,-144 50.5,-144 56.5,-144 62.5,-150 62.5,-156 62.5,-156 62.5,-168 62.5,-168 62.5,-174 56.5,-180 50.5,-180"/>
<text text-anchor="middle" x="33.5" y="-158.3" font-family="Inter,Arial" font-size="14.00" fill="#586e75">Left(aᵢ)</text>
</g>
<!-- AorB&#45;&gt;LeftA -->
<g id="edge1" class="edge">
<title>AorB&#45;&gt;LeftA</title>
<path fill="none" stroke="#586e75" d="M63.61,-215.7C59.01,-207.64 53.44,-197.89 48.35,-188.98"/>
<polygon fill="#586e75" stroke="#586e75" points="51.27,-187.05 43.27,-180.1 45.2,-190.52 51.27,-187.05"/>
</g>
<!-- RightB -->
<!-- AorB&#45;&gt;RightB -->
<!-- RightA -->
<!-- LeftA&#45;&gt;RightA -->
<!-- LeftB -->
<!-- RightB&#45;&gt;LeftB -->
<!-- BorA -->
<g id="node4" class="node">
<title>BorA</title>
<path fill="#586e75" stroke="#586e75" d="M88.5,-36C88.5,-36 58.5,-36 58.5,-36 52.5,-36 46.5,-30 46.5,-24 46.5,-24 46.5,-12 46.5,-12 46.5,-6 52.5,0 58.5,0 58.5,0 88.5,0 88.5,0 94.5,0 100.5,-6 100.5,-12 100.5,-12 100.5,-24 100.5,-24 100.5,-30 94.5,-36 88.5,-36"/>
<text text-anchor="middle" x="73.5" y="-14.3" font-family="Inter,Arial" font-size="14.00" fill="#ffffff">B + A</text>
</g>
<!-- LeftB&#45;&gt;RightB -->
<!-- LeftB&#45;&gt;BorA -->
<!-- RightA&#45;&gt;LeftA -->
<!-- RightA&#45;&gt;BorA -->
</g>
</svg>
