<?xml version="1.0" encoding="UTF-8" standalone="no"?>
<!DOCTYPE svg PUBLIC "-//W3C//DTD SVG 1.1//EN"
 "http://www.w3.org/Graphics/SVG/1.1/DTD/svg11.dtd">
<!-- Generated by graphviz version 2.43.0 (0)
 -->
<!-- Title: %3 Pages: 1 -->
<svg width="161pt" height="260pt"
 viewBox="0.00 0.00 161.00 260.00" xmlns="http://www.w3.org/2000/svg" xmlns:xlink="http://www.w3.org/1999/xlink">
<g id="graph0" class="graph" transform="scale(1 1) rotate(0) translate(4 256)">
<title>%3</title>
<!-- AorB -->
<g id="node1" class="node">
<title>AorB</title>
<path fill="#586e75" stroke="#586e75" d="M92,-252C92,-252 61,-252 61,-252 55,-252 49,-246 49,-240 49,-240 49,-228 49,-228 49,-222 55,-216 61,-216 61,-216 92,-216 92,-216 98,-216 104,-222 104,-228 104,-228 104,-240 104,-240 104,-246 98,-252 92,-252"/>
<text text-anchor="middle" x="76.5" y="-230.3" font-family="Inter,Arial" font-size="14.00" fill="#ffffff">A ⋁ B</text>
</g>
<!-- LeftA -->
<g id="node2" class="node">
<title>LeftA</title>
<path fill="#ffffff" stroke="#586e75" d="M53.5,-180C53.5,-180 15.5,-180 15.5,-180 9.5,-180 3.5,-174 3.5,-168 3.5,-168 3.5,-156 3.5,-156 3.5,-150 9.5,-144 15.5,-144 15.5,-144 53.5,-144 53.5,-144 59.5,-144 65.5,-150 65.5,-156 65.5,-156 65.5,-168 65.5,-168 65.5,-174 59.5,-180 53.5,-180"/>
<text text-anchor="middle" x="34.5" y="-158.3" font-family="Inter,Arial" font-size="14.00" fill="#586e75">Left(a)</text>
</g>
<!-- AorB&#45;&gt;LeftA -->
<g id="edge1" class="edge">
<title>AorB&#45;&gt;LeftA</title>
<path fill="none" stroke="#586e75" d="M66.12,-215.7C61.24,-207.56 55.31,-197.69 49.92,-188.7"/>
<polygon fill="#586e75" stroke="#586e75" points="52.91,-186.88 44.76,-180.1 46.91,-190.48 52.91,-186.88"/>
</g>
<!-- RightB -->
<g id="node3" class="node">
<title>RightB</title>
<path fill="#ffffff" stroke="#586e75" d="M141,-180C141,-180 96,-180 96,-180 90,-180 84,-174 84,-168 84,-168 84,-156 84,-156 84,-150 90,-144 96,-144 96,-144 141,-144 141,-144 147,-144 153,-150 153,-156 153,-156 153,-168 153,-168 153,-174 147,-180 141,-180"/>
<text text-anchor="middle" x="118.5" y="-158.3" font-family="Inter,Arial" font-size="14.00" fill="#586e75">Right(b)</text>
</g>
<!-- AorB&#45;&gt;RightB -->
<g id="edge2" class="edge">
<title>AorB&#45;&gt;RightB</title>
<path fill="none" stroke="#586e75" d="M86.88,-215.7C91.76,-207.56 97.69,-197.69 103.08,-188.7"/>
<polygon fill="#586e75" stroke="#586e75" points="106.09,-190.48 108.24,-180.1 100.09,-186.88 106.09,-190.48"/>
</g>
<!-- RightA -->
<!-- LeftA&#45;&gt;RightA -->
<!-- LeftB -->
<!-- RightB&#45;&gt;LeftB -->
<!-- BorA -->
<g id="node4" class="node">
<title>BorA</title>
<path fill="#586e75" stroke="#586e75" d="M92,-36C92,-36 61,-36 61,-36 55,-36 49,-30 49,-24 49,-24 49,-12 49,-12 49,-6 55,0 61,0 61,0 92,0 92,0 98,0 104,-6 104,-12 104,-12 104,-24 104,-24 104,-30 98,-36 92,-36"/>
<text text-anchor="middle" x="76.5" y="-14.3" font-family="Inter,Arial" font-size="14.00" fill="#ffffff">B ⋁ A</text>
</g>
<!-- LeftB&#45;&gt;RightB -->
<!-- LeftB&#45;&gt;BorA -->
<!-- RightA&#45;&gt;LeftA -->
<!-- RightA&#45;&gt;BorA -->
</g>
</svg>
