<?xml version="1.0" encoding="UTF-8" standalone="no"?>
<!DOCTYPE svg PUBLIC "-//W3C//DTD SVG 1.1//EN"
 "http://www.w3.org/Graphics/SVG/1.1/DTD/svg11.dtd">
<!-- Generated by graphviz version 2.43.0 (0)
 -->
<!-- Title: %3 Pages: 1 -->
<svg width="174pt" height="260pt"
 viewBox="0.00 0.00 173.50 260.00" xmlns="http://www.w3.org/2000/svg" xmlns:xlink="http://www.w3.org/1999/xlink">
<g id="graph0" class="graph" transform="scale(1 1) rotate(0) translate(4 256)">
<title>%3</title>
<!-- AorA -->
<g id="node1" class="node">
<title>AorA</title>
<path fill="#586e75" stroke="#586e75" d="M100,-252C100,-252 68,-252 68,-252 62,-252 56,-246 56,-240 56,-240 56,-228 56,-228 56,-222 62,-216 68,-216 68,-216 100,-216 100,-216 106,-216 112,-222 112,-228 112,-228 112,-240 112,-240 112,-246 106,-252 100,-252"/>
<text text-anchor="middle" x="84" y="-230.3" font-family="Inter,Arial" font-size="14.00" fill="#ffffff">A ⋁ A</text>
</g>
<!-- LeftA -->
<g id="node2" class="node">
<title>LeftA</title>
<path fill="#ffffff" stroke="#586e75" d="M57,-180C57,-180 19,-180 19,-180 13,-180 7,-174 7,-168 7,-168 7,-156 7,-156 7,-150 13,-144 19,-144 19,-144 57,-144 57,-144 63,-144 69,-150 69,-156 69,-156 69,-168 69,-168 69,-174 63,-180 57,-180"/>
<text text-anchor="middle" x="38" y="-158.3" font-family="Inter,Arial" font-size="14.00" fill="#586e75">Left(a)</text>
</g>
<!-- AorA&#45;&gt;LeftA -->
<g id="edge1" class="edge">
<title>AorA&#45;&gt;LeftA</title>
<path fill="none" stroke="#586e75" d="M72.63,-215.7C67.28,-207.56 60.8,-197.69 54.89,-188.7"/>
<polygon fill="#586e75" stroke="#586e75" points="57.66,-186.54 49.24,-180.1 51.81,-190.38 57.66,-186.54"/>
</g>
<!-- RightA -->
<g id="node3" class="node">
<title>RightA</title>
<path fill="#ffffff" stroke="#586e75" d="M152.5,-180C152.5,-180 107.5,-180 107.5,-180 101.5,-180 95.5,-174 95.5,-168 95.5,-168 95.5,-156 95.5,-156 95.5,-150 101.5,-144 107.5,-144 107.5,-144 152.5,-144 152.5,-144 158.5,-144 164.5,-150 164.5,-156 164.5,-156 164.5,-168 164.5,-168 164.5,-174 158.5,-180 152.5,-180"/>
<text text-anchor="middle" x="130" y="-158.3" font-family="Inter,Arial" font-size="14.00" fill="#586e75">Right(a)</text>
</g>
<!-- AorA&#45;&gt;RightA -->
<g id="edge2" class="edge">
<title>AorA&#45;&gt;RightA</title>
<path fill="none" stroke="#586e75" d="M95.37,-215.7C100.72,-207.56 107.2,-197.69 113.11,-188.7"/>
<polygon fill="#586e75" stroke="#586e75" points="116.19,-190.38 118.76,-180.1 110.34,-186.54 116.19,-190.38"/>
</g>
<!-- falseAndA -->
<g id="node6" class="node">
<title>falseAndA</title>
<path fill="#ffffff" stroke="#586e75" d="M64,-108C64,-108 12,-108 12,-108 6,-108 0,-102 0,-96 0,-96 0,-84 0,-84 0,-78 6,-72 12,-72 12,-72 64,-72 64,-72 70,-72 76,-78 76,-84 76,-84 76,-96 76,-96 76,-102 70,-108 64,-108"/>
<text text-anchor="middle" x="38" y="-86.3" font-family="Inter,Arial" font-size="14.00" fill="#586e75">false ⋀ a</text>
</g>
<!-- LeftA&#45;&gt;falseAndA -->
<!-- trueAndA -->
<!-- RightA&#45;&gt;trueAndA -->
<!-- BooleanAndA -->
<g id="node4" class="node">
<title>BooleanAndA</title>
<path fill="#586e75" stroke="#586e75" d="M121.5,-36C121.5,-36 46.5,-36 46.5,-36 40.5,-36 34.5,-30 34.5,-24 34.5,-24 34.5,-12 34.5,-12 34.5,-6 40.5,0 46.5,0 46.5,0 121.5,0 121.5,0 127.5,0 133.5,-6 133.5,-12 133.5,-12 133.5,-24 133.5,-24 133.5,-30 127.5,-36 121.5,-36"/>
<text text-anchor="middle" x="84" y="-14.3" font-family="Inter,Arial" font-size="14.00" fill="#ffffff">Boolean ⋀ A</text>
</g>
<!-- trueAndA&#45;&gt;RightA -->
<!-- trueAndA&#45;&gt;BooleanAndA -->
<!-- falseAndA&#45;&gt;LeftA -->
<!-- falseAndA&#45;&gt;BooleanAndA -->
<g id="edge4" class="edge">
<title>falseAndA&#45;&gt;BooleanAndA</title>
<path fill="none" stroke="#586e75" d="M55.03,-63.08C60.95,-54.08 67.43,-44.21 72.76,-36.1"/>
<polygon fill="#586e75" stroke="#586e75" points="51.94,-61.42 49.37,-71.7 57.79,-65.26 51.94,-61.42"/>
</g>
</g>
</svg>
