<?xml version="1.0" encoding="UTF-8" standalone="no"?>
<!DOCTYPE svg PUBLIC "-//W3C//DTD SVG 1.1//EN"
 "http://www.w3.org/Graphics/SVG/1.1/DTD/svg11.dtd">
<!-- Generated by graphviz version 2.43.0 (0)
 -->
<!-- Title: %3 Pages: 1 -->
<svg width="762pt" height="116pt"
 viewBox="0.00 0.00 761.50 116.00" xmlns="http://www.w3.org/2000/svg" xmlns:xlink="http://www.w3.org/1999/xlink">
<g id="graph0" class="graph" transform="scale(1 1) rotate(0) translate(4 112)">
<title>%3</title>
<!-- AndAB -->
<g id="node1" class="node">
<title>AndAB</title>
<path fill="#586e75" stroke="#586e75" d="M392.5,-108C392.5,-108 346.5,-108 346.5,-108 340.5,-108 334.5,-102 334.5,-96 334.5,-96 334.5,-84 334.5,-84 334.5,-78 340.5,-72 346.5,-72 346.5,-72 392.5,-72 392.5,-72 398.5,-72 404.5,-78 404.5,-84 404.5,-84 404.5,-96 404.5,-96 404.5,-102 398.5,-108 392.5,-108"/>
<text text-anchor="middle" x="369.5" y="-86.3" font-family="Inter" font-size="14.00" fill="#ffffff">A And B</text>
</g>
<!-- AndA1B1 -->
<g id="node2" class="node">
<title>AndA1B1</title>
<path fill="#ffffff" stroke="#586e75" d="M79,-36C79,-36 12,-36 12,-36 6,-36 0,-30 0,-24 0,-24 0,-12 0,-12 0,-6 6,0 12,0 12,0 79,0 79,0 85,0 91,-6 91,-12 91,-12 91,-24 91,-24 91,-30 85,-36 79,-36"/>
<text text-anchor="middle" x="45.5" y="-14.3" font-family="Inter" font-size="14.00" fill="#586e75">And(a1, b1)</text>
</g>
<!-- AndAB&#45;&gt;AndA1B1 -->
<g id="edge1" class="edge">
<title>AndAB&#45;&gt;AndA1B1</title>
<path fill="none" stroke="#586e75" d="M334.42,-83.3C284.63,-74.95 190.49,-58.19 100.8,-35.93"/>
<polygon fill="#586e75" stroke="#586e75" points="101.57,-32.51 91.01,-33.47 99.86,-39.3 101.57,-32.51"/>
</g>
<!-- AndA1BE -->
<g id="node3" class="node">
<title>AndA1BE</title>
<path fill="#ffffff" stroke="#586e75" d="M183.5,-36C183.5,-36 121.5,-36 121.5,-36 115.5,-36 109.5,-30 109.5,-24 109.5,-24 109.5,-12 109.5,-12 109.5,-6 115.5,0 121.5,0 121.5,0 183.5,0 183.5,0 189.5,0 195.5,-6 195.5,-12 195.5,-12 195.5,-24 195.5,-24 195.5,-30 189.5,-36 183.5,-36"/>
<text text-anchor="middle" x="152.5" y="-14.3" font-family="Inter" font-size="14.00" fill="#586e75">And(a1, ...)</text>
</g>
<!-- AndAB&#45;&gt;AndA1BE -->
<g id="edge2" class="edge">
<title>AndAB&#45;&gt;AndA1BE</title>
<path fill="none" stroke="#586e75" d="M334.4,-77.78C303.01,-67.74 255.49,-52.5 205.35,-36.27"/>
<polygon fill="#586e75" stroke="#586e75" points="206.22,-32.87 195.62,-33.12 204.06,-39.53 206.22,-32.87"/>
</g>
<!-- AndA1BN -->
<g id="node4" class="node">
<title>AndA1BN</title>
<path fill="#ffffff" stroke="#586e75" d="M297,-36C297,-36 226,-36 226,-36 220,-36 214,-30 214,-24 214,-24 214,-12 214,-12 214,-6 220,0 226,0 226,0 297,0 297,0 303,0 309,-6 309,-12 309,-12 309,-24 309,-24 309,-30 303,-36 297,-36"/>
<text text-anchor="middle" x="261.5" y="-14.3" font-family="Inter" font-size="14.00" fill="#586e75">And(a1, bN)</text>
</g>
<!-- AndAB&#45;&gt;AndA1BN -->
<g id="edge3" class="edge">
<title>AndAB&#45;&gt;AndA1BN</title>
<path fill="none" stroke="#586e75" d="M343.08,-71.88C329.09,-62.81 311.72,-51.55 296.61,-41.76"/>
<polygon fill="#586e75" stroke="#586e75" points="298.32,-38.69 288.02,-36.19 294.51,-44.57 298.32,-38.69"/>
</g>
<!-- AndAEBE -->
<g id="node5" class="node">
<title>AndAEBE</title>
<path fill="#ffffff" stroke="#586e75" d="M399.5,-36C399.5,-36 339.5,-36 339.5,-36 333.5,-36 327.5,-30 327.5,-24 327.5,-24 327.5,-12 327.5,-12 327.5,-6 333.5,0 339.5,0 339.5,0 399.5,0 399.5,0 405.5,0 411.5,-6 411.5,-12 411.5,-12 411.5,-24 411.5,-24 411.5,-30 405.5,-36 399.5,-36"/>
<text text-anchor="middle" x="369.5" y="-14.3" font-family="Inter" font-size="14.00" fill="#586e75">And(..., ...)</text>
</g>
<!-- AndAB&#45;&gt;AndAEBE -->
<g id="edge4" class="edge">
<title>AndAB&#45;&gt;AndAEBE</title>
<path fill="none" stroke="#586e75" d="M369.5,-71.7C369.5,-63.98 369.5,-54.71 369.5,-46.11"/>
<polygon fill="#586e75" stroke="#586e75" points="373,-46.1 369.5,-36.1 366,-46.1 373,-46.1"/>
</g>
<!-- AndANB1 -->
<!-- AndAB&#45;&gt;AndANB1 -->
<!-- AndANBE -->
<!-- AndAB&#45;&gt;AndANBE -->
<!-- AndANBN -->
<!-- AndAB&#45;&gt;AndANBN -->
</g>
</svg>
