<?xml version="1.0" encoding="UTF-8" standalone="no"?>
<!DOCTYPE svg PUBLIC "-//W3C//DTD SVG 1.1//EN"
 "http://www.w3.org/Graphics/SVG/1.1/DTD/svg11.dtd">
<!-- Generated by graphviz version 2.43.0 (0)
 -->
<!-- Title: %3 Pages: 1 -->
<svg width="585pt" height="116pt"
 viewBox="0.00 0.00 585.00 116.00" xmlns="http://www.w3.org/2000/svg" xmlns:xlink="http://www.w3.org/1999/xlink">
<g id="graph0" class="graph" transform="scale(1 1) rotate(0) translate(4 112)">
<title>%3</title>
<!-- AndAB -->
<g id="node1" class="node">
<title>AndAB</title>
<path fill="#586e75" stroke="#586e75" d="M297.5,-108C297.5,-108 266.5,-108 266.5,-108 260.5,-108 254.5,-102 254.5,-96 254.5,-96 254.5,-84 254.5,-84 254.5,-78 260.5,-72 266.5,-72 266.5,-72 297.5,-72 297.5,-72 303.5,-72 309.5,-78 309.5,-84 309.5,-84 309.5,-96 309.5,-96 309.5,-102 303.5,-108 297.5,-108"/>
<text text-anchor="middle" x="282" y="-86.3" font-family="Inter,Arial" font-size="14.00" fill="#ffffff">A ⋀ B</text>
</g>
<!-- AndA1B1 -->
<g id="node2" class="node">
<title>AndA1B1</title>
<path fill="#ffffff" stroke="#586e75" d="M54,-36C54,-36 12,-36 12,-36 6,-36 0,-30 0,-24 0,-24 0,-12 0,-12 0,-6 6,0 12,0 12,0 54,0 54,0 60,0 66,-6 66,-12 66,-12 66,-24 66,-24 66,-30 60,-36 54,-36"/>
<text text-anchor="middle" x="33" y="-14.3" font-family="Inter,Arial" font-size="14.00" fill="#586e75">a1 ⋀ b1</text>
</g>
<!-- AndAB&#45;&gt;AndA1B1 -->
<g id="edge1" class="edge">
<title>AndAB&#45;&gt;AndA1B1</title>
<path fill="none" stroke="#586e75" d="M254.2,-83.13C215.95,-74.78 144.84,-58.31 76.01,-36.12"/>
<polygon fill="#586e75" stroke="#586e75" points="76.91,-32.74 66.32,-32.96 74.74,-39.39 76.91,-32.74"/>
</g>
<!-- AndA1BE -->
<g id="node3" class="node">
<title>AndA1BE</title>
<path fill="#ffffff" stroke="#586e75" d="M134,-36C134,-36 96,-36 96,-36 90,-36 84,-30 84,-24 84,-24 84,-12 84,-12 84,-6 90,0 96,0 96,0 134,0 134,0 140,0 146,-6 146,-12 146,-12 146,-24 146,-24 146,-30 140,-36 134,-36"/>
<text text-anchor="middle" x="115" y="-14.3" font-family="Inter,Arial" font-size="14.00" fill="#586e75">a1 ⋀ ...</text>
</g>
<!-- AndAB&#45;&gt;AndA1BE -->
<g id="edge2" class="edge">
<title>AndAB&#45;&gt;AndA1BE</title>
<path fill="none" stroke="#586e75" d="M254.23,-77.47C230.4,-67.57 194.9,-52.78 155.54,-36.21"/>
<polygon fill="#586e75" stroke="#586e75" points="156.57,-32.85 146,-32.2 153.86,-39.31 156.57,-32.85"/>
</g>
<!-- AndA1BN -->
<g id="node4" class="node">
<title>AndA1BN</title>
<path fill="#ffffff" stroke="#586e75" d="M222,-36C222,-36 176,-36 176,-36 170,-36 164,-30 164,-24 164,-24 164,-12 164,-12 164,-6 170,0 176,0 176,0 222,0 222,0 228,0 234,-6 234,-12 234,-12 234,-24 234,-24 234,-30 228,-36 222,-36"/>
<text text-anchor="middle" x="199" y="-14.3" font-family="Inter,Arial" font-size="14.00" fill="#586e75">a1 ⋀ bN</text>
</g>
<!-- AndAB&#45;&gt;AndA1BN -->
<g id="edge3" class="edge">
<title>AndAB&#45;&gt;AndA1BN</title>
<path fill="none" stroke="#586e75" d="M261.48,-71.7C251.13,-62.97 238.41,-52.24 227.16,-42.75"/>
<polygon fill="#586e75" stroke="#586e75" points="229.18,-39.88 219.28,-36.1 224.67,-45.23 229.18,-39.88"/>
</g>
<!-- AndAEBE -->
<!-- AndAB&#45;&gt;AndAEBE -->
<!-- AndANB1 -->
<!-- AndAB&#45;&gt;AndANB1 -->
<!-- AndANBE -->
<!-- AndAB&#45;&gt;AndANBE -->
<!-- AndANBN -->
<!-- AndAB&#45;&gt;AndANBN -->
</g>
</svg>
