<?xml version="1.0" encoding="UTF-8" standalone="no"?>
<!DOCTYPE svg PUBLIC "-//W3C//DTD SVG 1.1//EN"
 "http://www.w3.org/Graphics/SVG/1.1/DTD/svg11.dtd">
<!-- Generated by graphviz version 2.43.0 (0)
 -->
<!-- Title: %3 Pages: 1 -->
<svg width="585pt" height="116pt"
 viewBox="0.00 0.00 585.00 116.00" xmlns="http://www.w3.org/2000/svg" xmlns:xlink="http://www.w3.org/1999/xlink">
<g id="graph0" class="graph" transform="scale(1 1) rotate(0) translate(4 112)">
<title>%3</title>
<!-- AndAB -->
<g id="node1" class="node">
<title>AndAB</title>
<path fill="#dddddd" stroke="#dddddd" d="M297.5,-108C297.5,-108 266.5,-108 266.5,-108 260.5,-108 254.5,-102 254.5,-96 254.5,-96 254.5,-84 254.5,-84 254.5,-78 260.5,-72 266.5,-72 266.5,-72 297.5,-72 297.5,-72 303.5,-72 309.5,-78 309.5,-84 309.5,-84 309.5,-96 309.5,-96 309.5,-102 303.5,-108 297.5,-108"/>
<text text-anchor="middle" x="282" y="-86.3" font-family="Inter,Arial" font-size="14.00" fill="#eeeeee">A ⋀ B</text>
</g>
<!-- AndA1B1 -->
<g id="node2" class="node">
<title>AndA1B1</title>
<path fill="#ffffff" stroke="#586e75" d="M54,-36C54,-36 12,-36 12,-36 6,-36 0,-30 0,-24 0,-24 0,-12 0,-12 0,-6 6,0 12,0 12,0 54,0 54,0 60,0 66,-6 66,-12 66,-12 66,-24 66,-24 66,-30 60,-36 54,-36"/>
<text text-anchor="middle" x="33" y="-14.3" font-family="Inter,Arial" font-size="14.00" fill="#586e75">a1 ⋀ b1</text>
</g>
<!-- AndAB&#45;&gt;AndA1B1 -->
<g id="edge1" class="edge">
<title>AndAB&#45;&gt;AndA1B1</title>
<path fill="none" stroke="#dddddd" d="M254.2,-83.13C215.95,-74.78 144.84,-58.31 76.01,-36.12"/>
<polygon fill="#dddddd" stroke="#dddddd" points="76.91,-32.74 66.32,-32.96 74.74,-39.39 76.91,-32.74"/>
</g>
<!-- AndA1BE -->
<g id="node3" class="node">
<title>AndA1BE</title>
<path fill="#ffffff" stroke="#dddddd" d="M134,-36C134,-36 96,-36 96,-36 90,-36 84,-30 84,-24 84,-24 84,-12 84,-12 84,-6 90,0 96,0 96,0 134,0 134,0 140,0 146,-6 146,-12 146,-12 146,-24 146,-24 146,-30 140,-36 134,-36"/>
<text text-anchor="middle" x="115" y="-14.3" font-family="Inter,Arial" font-size="14.00" fill="#eeeeee">a1 ⋀ ...</text>
</g>
<!-- AndAB&#45;&gt;AndA1BE -->
<g id="edge2" class="edge">
<title>AndAB&#45;&gt;AndA1BE</title>
<path fill="none" stroke="#dddddd" d="M254.23,-77.47C230.4,-67.57 194.9,-52.78 155.54,-36.21"/>
<polygon fill="#dddddd" stroke="#dddddd" points="156.57,-32.85 146,-32.2 153.86,-39.31 156.57,-32.85"/>
</g>
<!-- AndA1BN -->
<g id="node4" class="node">
<title>AndA1BN</title>
<path fill="#ffffff" stroke="#dddddd" d="M222,-36C222,-36 176,-36 176,-36 170,-36 164,-30 164,-24 164,-24 164,-12 164,-12 164,-6 170,0 176,0 176,0 222,0 222,0 228,0 234,-6 234,-12 234,-12 234,-24 234,-24 234,-30 228,-36 222,-36"/>
<text text-anchor="middle" x="199" y="-14.3" font-family="Inter,Arial" font-size="14.00" fill="#eeeeee">a1 ⋀ bN</text>
</g>
<!-- AndAB&#45;&gt;AndA1BN -->
<g id="edge3" class="edge">
<title>AndAB&#45;&gt;AndA1BN</title>
<path fill="none" stroke="#dddddd" d="M261.48,-71.7C251.13,-62.97 238.41,-52.24 227.16,-42.75"/>
<polygon fill="#dddddd" stroke="#dddddd" points="229.18,-39.88 219.28,-36.1 224.67,-45.23 229.18,-39.88"/>
</g>
<!-- AndAEBE -->
<g id="node5" class="node">
<title>AndAEBE</title>
<path fill="#ffffff" stroke="#586e75" d="M299.5,-36C299.5,-36 264.5,-36 264.5,-36 258.5,-36 252.5,-30 252.5,-24 252.5,-24 252.5,-12 252.5,-12 252.5,-6 258.5,0 264.5,0 264.5,0 299.5,0 299.5,0 305.5,0 311.5,-6 311.5,-12 311.5,-12 311.5,-24 311.5,-24 311.5,-30 305.5,-36 299.5,-36"/>
<text text-anchor="middle" x="282" y="-14.3" font-family="Inter,Arial" font-size="14.00" fill="#586e75">... ⋀ ...</text>
</g>
<!-- AndAB&#45;&gt;AndAEBE -->
<g id="edge4" class="edge">
<title>AndAB&#45;&gt;AndAEBE</title>
<path fill="none" stroke="#dddddd" d="M282,-71.7C282,-63.98 282,-54.71 282,-46.11"/>
<polygon fill="#dddddd" stroke="#dddddd" points="285.5,-46.1 282,-36.1 278.5,-46.1 285.5,-46.1"/>
</g>
<!-- AndANB1 -->
<g id="node6" class="node">
<title>AndANB1</title>
<path fill="#ffffff" stroke="#586e75" d="M388.5,-36C388.5,-36 341.5,-36 341.5,-36 335.5,-36 329.5,-30 329.5,-24 329.5,-24 329.5,-12 329.5,-12 329.5,-6 335.5,0 341.5,0 341.5,0 388.5,0 388.5,0 394.5,0 400.5,-6 400.5,-12 400.5,-12 400.5,-24 400.5,-24 400.5,-30 394.5,-36 388.5,-36"/>
<text text-anchor="middle" x="365" y="-14.3" font-family="Inter,Arial" font-size="14.00" fill="#586e75">aN ⋀ b1</text>
</g>
<!-- AndAB&#45;&gt;AndANB1 -->
<g id="edge5" class="edge">
<title>AndAB&#45;&gt;AndANB1</title>
<path fill="none" stroke="#dddddd" d="M302.52,-71.7C312.87,-62.97 325.59,-52.24 336.84,-42.75"/>
<polygon fill="#dddddd" stroke="#dddddd" points="339.33,-45.23 344.72,-36.1 334.82,-39.88 339.33,-45.23"/>
</g>
<!-- AndANBE -->
<g id="node7" class="node">
<title>AndANBE</title>
<path fill="#ffffff" stroke="#dddddd" d="M473,-36C473,-36 431,-36 431,-36 425,-36 419,-30 419,-24 419,-24 419,-12 419,-12 419,-6 425,0 431,0 431,0 473,0 473,0 479,0 485,-6 485,-12 485,-12 485,-24 485,-24 485,-30 479,-36 473,-36"/>
<text text-anchor="middle" x="452" y="-14.3" font-family="Inter,Arial" font-size="14.00" fill="#eeeeee">aN ⋀ ...</text>
</g>
<!-- AndAB&#45;&gt;AndANBE -->
<g id="edge6" class="edge">
<title>AndAB&#45;&gt;AndANBE</title>
<path fill="none" stroke="#dddddd" d="M309.69,-77.6C336.72,-66.47 378.22,-49.38 409.44,-36.52"/>
<polygon fill="#dddddd" stroke="#dddddd" points="410.86,-39.72 418.78,-32.68 408.2,-33.25 410.86,-39.72"/>
</g>
<!-- AndANBN -->
<g id="node8" class="node">
<title>AndANBN</title>
<path fill="#ffffff" stroke="#dddddd" d="M565,-36C565,-36 515,-36 515,-36 509,-36 503,-30 503,-24 503,-24 503,-12 503,-12 503,-6 509,0 515,0 515,0 565,0 565,0 571,0 577,-6 577,-12 577,-12 577,-24 577,-24 577,-30 571,-36 565,-36"/>
<text text-anchor="middle" x="540" y="-14.3" font-family="Inter,Arial" font-size="14.00" fill="#eeeeee">aN ⋀ bN</text>
</g>
<!-- AndAB&#45;&gt;AndANBN -->
<g id="edge7" class="edge">
<title>AndAB&#45;&gt;AndANBN</title>
<path fill="none" stroke="#dddddd" d="M309.71,-83.09C348.7,-74.55 422.09,-57.68 493.38,-36.03"/>
<polygon fill="#dddddd" stroke="#dddddd" points="494.43,-39.36 502.96,-33.08 492.37,-32.67 494.43,-39.36"/>
</g>
</g>
</svg>
