<?xml version="1.0" encoding="UTF-8" standalone="no"?>
<!DOCTYPE svg PUBLIC "-//W3C//DTD SVG 1.1//EN"
 "http://www.w3.org/Graphics/SVG/1.1/DTD/svg11.dtd">
<!-- Generated by graphviz version 2.43.0 (0)
 -->
<!-- Title: %3 Pages: 1 -->
<svg width="562pt" height="116pt"
 viewBox="0.00 0.00 561.50 116.00" xmlns="http://www.w3.org/2000/svg" xmlns:xlink="http://www.w3.org/1999/xlink">
<g id="graph0" class="graph" transform="scale(1 1) rotate(0) translate(4 112)">
<title>%3</title>
<!-- AndAB -->
<g id="node1" class="node disabled">
<title>AndAB</title>
<path fill="#d0dce3" stroke="#d0dce3" d="M290,-108C290,-108 260,-108 260,-108 254,-108 248,-102 248,-96 248,-96 248,-84 248,-84 248,-78 254,-72 260,-72 260,-72 290,-72 290,-72 296,-72 302,-78 302,-84 302,-84 302,-96 302,-96 302,-102 296,-108 290,-108"/>
<text text-anchor="middle" x="275" y="-86.3" font-family="Inter,Arial" font-size="14.00" fill="#ffffff">A ✕ B</text>
</g>
<!-- AndA1B1 -->
<g id="node2" class="node value">
<title>AndA1B1</title>
<path fill="#ffffff" stroke="#586e75" d="M48,-36C48,-36 12,-36 12,-36 6,-36 0,-30 0,-24 0,-24 0,-12 0,-12 0,-6 6,0 12,0 12,0 48,0 48,0 54,0 60,-6 60,-12 60,-12 60,-24 60,-24 60,-30 54,-36 48,-36"/>
<text text-anchor="middle" x="30" y="-14.3" font-family="Inter,Arial" font-size="14.00" fill="#586e75">a₁ ✕ b₁</text>
</g>
<!-- AndAB&#45;&gt;AndA1B1 -->
<g id="edge1" class="edge disabled">
<title>AndAB&#45;&gt;AndA1B1</title>
<path fill="none" stroke="#d0dce3" d="M247.93,-83.48C209.95,-75.42 138.64,-59.18 69.75,-35.98"/>
<polygon fill="#d0dce3" stroke="#d0dce3" points="70.64,-32.59 60.05,-32.66 68.37,-39.21 70.64,-32.59"/>
</g>
<!-- AndA1BE -->
<g id="node3" class="node value,disabled">
<title>AndA1BE</title>
<path fill="#ffffff" stroke="#d0dce3" d="M129.5,-36C129.5,-36 90.5,-36 90.5,-36 84.5,-36 78.5,-30 78.5,-24 78.5,-24 78.5,-12 78.5,-12 78.5,-6 84.5,0 90.5,0 90.5,0 129.5,0 129.5,0 135.5,0 141.5,-6 141.5,-12 141.5,-12 141.5,-24 141.5,-24 141.5,-30 135.5,-36 129.5,-36"/>
<text text-anchor="middle" x="110" y="-14.3" font-family="Inter,Arial" font-size="14.00" fill="#d0dce3">a₁ ✕ ⋯</text>
</g>
<!-- AndAB&#45;&gt;AndA1BE -->
<g id="edge2" class="edge disabled">
<title>AndAB&#45;&gt;AndA1BE</title>
<path fill="none" stroke="#d0dce3" d="M247.75,-77.44C221.41,-66.26 181.14,-49.18 150.94,-36.37"/>
<polygon fill="#d0dce3" stroke="#d0dce3" points="152.09,-33.05 141.52,-32.37 149.36,-39.5 152.09,-33.05"/>
</g>
<!-- AndA1BN -->
<g id="node4" class="node value,disabled">
<title>AndA1BN</title>
<path fill="#ffffff" stroke="#d0dce3" d="M212,-36C212,-36 172,-36 172,-36 166,-36 160,-30 160,-24 160,-24 160,-12 160,-12 160,-6 166,0 172,0 172,0 212,0 212,0 218,0 224,-6 224,-12 224,-12 224,-24 224,-24 224,-30 218,-36 212,-36"/>
<text text-anchor="middle" x="192" y="-14.3" font-family="Inter,Arial" font-size="14.00" fill="#d0dce3">a₁ ✕ bₘ</text>
</g>
<!-- AndAB&#45;&gt;AndA1BN -->
<g id="edge3" class="edge disabled">
<title>AndAB&#45;&gt;AndA1BN</title>
<path fill="none" stroke="#d0dce3" d="M254.48,-71.7C244.13,-62.97 231.41,-52.24 220.16,-42.75"/>
<polygon fill="#d0dce3" stroke="#d0dce3" points="222.18,-39.88 212.28,-36.1 217.67,-45.23 222.18,-39.88"/>
</g>
<!-- AndAEBE -->
<g id="node5" class="node value">
<title>AndAEBE</title>
<path fill="#ffffff" stroke="#586e75" d="M296,-36C296,-36 254,-36 254,-36 248,-36 242,-30 242,-24 242,-24 242,-12 242,-12 242,-6 248,0 254,0 254,0 296,0 296,0 302,0 308,-6 308,-12 308,-12 308,-24 308,-24 308,-30 302,-36 296,-36"/>
<text text-anchor="middle" x="275" y="-14.3" font-family="Inter,Arial" font-size="14.00" fill="#586e75">⋯ ✕ ⋯</text>
</g>
<!-- AndAB&#45;&gt;AndAEBE -->
<g id="edge4" class="edge disabled">
<title>AndAB&#45;&gt;AndAEBE</title>
<path fill="none" stroke="#d0dce3" d="M275,-71.7C275,-63.98 275,-54.71 275,-46.11"/>
<polygon fill="#d0dce3" stroke="#d0dce3" points="278.5,-46.1 275,-36.1 271.5,-46.1 278.5,-46.1"/>
</g>
<!-- AndANB1 -->
<g id="node6" class="node value">
<title>AndANB1</title>
<path fill="#ffffff" stroke="#586e75" d="M375.5,-36C375.5,-36 338.5,-36 338.5,-36 332.5,-36 326.5,-30 326.5,-24 326.5,-24 326.5,-12 326.5,-12 326.5,-6 332.5,0 338.5,0 338.5,0 375.5,0 375.5,0 381.5,0 387.5,-6 387.5,-12 387.5,-12 387.5,-24 387.5,-24 387.5,-30 381.5,-36 375.5,-36"/>
<text text-anchor="middle" x="357" y="-14.3" font-family="Inter,Arial" font-size="14.00" fill="#586e75">aₙ ✕ b₁</text>
</g>
<!-- AndAB&#45;&gt;AndANB1 -->
<g id="edge5" class="edge disabled">
<title>AndAB&#45;&gt;AndANB1</title>
<path fill="none" stroke="#d0dce3" d="M295.27,-71.7C305.5,-62.97 318.06,-52.24 329.18,-42.75"/>
<polygon fill="#d0dce3" stroke="#d0dce3" points="331.63,-45.26 336.96,-36.1 327.09,-39.94 331.63,-45.26"/>
</g>
<!-- AndANBE -->
<g id="node7" class="node value,disabled">
<title>AndANBE</title>
<path fill="#ffffff" stroke="#d0dce3" d="M458,-36C458,-36 418,-36 418,-36 412,-36 406,-30 406,-24 406,-24 406,-12 406,-12 406,-6 412,0 418,0 418,0 458,0 458,0 464,0 470,-6 470,-12 470,-12 470,-24 470,-24 470,-30 464,-36 458,-36"/>
<text text-anchor="middle" x="438" y="-14.3" font-family="Inter,Arial" font-size="14.00" fill="#d0dce3">aₙ ✕ ⋯</text>
</g>
<!-- AndAB&#45;&gt;AndANBE -->
<g id="edge6" class="edge disabled">
<title>AndAB&#45;&gt;AndANBE</title>
<path fill="none" stroke="#d0dce3" d="M302.28,-77.28C328.04,-66.22 367.03,-49.48 396.62,-36.77"/>
<polygon fill="#d0dce3" stroke="#d0dce3" points="398.06,-39.96 405.86,-32.8 395.29,-33.53 398.06,-39.96"/>
</g>
<!-- AndANBN -->
<g id="node8" class="node value,disabled">
<title>AndANBN</title>
<path fill="#ffffff" stroke="#d0dce3" d="M541.5,-36C541.5,-36 500.5,-36 500.5,-36 494.5,-36 488.5,-30 488.5,-24 488.5,-24 488.5,-12 488.5,-12 488.5,-6 494.5,0 500.5,0 500.5,0 541.5,0 541.5,0 547.5,0 553.5,-6 553.5,-12 553.5,-12 553.5,-24 553.5,-24 553.5,-30 547.5,-36 541.5,-36"/>
<text text-anchor="middle" x="521" y="-14.3" font-family="Inter,Arial" font-size="14.00" fill="#d0dce3">aₙ ✕ bₘ</text>
</g>
<!-- AndAB&#45;&gt;AndANBN -->
<g id="edge7" class="edge disabled">
<title>AndAB&#45;&gt;AndANBN</title>
<path fill="none" stroke="#d0dce3" d="M302.06,-83.16C339.67,-74.78 409.95,-58.2 478.48,-35.95"/>
<polygon fill="#d0dce3" stroke="#d0dce3" points="479.73,-39.23 488.14,-32.77 477.54,-32.58 479.73,-39.23"/>
</g>
</g>
</svg>
