<?xml version="1.0" encoding="UTF-8" standalone="no"?>
<!DOCTYPE svg PUBLIC "-//W3C//DTD SVG 1.1//EN"
 "http://www.w3.org/Graphics/SVG/1.1/DTD/svg11.dtd">
<!-- Generated by graphviz version 2.43.0 (0)
 -->
<!-- Title: %3 Pages: 1 -->
<svg width="562pt" height="116pt"
 viewBox="0.00 0.00 561.50 116.00" xmlns="http://www.w3.org/2000/svg" xmlns:xlink="http://www.w3.org/1999/xlink">
<g id="graph0" class="graph" transform="scale(1 1) rotate(0) translate(4 112)">
<title>%3</title>
<!-- AndAB -->
<g id="node1" class="node">
<title>AndAB</title>
<path fill="#586e75" stroke="#586e75" d="M290,-108C290,-108 260,-108 260,-108 254,-108 248,-102 248,-96 248,-96 248,-84 248,-84 248,-78 254,-72 260,-72 260,-72 290,-72 290,-72 296,-72 302,-78 302,-84 302,-84 302,-96 302,-96 302,-102 296,-108 290,-108"/>
<text text-anchor="middle" x="275" y="-86.3" font-family="Inter,Arial" font-size="14.00" fill="#ffffff">A ✕ B</text>
</g>
<!-- AndA1B1 -->
<g id="node2" class="node value">
<title>AndA1B1</title>
<path fill="#ffffff" stroke="#586e75" d="M48,-36C48,-36 12,-36 12,-36 6,-36 0,-30 0,-24 0,-24 0,-12 0,-12 0,-6 6,0 12,0 12,0 48,0 48,0 54,0 60,-6 60,-12 60,-12 60,-24 60,-24 60,-30 54,-36 48,-36"/>
<text text-anchor="middle" x="30" y="-14.3" font-family="Inter,Arial" font-size="14.00" fill="#586e75">a₁ ✕ b₁</text>
</g>
<!-- AndAB&#45;&gt;AndA1B1 -->
<g id="edge1" class="edge">
<title>AndAB&#45;&gt;AndA1B1</title>
<path fill="none" stroke="#586e75" d="M247.93,-83.48C209.95,-75.42 138.64,-59.18 69.75,-35.98"/>
<polygon fill="#586e75" stroke="#586e75" points="70.64,-32.59 60.05,-32.66 68.37,-39.21 70.64,-32.59"/>
</g>
<!-- AndA1BE -->
<g id="node3" class="node value">
<title>AndA1BE</title>
<path fill="#ffffff" stroke="#586e75" d="M129.5,-36C129.5,-36 90.5,-36 90.5,-36 84.5,-36 78.5,-30 78.5,-24 78.5,-24 78.5,-12 78.5,-12 78.5,-6 84.5,0 90.5,0 90.5,0 129.5,0 129.5,0 135.5,0 141.5,-6 141.5,-12 141.5,-12 141.5,-24 141.5,-24 141.5,-30 135.5,-36 129.5,-36"/>
<text text-anchor="middle" x="110" y="-14.3" font-family="Inter,Arial" font-size="14.00" fill="#586e75">a₁ ✕ ⋯</text>
</g>
<!-- AndAB&#45;&gt;AndA1BE -->
<g id="edge2" class="edge">
<title>AndAB&#45;&gt;AndA1BE</title>
<path fill="none" stroke="#586e75" d="M247.75,-77.44C221.41,-66.26 181.14,-49.18 150.94,-36.37"/>
<polygon fill="#586e75" stroke="#586e75" points="152.09,-33.05 141.52,-32.37 149.36,-39.5 152.09,-33.05"/>
</g>
<!-- AndA1BN -->
<g id="node4" class="node value">
<title>AndA1BN</title>
<path fill="#ffffff" stroke="#586e75" d="M212,-36C212,-36 172,-36 172,-36 166,-36 160,-30 160,-24 160,-24 160,-12 160,-12 160,-6 166,0 172,0 172,0 212,0 212,0 218,0 224,-6 224,-12 224,-12 224,-24 224,-24 224,-30 218,-36 212,-36"/>
<text text-anchor="middle" x="192" y="-14.3" font-family="Inter,Arial" font-size="14.00" fill="#586e75">a₁ ✕ bₘ</text>
</g>
<!-- AndAB&#45;&gt;AndA1BN -->
<g id="edge3" class="edge">
<title>AndAB&#45;&gt;AndA1BN</title>
<path fill="none" stroke="#586e75" d="M254.48,-71.7C244.13,-62.97 231.41,-52.24 220.16,-42.75"/>
<polygon fill="#586e75" stroke="#586e75" points="222.18,-39.88 212.28,-36.1 217.67,-45.23 222.18,-39.88"/>
</g>
<!-- AndAEBE -->
<!-- AndAB&#45;&gt;AndAEBE -->
<!-- AndANB1 -->
<!-- AndAB&#45;&gt;AndANB1 -->
<!-- AndANBE -->
<!-- AndAB&#45;&gt;AndANBE -->
<!-- AndANBN -->
<!-- AndAB&#45;&gt;AndANBN -->
</g>
</svg>
