<?xml version="1.0" encoding="UTF-8" standalone="no"?>
<!DOCTYPE svg PUBLIC "-//W3C//DTD SVG 1.1//EN"
 "http://www.w3.org/Graphics/SVG/1.1/DTD/svg11.dtd">
<!-- Generated by graphviz version 2.43.0 (0)
 -->
<!-- Title: %3 Pages: 1 -->
<svg width="134pt" height="116pt"
 viewBox="0.00 0.00 134.00 116.00" xmlns="http://www.w3.org/2000/svg" xmlns:xlink="http://www.w3.org/1999/xlink">
<g id="graph0" class="graph" transform="scale(1 1) rotate(0) translate(4 112)">
<title>%3</title>
<!-- Boolean -->
<g id="node1" class="node">
<title>Boolean</title>
<path fill="#586e75" stroke="#586e75" d="M86,-108C86,-108 40,-108 40,-108 34,-108 28,-102 28,-96 28,-96 28,-84 28,-84 28,-78 34,-72 40,-72 40,-72 86,-72 86,-72 92,-72 98,-78 98,-84 98,-84 98,-96 98,-96 98,-102 92,-108 86,-108"/>
<text text-anchor="middle" x="63" y="-86.3" font-family="Inter,Arial" font-size="14.00" fill="#ffffff">Boolean</text>
</g>
<!-- true -->
<g id="node2" class="node value">
<title>true</title>
<path fill="#ffffff" stroke="#586e75" d="M42,-36C42,-36 12,-36 12,-36 6,-36 0,-30 0,-24 0,-24 0,-12 0,-12 0,-6 6,0 12,0 12,0 42,0 42,0 48,0 54,-6 54,-12 54,-12 54,-24 54,-24 54,-30 48,-36 42,-36"/>
<text text-anchor="middle" x="27" y="-14.3" font-family="Inter,Arial" font-size="14.00" fill="#586e75">true</text>
</g>
<!-- Boolean&#45;&gt;true -->
<g id="edge1" class="edge">
<title>Boolean&#45;&gt;true</title>
<path fill="none" stroke="#586e75" d="M54.1,-71.7C50,-63.73 45.05,-54.1 40.51,-45.26"/>
<polygon fill="#586e75" stroke="#586e75" points="43.48,-43.4 35.8,-36.1 37.26,-46.6 43.48,-43.4"/>
</g>
<!-- false -->
<!-- Boolean&#45;&gt;false -->
</g>
</svg>
