<?xml version="1.0" encoding="UTF-8" standalone="no"?>
<!DOCTYPE svg PUBLIC "-//W3C//DTD SVG 1.1//EN"
 "http://www.w3.org/Graphics/SVG/1.1/DTD/svg11.dtd">
<!-- Generated by graphviz version 2.43.0 (0)
 -->
<!-- Title: %3 Pages: 1 -->
<svg width="829pt" height="188pt"
 viewBox="0.00 0.00 829.00 188.00" xmlns="http://www.w3.org/2000/svg" xmlns:xlink="http://www.w3.org/1999/xlink">
<g id="graph0" class="graph" transform="scale(1 1) rotate(0) translate(4 184)">
<title>%3</title>
<!-- List -->
<g id="node1" class="node">
<title>List</title>
<path fill="#586e75" stroke="#586e75" d="M251,-180C251,-180 165,-180 165,-180 159,-180 153,-174 153,-168 153,-168 153,-156 153,-156 153,-150 159,-144 165,-144 165,-144 251,-144 251,-144 257,-144 263,-150 263,-156 263,-156 263,-168 263,-168 263,-174 257,-180 251,-180"/>
<text text-anchor="middle" x="208" y="-158.3" font-family="Inter,Arial" font-size="14.00" fill="#ffffff">List²[Boolean]</text>
</g>
<!-- List0 -->
<g id="node2" class="node">
<title>List0</title>
<path fill="#586e75" stroke="#586e75" d="M98,-108C98,-108 12,-108 12,-108 6,-108 0,-102 0,-96 0,-96 0,-84 0,-84 0,-78 6,-72 12,-72 12,-72 98,-72 98,-72 104,-72 110,-78 110,-84 110,-84 110,-96 110,-96 110,-102 104,-108 98,-108"/>
<text text-anchor="middle" x="55" y="-86.3" font-family="Inter,Arial" font-size="14.00" fill="#ffffff">List₀[Boolean]</text>
</g>
<!-- List&#45;&gt;List0 -->
<g id="edge1" class="edge">
<title>List&#45;&gt;List0</title>
<path fill="none" stroke="#586e75" d="M170.57,-143.88C149.75,-134.35 123.65,-122.41 101.52,-112.28"/>
<polygon fill="#586e75" stroke="#586e75" points="102.86,-109.05 92.31,-108.07 99.94,-115.41 102.86,-109.05"/>
</g>
<!-- List1 -->
<!-- List&#45;&gt;List1 -->
<!-- List2 -->
<!-- List&#45;&gt;List2 -->
<!-- Nil -->
<g id="node5" class="node value">
<title>Nil</title>
<path fill="#ffffff" stroke="#586e75" d="M57,-36C57,-36 27,-36 27,-36 21,-36 15,-30 15,-24 15,-24 15,-12 15,-12 15,-6 21,0 27,0 27,0 57,0 57,0 63,0 69,-6 69,-12 69,-12 69,-24 69,-24 69,-30 63,-36 57,-36"/>
<text text-anchor="middle" x="42" y="-14.3" font-family="Inter,Arial" font-size="14.00" fill="#586e75">Nil</text>
</g>
<!-- List0&#45;&gt;Nil -->
<g id="edge4" class="edge">
<title>List0&#45;&gt;Nil</title>
<path fill="none" stroke="#586e75" d="M51.79,-71.7C50.35,-63.98 48.63,-54.71 47.04,-46.11"/>
<polygon fill="#586e75" stroke="#586e75" points="50.44,-45.3 45.18,-36.1 43.56,-46.58 50.44,-45.3"/>
</g>
<!-- true -->
<!-- List1&#45;&gt;true -->
<!-- false -->
<!-- List1&#45;&gt;false -->
<!-- true_true -->
<!-- List2&#45;&gt;true_true -->
<!-- true_false -->
<!-- List2&#45;&gt;true_false -->
<!-- false_true -->
<!-- List2&#45;&gt;false_true -->
<!-- false_false -->
<!-- List2&#45;&gt;false_false -->
</g>
</svg>
