<?xml version="1.0" encoding="UTF-8" standalone="no"?>
<!DOCTYPE svg PUBLIC "-//W3C//DTD SVG 1.1//EN"
 "http://www.w3.org/Graphics/SVG/1.1/DTD/svg11.dtd">
<!-- Generated by graphviz version 2.43.0 (0)
 -->
<!-- Title: %3 Pages: 1 -->
<svg width="829pt" height="188pt"
 viewBox="0.00 0.00 829.00 188.00" xmlns="http://www.w3.org/2000/svg" xmlns:xlink="http://www.w3.org/1999/xlink">
<g id="graph0" class="graph" transform="scale(1 1) rotate(0) translate(4 184)">
<title>%3</title>
<!-- List -->
<g id="node1" class="node">
<title>List</title>
<path fill="#dddddd" stroke="#dddddd" d="M251,-180C251,-180 165,-180 165,-180 159,-180 153,-174 153,-168 153,-168 153,-156 153,-156 153,-150 159,-144 165,-144 165,-144 251,-144 251,-144 257,-144 263,-150 263,-156 263,-156 263,-168 263,-168 263,-174 257,-180 251,-180"/>
<text text-anchor="middle" x="208" y="-158.3" font-family="Inter,Arial" font-size="14.00" fill="#eeeeee">List²[Boolean]</text>
</g>
<!-- List0 -->
<g id="node2" class="node">
<title>List0</title>
<path fill="#dddddd" stroke="#dddddd" d="M98,-108C98,-108 12,-108 12,-108 6,-108 0,-102 0,-96 0,-96 0,-84 0,-84 0,-78 6,-72 12,-72 12,-72 98,-72 98,-72 104,-72 110,-78 110,-84 110,-84 110,-96 110,-96 110,-102 104,-108 98,-108"/>
<text text-anchor="middle" x="55" y="-86.3" font-family="Inter,Arial" font-size="14.00" fill="#eeeeee">List₀[Boolean]</text>
</g>
<!-- List&#45;&gt;List0 -->
<g id="edge1" class="edge">
<title>List&#45;&gt;List0</title>
<path fill="none" stroke="#dddddd" d="M170.57,-143.88C149.75,-134.35 123.65,-122.41 101.52,-112.28"/>
<polygon fill="#dddddd" stroke="#dddddd" points="102.86,-109.05 92.31,-108.07 99.94,-115.41 102.86,-109.05"/>
</g>
<!-- List1 -->
<g id="node3" class="node">
<title>List1</title>
<path fill="#dddddd" stroke="#dddddd" d="M250.5,-108C250.5,-108 165.5,-108 165.5,-108 159.5,-108 153.5,-102 153.5,-96 153.5,-96 153.5,-84 153.5,-84 153.5,-78 159.5,-72 165.5,-72 165.5,-72 250.5,-72 250.5,-72 256.5,-72 262.5,-78 262.5,-84 262.5,-84 262.5,-96 262.5,-96 262.5,-102 256.5,-108 250.5,-108"/>
<text text-anchor="middle" x="208" y="-86.3" font-family="Inter,Arial" font-size="14.00" fill="#eeeeee">List₁[Boolean]</text>
</g>
<!-- List&#45;&gt;List1 -->
<g id="edge2" class="edge">
<title>List&#45;&gt;List1</title>
<path fill="none" stroke="#dddddd" d="M208,-143.7C208,-135.98 208,-126.71 208,-118.11"/>
<polygon fill="#dddddd" stroke="#dddddd" points="211.5,-118.1 208,-108.1 204.5,-118.1 211.5,-118.1"/>
</g>
<!-- List2 -->
<g id="node4" class="node">
<title>List2</title>
<path fill="#dddddd" stroke="#dddddd" d="M519,-108C519,-108 433,-108 433,-108 427,-108 421,-102 421,-96 421,-96 421,-84 421,-84 421,-78 427,-72 433,-72 433,-72 519,-72 519,-72 525,-72 531,-78 531,-84 531,-84 531,-96 531,-96 531,-102 525,-108 519,-108"/>
<text text-anchor="middle" x="476" y="-86.3" font-family="Inter,Arial" font-size="14.00" fill="#eeeeee">List₂[Boolean]</text>
</g>
<!-- List&#45;&gt;List2 -->
<g id="edge3" class="edge">
<title>List&#45;&gt;List2</title>
<path fill="none" stroke="#dddddd" d="M263.2,-146.58C306.17,-135.36 365.91,-119.76 411.15,-107.94"/>
<polygon fill="#dddddd" stroke="#dddddd" points="412.08,-111.31 420.87,-105.4 410.31,-104.54 412.08,-111.31"/>
</g>
<!-- Nil -->
<g id="node5" class="node">
<title>Nil</title>
<path fill="#ffffff" stroke="#586e75" d="M57,-36C57,-36 27,-36 27,-36 21,-36 15,-30 15,-24 15,-24 15,-12 15,-12 15,-6 21,0 27,0 27,0 57,0 57,0 63,0 69,-6 69,-12 69,-12 69,-24 69,-24 69,-30 63,-36 57,-36"/>
<text text-anchor="middle" x="42" y="-14.3" font-family="Inter,Arial" font-size="14.00" fill="#586e75">Nil</text>
</g>
<!-- List0&#45;&gt;Nil -->
<g id="edge4" class="edge">
<title>List0&#45;&gt;Nil</title>
<path fill="none" stroke="#dddddd" d="M51.79,-71.7C50.35,-63.98 48.63,-54.71 47.04,-46.11"/>
<polygon fill="#dddddd" stroke="#dddddd" points="50.44,-45.3 45.18,-36.1 43.56,-46.58 50.44,-45.3"/>
</g>
<!-- true -->
<g id="node6" class="node">
<title>true</title>
<path fill="#ffffff" stroke="#586e75" d="M150.5,-36C150.5,-36 99.5,-36 99.5,-36 93.5,-36 87.5,-30 87.5,-24 87.5,-24 87.5,-12 87.5,-12 87.5,-6 93.5,0 99.5,0 99.5,0 150.5,0 150.5,0 156.5,0 162.5,-6 162.5,-12 162.5,-12 162.5,-24 162.5,-24 162.5,-30 156.5,-36 150.5,-36"/>
<text text-anchor="middle" x="125" y="-14.3" font-family="Inter,Arial" font-size="14.00" fill="#586e75">true :: Nil</text>
</g>
<!-- List1&#45;&gt;true -->
<g id="edge5" class="edge">
<title>List1&#45;&gt;true</title>
<path fill="none" stroke="#dddddd" d="M187.48,-71.7C177.13,-62.97 164.41,-52.24 153.16,-42.75"/>
<polygon fill="#dddddd" stroke="#dddddd" points="155.18,-39.88 145.28,-36.1 150.67,-45.23 155.18,-39.88"/>
</g>
<!-- false -->
<g id="node7" class="node">
<title>false</title>
<path fill="#ffffff" stroke="#586e75" d="M249,-36C249,-36 193,-36 193,-36 187,-36 181,-30 181,-24 181,-24 181,-12 181,-12 181,-6 187,0 193,0 193,0 249,0 249,0 255,0 261,-6 261,-12 261,-12 261,-24 261,-24 261,-30 255,-36 249,-36"/>
<text text-anchor="middle" x="221" y="-14.3" font-family="Inter,Arial" font-size="14.00" fill="#586e75">false :: Nil</text>
</g>
<!-- List1&#45;&gt;false -->
<g id="edge6" class="edge">
<title>List1&#45;&gt;false</title>
<path fill="none" stroke="#dddddd" d="M211.21,-71.7C212.65,-63.98 214.37,-54.71 215.96,-46.11"/>
<polygon fill="#dddddd" stroke="#dddddd" points="219.44,-46.58 217.82,-36.1 212.56,-45.3 219.44,-46.58"/>
</g>
<!-- true_true -->
<g id="node8" class="node">
<title>true_true</title>
<path fill="#ffffff" stroke="#586e75" d="M384.5,-36C384.5,-36 291.5,-36 291.5,-36 285.5,-36 279.5,-30 279.5,-24 279.5,-24 279.5,-12 279.5,-12 279.5,-6 285.5,0 291.5,0 291.5,0 384.5,0 384.5,0 390.5,0 396.5,-6 396.5,-12 396.5,-12 396.5,-24 396.5,-24 396.5,-30 390.5,-36 384.5,-36"/>
<text text-anchor="middle" x="338" y="-14.3" font-family="Inter,Arial" font-size="14.00" fill="#586e75">true :: true :: Nil</text>
</g>
<!-- List2&#45;&gt;true_true -->
<g id="edge7" class="edge">
<title>List2&#45;&gt;true_true</title>
<path fill="none" stroke="#dddddd" d="M442.24,-71.88C423.78,-62.51 400.72,-50.81 380.98,-40.8"/>
<polygon fill="#dddddd" stroke="#dddddd" points="382.39,-37.59 371.89,-36.19 379.22,-43.83 382.39,-37.59"/>
</g>
<!-- true_false -->
<g id="node9" class="node">
<title>true_false</title>
<path fill="#ffffff" stroke="#586e75" d="M525,-36C525,-36 427,-36 427,-36 421,-36 415,-30 415,-24 415,-24 415,-12 415,-12 415,-6 421,0 427,0 427,0 525,0 525,0 531,0 537,-6 537,-12 537,-12 537,-24 537,-24 537,-30 531,-36 525,-36"/>
<text text-anchor="middle" x="476" y="-14.3" font-family="Inter,Arial" font-size="14.00" fill="#586e75">true :: false :: Nil</text>
</g>
<!-- List2&#45;&gt;true_false -->
<g id="edge8" class="edge">
<title>List2&#45;&gt;true_false</title>
<path fill="none" stroke="#dddddd" d="M476,-71.7C476,-63.98 476,-54.71 476,-46.11"/>
<polygon fill="#dddddd" stroke="#dddddd" points="479.5,-46.1 476,-36.1 472.5,-46.1 479.5,-46.1"/>
</g>
<!-- false_true -->
<g id="node10" class="node">
<title>false_true</title>
<path fill="#ffffff" stroke="#586e75" d="M665,-36C665,-36 567,-36 567,-36 561,-36 555,-30 555,-24 555,-24 555,-12 555,-12 555,-6 561,0 567,0 567,0 665,0 665,0 671,0 677,-6 677,-12 677,-12 677,-24 677,-24 677,-30 671,-36 665,-36"/>
<text text-anchor="middle" x="616" y="-14.3" font-family="Inter,Arial" font-size="14.00" fill="#586e75">false :: true :: Nil</text>
</g>
<!-- List2&#45;&gt;false_true -->
<g id="edge9" class="edge">
<title>List2&#45;&gt;false_true</title>
<path fill="none" stroke="#dddddd" d="M510.25,-71.88C529.06,-62.47 552.58,-50.71 572.67,-40.67"/>
<polygon fill="#dddddd" stroke="#dddddd" points="574.24,-43.79 581.62,-36.19 571.11,-37.53 574.24,-43.79"/>
</g>
<!-- false_false -->
<g id="node11" class="node">
<title>false_false</title>
<path fill="#ffffff" stroke="#586e75" d="M809,-36C809,-36 707,-36 707,-36 701,-36 695,-30 695,-24 695,-24 695,-12 695,-12 695,-6 701,0 707,0 707,0 809,0 809,0 815,0 821,-6 821,-12 821,-12 821,-24 821,-24 821,-30 815,-36 809,-36"/>
<text text-anchor="middle" x="758" y="-14.3" font-family="Inter,Arial" font-size="14.00" fill="#586e75">false :: false :: Nil</text>
</g>
<!-- List2&#45;&gt;false_false -->
<g id="edge10" class="edge">
<title>List2&#45;&gt;false_false</title>
<path fill="none" stroke="#dddddd" d="M531.04,-75.34C575.05,-64.41 637.14,-49 685.25,-37.06"/>
<polygon fill="#dddddd" stroke="#dddddd" points="686.12,-40.45 694.98,-34.64 684.43,-33.66 686.12,-40.45"/>
</g>
</g>
</svg>
