<?xml version="1.0" encoding="UTF-8" standalone="no"?>
<!DOCTYPE svg PUBLIC "-//W3C//DTD SVG 1.1//EN"
 "http://www.w3.org/Graphics/SVG/1.1/DTD/svg11.dtd">
<!-- Generated by graphviz version 2.43.0 (0)
 -->
<!-- Title: %3 Pages: 1 -->
<svg width="495pt" height="116pt"
 viewBox="0.00 0.00 494.50 116.00" xmlns="http://www.w3.org/2000/svg" xmlns:xlink="http://www.w3.org/1999/xlink">
<g id="graph0" class="graph" transform="scale(1 1) rotate(0) translate(4 112)">
<title>%3</title>
<!-- OrAB -->
<g id="node1" class="node">
<title>OrAB</title>
<path fill="#586e75" stroke="#586e75" d="M245,-108C245,-108 215,-108 215,-108 209,-108 203,-102 203,-96 203,-96 203,-84 203,-84 203,-78 209,-72 215,-72 215,-72 245,-72 245,-72 251,-72 257,-78 257,-84 257,-84 257,-96 257,-96 257,-102 251,-108 245,-108"/>
<text text-anchor="middle" x="230" y="-86.3" font-family="Inter,Arial" font-size="14.00" fill="#ffffff">A + B</text>
</g>
<!-- LeftA1 -->
<g id="node2" class="node value">
<title>LeftA1</title>
<path fill="#ffffff" stroke="#586e75" d="M48,-36C48,-36 12,-36 12,-36 6,-36 0,-30 0,-24 0,-24 0,-12 0,-12 0,-6 6,0 12,0 12,0 48,0 48,0 54,0 60,-6 60,-12 60,-12 60,-24 60,-24 60,-30 54,-36 48,-36"/>
<text text-anchor="middle" x="30" y="-14.3" font-family="Inter,Arial" font-size="14.00" fill="#586e75">Left(a₁)</text>
</g>
<!-- OrAB&#45;&gt;LeftA1 -->
<g id="edge1" class="edge">
<title>OrAB&#45;&gt;LeftA1</title>
<path fill="none" stroke="#586e75" d="M202.95,-80.94C172.57,-71.7 121.65,-55.68 69.52,-36.04"/>
<polygon fill="#586e75" stroke="#586e75" points="70.71,-32.74 60.12,-32.46 68.22,-39.29 70.71,-32.74"/>
</g>
<!-- LeftAE -->
<g id="node3" class="node value">
<title>LeftAE</title>
<path fill="#ffffff" stroke="#586e75" d="M128,-36C128,-36 90,-36 90,-36 84,-36 78,-30 78,-24 78,-24 78,-12 78,-12 78,-6 84,0 90,0 90,0 128,0 128,0 134,0 140,-6 140,-12 140,-12 140,-24 140,-24 140,-30 134,-36 128,-36"/>
<text text-anchor="middle" x="109" y="-14.3" font-family="Inter,Arial" font-size="14.00" fill="#586e75">Left(⋯)</text>
</g>
<!-- OrAB&#45;&gt;LeftAE -->
<g id="edge2" class="edge">
<title>OrAB&#45;&gt;LeftAE</title>
<path fill="none" stroke="#586e75" d="M202.85,-73.29C186.59,-63.89 165.66,-51.78 147.69,-41.38"/>
<polygon fill="#586e75" stroke="#586e75" points="149.01,-38.11 138.61,-36.13 145.51,-44.16 149.01,-38.11"/>
</g>
<!-- LeftAN -->
<g id="node4" class="node value">
<title>LeftAN</title>
<path fill="#ffffff" stroke="#586e75" d="M207.5,-36C207.5,-36 170.5,-36 170.5,-36 164.5,-36 158.5,-30 158.5,-24 158.5,-24 158.5,-12 158.5,-12 158.5,-6 164.5,0 170.5,0 170.5,0 207.5,0 207.5,0 213.5,0 219.5,-6 219.5,-12 219.5,-12 219.5,-24 219.5,-24 219.5,-30 213.5,-36 207.5,-36"/>
<text text-anchor="middle" x="189" y="-14.3" font-family="Inter,Arial" font-size="14.00" fill="#586e75">Left(aₙ)</text>
</g>
<!-- OrAB&#45;&gt;LeftAN -->
<g id="edge3" class="edge">
<title>OrAB&#45;&gt;LeftAN</title>
<path fill="none" stroke="#586e75" d="M219.87,-71.7C215.15,-63.64 209.44,-53.89 204.22,-44.98"/>
<polygon fill="#586e75" stroke="#586e75" points="207.09,-42.96 199.02,-36.1 201.05,-46.5 207.09,-42.96"/>
</g>
<!-- RightB1 -->
<!-- OrAB&#45;&gt;RightB1 -->
<!-- RightBE -->
<!-- OrAB&#45;&gt;RightBE -->
<!-- RightBN -->
<!-- OrAB&#45;&gt;RightBN -->
</g>
</svg>
