<?xml version="1.0" encoding="UTF-8" standalone="no"?>
<!DOCTYPE svg PUBLIC "-//W3C//DTD SVG 1.1//EN"
 "http://www.w3.org/Graphics/SVG/1.1/DTD/svg11.dtd">
<!-- Generated by graphviz version 2.43.0 (0)
 -->
<!-- Title: %3 Pages: 1 -->
<svg width="528pt" height="116pt"
 viewBox="0.00 0.00 527.50 116.00" xmlns="http://www.w3.org/2000/svg" xmlns:xlink="http://www.w3.org/1999/xlink">
<g id="graph0" class="graph" transform="scale(1 1) rotate(0) translate(4 112)">
<title>%3</title>
<!-- OrAB -->
<g id="node1" class="node">
<title>OrAB</title>
<path fill="#586e75" stroke="#586e75" d="M265,-108C265,-108 234,-108 234,-108 228,-108 222,-102 222,-96 222,-96 222,-84 222,-84 222,-78 228,-72 234,-72 234,-72 265,-72 265,-72 271,-72 277,-78 277,-84 277,-84 277,-96 277,-96 277,-102 271,-108 265,-108"/>
<text text-anchor="middle" x="249.5" y="-86.3" font-family="Inter,Arial" font-size="14.00" fill="#ffffff">A ⋁ B</text>
</g>
<!-- LeftA1 -->
<g id="node2" class="node">
<title>LeftA1</title>
<path fill="#ffffff" stroke="#586e75" d="M55,-36C55,-36 12,-36 12,-36 6,-36 0,-30 0,-24 0,-24 0,-12 0,-12 0,-6 6,0 12,0 12,0 55,0 55,0 61,0 67,-6 67,-12 67,-12 67,-24 67,-24 67,-30 61,-36 55,-36"/>
<text text-anchor="middle" x="33.5" y="-14.3" font-family="Inter,Arial" font-size="14.00" fill="#586e75">Left(a₁)</text>
</g>
<!-- OrAB&#45;&gt;LeftA1 -->
<g id="edge1" class="edge">
<title>OrAB&#45;&gt;LeftA1</title>
<path fill="none" stroke="#586e75" d="M221.72,-81.22C189.17,-71.95 133.47,-55.6 76.69,-35.93"/>
<polygon fill="#586e75" stroke="#586e75" points="77.8,-32.61 67.21,-32.62 75.49,-39.22 77.8,-32.61"/>
</g>
<!-- LeftAE -->
<g id="node3" class="node">
<title>LeftAE</title>
<path fill="#ffffff" stroke="#586e75" d="M141.5,-36C141.5,-36 97.5,-36 97.5,-36 91.5,-36 85.5,-30 85.5,-24 85.5,-24 85.5,-12 85.5,-12 85.5,-6 91.5,0 97.5,0 97.5,0 141.5,0 141.5,0 147.5,0 153.5,-6 153.5,-12 153.5,-12 153.5,-24 153.5,-24 153.5,-30 147.5,-36 141.5,-36"/>
<text text-anchor="middle" x="119.5" y="-14.3" font-family="Inter,Arial" font-size="14.00" fill="#586e75">Left(⋯)</text>
</g>
<!-- OrAB&#45;&gt;LeftAE -->
<g id="edge2" class="edge">
<title>OrAB&#45;&gt;LeftAE</title>
<path fill="none" stroke="#586e75" d="M221.93,-74.15C203.96,-64.48 180.21,-51.69 160.1,-40.86"/>
<polygon fill="#586e75" stroke="#586e75" points="161.61,-37.7 151.15,-36.04 158.29,-43.86 161.61,-37.7"/>
</g>
<!-- LeftAN -->
<g id="node4" class="node">
<title>LeftAN</title>
<path fill="#ffffff" stroke="#586e75" d="M227.5,-36C227.5,-36 183.5,-36 183.5,-36 177.5,-36 171.5,-30 171.5,-24 171.5,-24 171.5,-12 171.5,-12 171.5,-6 177.5,0 183.5,0 183.5,0 227.5,0 227.5,0 233.5,0 239.5,-6 239.5,-12 239.5,-12 239.5,-24 239.5,-24 239.5,-30 233.5,-36 227.5,-36"/>
<text text-anchor="middle" x="205.5" y="-14.3" font-family="Inter,Arial" font-size="14.00" fill="#586e75">Left(aₙ)</text>
</g>
<!-- OrAB&#45;&gt;LeftAN -->
<g id="edge3" class="edge">
<title>OrAB&#45;&gt;LeftAN</title>
<path fill="none" stroke="#586e75" d="M238.62,-71.7C233.51,-63.56 227.3,-53.69 221.66,-44.7"/>
<polygon fill="#586e75" stroke="#586e75" points="224.54,-42.71 216.25,-36.1 218.61,-46.43 224.54,-42.71"/>
</g>
<!-- RightB1 -->
<!-- OrAB&#45;&gt;RightB1 -->
<!-- RightBE -->
<!-- OrAB&#45;&gt;RightBE -->
<!-- RightBN -->
<!-- OrAB&#45;&gt;RightBN -->
</g>
</svg>
