<?xml version="1.0" encoding="UTF-8" standalone="no"?>
<!DOCTYPE svg PUBLIC "-//W3C//DTD SVG 1.1//EN"
 "http://www.w3.org/Graphics/SVG/1.1/DTD/svg11.dtd">
<!-- Generated by graphviz version 2.43.0 (0)
 -->
<!-- Title: %3 Pages: 1 -->
<svg width="534pt" height="116pt"
 viewBox="0.00 0.00 534.00 116.00" xmlns="http://www.w3.org/2000/svg" xmlns:xlink="http://www.w3.org/1999/xlink">
<g id="graph0" class="graph" transform="scale(1 1) rotate(0) translate(4 112)">
<title>%3</title>
<!-- OrAB -->
<g id="node1" class="node">
<title>OrAB</title>
<path fill="#dddddd" stroke="#dddddd" d="M267.5,-108C267.5,-108 236.5,-108 236.5,-108 230.5,-108 224.5,-102 224.5,-96 224.5,-96 224.5,-84 224.5,-84 224.5,-78 230.5,-72 236.5,-72 236.5,-72 267.5,-72 267.5,-72 273.5,-72 279.5,-78 279.5,-84 279.5,-84 279.5,-96 279.5,-96 279.5,-102 273.5,-108 267.5,-108"/>
<text text-anchor="middle" x="252" y="-86.3" font-family="Inter,Arial" font-size="14.00" fill="#eeeeee">A ⋁ B</text>
</g>
<!-- LeftA1 -->
<g id="node2" class="node">
<title>LeftA1</title>
<path fill="#ffffff" stroke="#586e75" d="M56,-36C56,-36 12,-36 12,-36 6,-36 0,-30 0,-24 0,-24 0,-12 0,-12 0,-6 6,0 12,0 12,0 56,0 56,0 62,0 68,-6 68,-12 68,-12 68,-24 68,-24 68,-30 62,-36 56,-36"/>
<text text-anchor="middle" x="34" y="-14.3" font-family="Inter,Arial" font-size="14.00" fill="#586e75">Left(a1)</text>
</g>
<!-- OrAB&#45;&gt;LeftA1 -->
<g id="edge1" class="edge">
<title>OrAB&#45;&gt;LeftA1</title>
<path fill="none" stroke="#dddddd" d="M224.49,-81.43C191.66,-72.23 134.95,-55.82 77.73,-36.12"/>
<polygon fill="#dddddd" stroke="#dddddd" points="78.77,-32.78 68.17,-32.8 76.47,-39.39 78.77,-32.78"/>
</g>
<!-- LeftAE -->
<g id="node3" class="node">
<title>LeftAE</title>
<path fill="#ffffff" stroke="#586e75" d="M139.5,-36C139.5,-36 98.5,-36 98.5,-36 92.5,-36 86.5,-30 86.5,-24 86.5,-24 86.5,-12 86.5,-12 86.5,-6 92.5,0 98.5,0 98.5,0 139.5,0 139.5,0 145.5,0 151.5,-6 151.5,-12 151.5,-12 151.5,-24 151.5,-24 151.5,-30 145.5,-36 139.5,-36"/>
<text text-anchor="middle" x="119" y="-14.3" font-family="Inter,Arial" font-size="14.00" fill="#586e75">Left(...)</text>
</g>
<!-- OrAB&#45;&gt;LeftAE -->
<g id="edge2" class="edge">
<title>OrAB&#45;&gt;LeftAE</title>
<path fill="none" stroke="#dddddd" d="M224.44,-74.5C206.02,-64.8 181.43,-51.86 160.64,-40.91"/>
<polygon fill="#dddddd" stroke="#dddddd" points="162.17,-37.76 151.69,-36.2 158.91,-43.96 162.17,-37.76"/>
</g>
<!-- LeftAN -->
<g id="node4" class="node">
<title>LeftAN</title>
<path fill="#ffffff" stroke="#586e75" d="M230.5,-36C230.5,-36 181.5,-36 181.5,-36 175.5,-36 169.5,-30 169.5,-24 169.5,-24 169.5,-12 169.5,-12 169.5,-6 175.5,0 181.5,0 181.5,0 230.5,0 230.5,0 236.5,0 242.5,-6 242.5,-12 242.5,-12 242.5,-24 242.5,-24 242.5,-30 236.5,-36 230.5,-36"/>
<text text-anchor="middle" x="206" y="-14.3" font-family="Inter,Arial" font-size="14.00" fill="#586e75">Left(aN)</text>
</g>
<!-- OrAB&#45;&gt;LeftAN -->
<g id="edge3" class="edge">
<title>OrAB&#45;&gt;LeftAN</title>
<path fill="none" stroke="#dddddd" d="M240.63,-71.7C235.28,-63.56 228.8,-53.69 222.89,-44.7"/>
<polygon fill="#dddddd" stroke="#dddddd" points="225.66,-42.54 217.24,-36.1 219.81,-46.38 225.66,-42.54"/>
</g>
<!-- RightB1 -->
<g id="node5" class="node">
<title>RightB1</title>
<path fill="#ffffff" stroke="#dddddd" d="M325.5,-36C325.5,-36 272.5,-36 272.5,-36 266.5,-36 260.5,-30 260.5,-24 260.5,-24 260.5,-12 260.5,-12 260.5,-6 266.5,0 272.5,0 272.5,0 325.5,0 325.5,0 331.5,0 337.5,-6 337.5,-12 337.5,-12 337.5,-24 337.5,-24 337.5,-30 331.5,-36 325.5,-36"/>
<text text-anchor="middle" x="299" y="-14.3" font-family="Inter,Arial" font-size="14.00" fill="#eeeeee">Right(b1)</text>
</g>
<!-- OrAB&#45;&gt;RightB1 -->
<g id="edge4" class="edge">
<title>OrAB&#45;&gt;RightB1</title>
<path fill="none" stroke="#dddddd" d="M263.62,-71.7C269.14,-63.47 275.85,-53.48 281.93,-44.42"/>
<polygon fill="#dddddd" stroke="#dddddd" points="284.85,-46.36 287.52,-36.1 279.04,-42.46 284.85,-46.36"/>
</g>
<!-- RightBE -->
<g id="node6" class="node">
<title>RightBE</title>
<path fill="#ffffff" stroke="#dddddd" d="M416,-36C416,-36 368,-36 368,-36 362,-36 356,-30 356,-24 356,-24 356,-12 356,-12 356,-6 362,0 368,0 368,0 416,0 416,0 422,0 428,-6 428,-12 428,-12 428,-24 428,-24 428,-30 422,-36 416,-36"/>
<text text-anchor="middle" x="392" y="-14.3" font-family="Inter,Arial" font-size="14.00" fill="#eeeeee">Right(...)</text>
</g>
<!-- OrAB&#45;&gt;RightBE -->
<g id="edge5" class="edge">
<title>OrAB&#45;&gt;RightBE</title>
<path fill="none" stroke="#dddddd" d="M279.66,-75.17C299.41,-65.29 326.36,-51.82 348.92,-40.54"/>
<polygon fill="#dddddd" stroke="#dddddd" points="350.58,-43.62 357.96,-36.02 347.45,-37.36 350.58,-43.62"/>
</g>
<!-- RightBN -->
<g id="node7" class="node">
<title>RightBN</title>
<path fill="#ffffff" stroke="#dddddd" d="M514,-36C514,-36 458,-36 458,-36 452,-36 446,-30 446,-24 446,-24 446,-12 446,-12 446,-6 452,0 458,0 458,0 514,0 514,0 520,0 526,-6 526,-12 526,-12 526,-24 526,-24 526,-30 520,-36 514,-36"/>
<text text-anchor="middle" x="486" y="-14.3" font-family="Inter,Arial" font-size="14.00" fill="#eeeeee">Right(bN)</text>
</g>
<!-- OrAB&#45;&gt;RightBN -->
<g id="edge6" class="edge">
<title>OrAB&#45;&gt;RightBN</title>
<path fill="none" stroke="#dddddd" d="M279.72,-81.57C314.18,-72.22 374.99,-55.36 436.14,-36.19"/>
<polygon fill="#dddddd" stroke="#dddddd" points="437.47,-39.44 445.95,-33.1 435.36,-32.77 437.47,-39.44"/>
</g>
</g>
</svg>
