<?xml version="1.0" encoding="UTF-8" standalone="no"?>
<!DOCTYPE svg PUBLIC "-//W3C//DTD SVG 1.1//EN"
 "http://www.w3.org/Graphics/SVG/1.1/DTD/svg11.dtd">
<!-- Generated by graphviz version 2.43.0 (0)
 -->
<!-- Title: %3 Pages: 1 -->
<svg width="528pt" height="116pt"
 viewBox="0.00 0.00 527.50 116.00" xmlns="http://www.w3.org/2000/svg" xmlns:xlink="http://www.w3.org/1999/xlink">
<g id="graph0" class="graph" transform="scale(1 1) rotate(0) translate(4 112)">
<title>%3</title>
<!-- OrAB -->
<g id="node1" class="node">
<title>OrAB</title>
<path fill="#dddddd" stroke="#dddddd" d="M265,-108C265,-108 234,-108 234,-108 228,-108 222,-102 222,-96 222,-96 222,-84 222,-84 222,-78 228,-72 234,-72 234,-72 265,-72 265,-72 271,-72 277,-78 277,-84 277,-84 277,-96 277,-96 277,-102 271,-108 265,-108"/>
<text text-anchor="middle" x="249.5" y="-86.3" font-family="Inter,Arial" font-size="14.00" fill="#eeeeee">A ⋁ B</text>
</g>
<!-- LeftA1 -->
<g id="node2" class="node">
<title>LeftA1</title>
<path fill="#ffffff" stroke="#586e75" d="M55,-36C55,-36 12,-36 12,-36 6,-36 0,-30 0,-24 0,-24 0,-12 0,-12 0,-6 6,0 12,0 12,0 55,0 55,0 61,0 67,-6 67,-12 67,-12 67,-24 67,-24 67,-30 61,-36 55,-36"/>
<text text-anchor="middle" x="33.5" y="-14.3" font-family="Inter,Arial" font-size="14.00" fill="#586e75">Left(a₁)</text>
</g>
<!-- OrAB&#45;&gt;LeftA1 -->
<g id="edge1" class="edge">
<title>OrAB&#45;&gt;LeftA1</title>
<path fill="none" stroke="#dddddd" d="M221.72,-81.22C189.17,-71.95 133.47,-55.6 76.69,-35.93"/>
<polygon fill="#dddddd" stroke="#dddddd" points="77.8,-32.61 67.21,-32.62 75.49,-39.22 77.8,-32.61"/>
</g>
<!-- LeftAE -->
<g id="node3" class="node">
<title>LeftAE</title>
<path fill="#ffffff" stroke="#586e75" d="M141.5,-36C141.5,-36 97.5,-36 97.5,-36 91.5,-36 85.5,-30 85.5,-24 85.5,-24 85.5,-12 85.5,-12 85.5,-6 91.5,0 97.5,0 97.5,0 141.5,0 141.5,0 147.5,0 153.5,-6 153.5,-12 153.5,-12 153.5,-24 153.5,-24 153.5,-30 147.5,-36 141.5,-36"/>
<text text-anchor="middle" x="119.5" y="-14.3" font-family="Inter,Arial" font-size="14.00" fill="#586e75">Left(⋯)</text>
</g>
<!-- OrAB&#45;&gt;LeftAE -->
<g id="edge2" class="edge">
<title>OrAB&#45;&gt;LeftAE</title>
<path fill="none" stroke="#dddddd" d="M221.93,-74.15C203.96,-64.48 180.21,-51.69 160.1,-40.86"/>
<polygon fill="#dddddd" stroke="#dddddd" points="161.61,-37.7 151.15,-36.04 158.29,-43.86 161.61,-37.7"/>
</g>
<!-- LeftAN -->
<g id="node4" class="node">
<title>LeftAN</title>
<path fill="#ffffff" stroke="#586e75" d="M227.5,-36C227.5,-36 183.5,-36 183.5,-36 177.5,-36 171.5,-30 171.5,-24 171.5,-24 171.5,-12 171.5,-12 171.5,-6 177.5,0 183.5,0 183.5,0 227.5,0 227.5,0 233.5,0 239.5,-6 239.5,-12 239.5,-12 239.5,-24 239.5,-24 239.5,-30 233.5,-36 227.5,-36"/>
<text text-anchor="middle" x="205.5" y="-14.3" font-family="Inter,Arial" font-size="14.00" fill="#586e75">Left(aₙ)</text>
</g>
<!-- OrAB&#45;&gt;LeftAN -->
<g id="edge3" class="edge">
<title>OrAB&#45;&gt;LeftAN</title>
<path fill="none" stroke="#dddddd" d="M238.62,-71.7C233.51,-63.56 227.3,-53.69 221.66,-44.7"/>
<polygon fill="#dddddd" stroke="#dddddd" points="224.54,-42.71 216.25,-36.1 218.61,-46.43 224.54,-42.71"/>
</g>
<!-- RightB1 -->
<g id="node5" class="node">
<title>RightB1</title>
<path fill="#ffffff" stroke="#dddddd" d="M319.5,-36C319.5,-36 269.5,-36 269.5,-36 263.5,-36 257.5,-30 257.5,-24 257.5,-24 257.5,-12 257.5,-12 257.5,-6 263.5,0 269.5,0 269.5,0 319.5,0 319.5,0 325.5,0 331.5,-6 331.5,-12 331.5,-12 331.5,-24 331.5,-24 331.5,-30 325.5,-36 319.5,-36"/>
<text text-anchor="middle" x="294.5" y="-14.3" font-family="Inter,Arial" font-size="14.00" fill="#eeeeee">Right(b₁)</text>
</g>
<!-- OrAB&#45;&gt;RightB1 -->
<g id="edge4" class="edge">
<title>OrAB&#45;&gt;RightB1</title>
<path fill="none" stroke="#dddddd" d="M260.62,-71.7C265.86,-63.56 272.2,-53.69 277.98,-44.7"/>
<polygon fill="#dddddd" stroke="#dddddd" points="281.04,-46.41 283.5,-36.1 275.15,-42.62 281.04,-46.41"/>
</g>
<!-- RightBE -->
<g id="node6" class="node">
<title>RightBE</title>
<path fill="#ffffff" stroke="#dddddd" d="M413,-36C413,-36 362,-36 362,-36 356,-36 350,-30 350,-24 350,-24 350,-12 350,-12 350,-6 356,0 362,0 362,0 413,0 413,0 419,0 425,-6 425,-12 425,-12 425,-24 425,-24 425,-30 419,-36 413,-36"/>
<text text-anchor="middle" x="387.5" y="-14.3" font-family="Inter,Arial" font-size="14.00" fill="#eeeeee">Right(⋯)</text>
</g>
<!-- OrAB&#45;&gt;RightBE -->
<g id="edge5" class="edge">
<title>OrAB&#45;&gt;RightBE</title>
<path fill="none" stroke="#dddddd" d="M277.09,-75C296.43,-65.19 322.66,-51.89 344.7,-40.71"/>
<polygon fill="#dddddd" stroke="#dddddd" points="346.52,-43.71 353.86,-36.07 343.35,-37.47 346.52,-43.71"/>
</g>
<!-- RightBN -->
<g id="node7" class="node">
<title>RightBN</title>
<path fill="#ffffff" stroke="#dddddd" d="M507.5,-36C507.5,-36 455.5,-36 455.5,-36 449.5,-36 443.5,-30 443.5,-24 443.5,-24 443.5,-12 443.5,-12 443.5,-6 449.5,0 455.5,0 455.5,0 507.5,0 507.5,0 513.5,0 519.5,-6 519.5,-12 519.5,-12 519.5,-24 519.5,-24 519.5,-30 513.5,-36 507.5,-36"/>
<text text-anchor="middle" x="481.5" y="-14.3" font-family="Inter,Arial" font-size="14.00" fill="#eeeeee">Right(bₙ)</text>
</g>
<!-- OrAB&#45;&gt;RightBN -->
<g id="edge6" class="edge">
<title>OrAB&#45;&gt;RightBN</title>
<path fill="none" stroke="#dddddd" d="M277.26,-81.68C311.76,-72.45 372.61,-55.71 433.57,-36.2"/>
<polygon fill="#dddddd" stroke="#dddddd" points="434.91,-39.44 443.36,-33.04 432.76,-32.78 434.91,-39.44"/>
</g>
</g>
</svg>
