<?xml version="1.0" encoding="UTF-8" standalone="no"?>
<!DOCTYPE svg PUBLIC "-//W3C//DTD SVG 1.1//EN"
 "http://www.w3.org/Graphics/SVG/1.1/DTD/svg11.dtd">
<!-- Generated by graphviz version 2.43.0 (0)
 -->
<!-- Title: %3 Pages: 1 -->
<svg width="495pt" height="116pt"
 viewBox="0.00 0.00 494.50 116.00" xmlns="http://www.w3.org/2000/svg" xmlns:xlink="http://www.w3.org/1999/xlink">
<g id="graph0" class="graph" transform="scale(1 1) rotate(0) translate(4 112)">
<title>%3</title>
<!-- OrAB -->
<g id="node1" class="node disabled">
<title>OrAB</title>
<path fill="#d0dce3" stroke="#d0dce3" d="M245,-108C245,-108 215,-108 215,-108 209,-108 203,-102 203,-96 203,-96 203,-84 203,-84 203,-78 209,-72 215,-72 215,-72 245,-72 245,-72 251,-72 257,-78 257,-84 257,-84 257,-96 257,-96 257,-102 251,-108 245,-108"/>
<text text-anchor="middle" x="230" y="-86.3" font-family="Inter,Arial" font-size="14.00" fill="#ffffff">A + B</text>
</g>
<!-- LeftA1 -->
<g id="node2" class="node value,disabled">
<title>LeftA1</title>
<path fill="#ffffff" stroke="#d0dce3" d="M48,-36C48,-36 12,-36 12,-36 6,-36 0,-30 0,-24 0,-24 0,-12 0,-12 0,-6 6,0 12,0 12,0 48,0 48,0 54,0 60,-6 60,-12 60,-12 60,-24 60,-24 60,-30 54,-36 48,-36"/>
<text text-anchor="middle" x="30" y="-14.3" font-family="Inter,Arial" font-size="14.00" fill="#d0dce3">Left(a₁)</text>
</g>
<!-- OrAB&#45;&gt;LeftA1 -->
<g id="edge1" class="edge disabled">
<title>OrAB&#45;&gt;LeftA1</title>
<path fill="none" stroke="#d0dce3" d="M202.95,-80.94C172.57,-71.7 121.65,-55.68 69.52,-36.04"/>
<polygon fill="#d0dce3" stroke="#d0dce3" points="70.71,-32.74 60.12,-32.46 68.22,-39.29 70.71,-32.74"/>
</g>
<!-- LeftAE -->
<g id="node3" class="node value,disabled">
<title>LeftAE</title>
<path fill="#ffffff" stroke="#d0dce3" d="M128,-36C128,-36 90,-36 90,-36 84,-36 78,-30 78,-24 78,-24 78,-12 78,-12 78,-6 84,0 90,0 90,0 128,0 128,0 134,0 140,-6 140,-12 140,-12 140,-24 140,-24 140,-30 134,-36 128,-36"/>
<text text-anchor="middle" x="109" y="-14.3" font-family="Inter,Arial" font-size="14.00" fill="#d0dce3">Left(⋯)</text>
</g>
<!-- OrAB&#45;&gt;LeftAE -->
<g id="edge2" class="edge disabled">
<title>OrAB&#45;&gt;LeftAE</title>
<path fill="none" stroke="#d0dce3" d="M202.85,-73.29C186.59,-63.89 165.66,-51.78 147.69,-41.38"/>
<polygon fill="#d0dce3" stroke="#d0dce3" points="149.01,-38.11 138.61,-36.13 145.51,-44.16 149.01,-38.11"/>
</g>
<!-- LeftAN -->
<g id="node4" class="node value,disabled">
<title>LeftAN</title>
<path fill="#ffffff" stroke="#d0dce3" d="M207.5,-36C207.5,-36 170.5,-36 170.5,-36 164.5,-36 158.5,-30 158.5,-24 158.5,-24 158.5,-12 158.5,-12 158.5,-6 164.5,0 170.5,0 170.5,0 207.5,0 207.5,0 213.5,0 219.5,-6 219.5,-12 219.5,-12 219.5,-24 219.5,-24 219.5,-30 213.5,-36 207.5,-36"/>
<text text-anchor="middle" x="189" y="-14.3" font-family="Inter,Arial" font-size="14.00" fill="#d0dce3">Left(aₙ)</text>
</g>
<!-- OrAB&#45;&gt;LeftAN -->
<g id="edge3" class="edge disabled">
<title>OrAB&#45;&gt;LeftAN</title>
<path fill="none" stroke="#d0dce3" d="M219.87,-71.7C215.15,-63.64 209.44,-53.89 204.22,-44.98"/>
<polygon fill="#d0dce3" stroke="#d0dce3" points="207.09,-42.96 199.02,-36.1 201.05,-46.5 207.09,-42.96"/>
</g>
<!-- RightB1 -->
<g id="node5" class="node value">
<title>RightB1</title>
<path fill="#ffffff" stroke="#586e75" d="M294.5,-36C294.5,-36 249.5,-36 249.5,-36 243.5,-36 237.5,-30 237.5,-24 237.5,-24 237.5,-12 237.5,-12 237.5,-6 243.5,0 249.5,0 249.5,0 294.5,0 294.5,0 300.5,0 306.5,-6 306.5,-12 306.5,-12 306.5,-24 306.5,-24 306.5,-30 300.5,-36 294.5,-36"/>
<text text-anchor="middle" x="272" y="-14.3" font-family="Inter,Arial" font-size="14.00" fill="#586e75">Right(b₁)</text>
</g>
<!-- OrAB&#45;&gt;RightB1 -->
<g id="edge4" class="edge disabled">
<title>OrAB&#45;&gt;RightB1</title>
<path fill="none" stroke="#d0dce3" d="M240.38,-71.7C245.26,-63.56 251.19,-53.69 256.58,-44.7"/>
<polygon fill="#d0dce3" stroke="#d0dce3" points="259.59,-46.48 261.74,-36.1 253.59,-42.88 259.59,-46.48"/>
</g>
<!-- RightBE -->
<g id="node6" class="node value">
<title>RightBE</title>
<path fill="#ffffff" stroke="#586e75" d="M383.5,-36C383.5,-36 336.5,-36 336.5,-36 330.5,-36 324.5,-30 324.5,-24 324.5,-24 324.5,-12 324.5,-12 324.5,-6 330.5,0 336.5,0 336.5,0 383.5,0 383.5,0 389.5,0 395.5,-6 395.5,-12 395.5,-12 395.5,-24 395.5,-24 395.5,-30 389.5,-36 383.5,-36"/>
<text text-anchor="middle" x="360" y="-14.3" font-family="Inter,Arial" font-size="14.00" fill="#586e75">Right(⋯)</text>
</g>
<!-- OrAB&#45;&gt;RightBE -->
<g id="edge5" class="edge disabled">
<title>OrAB&#45;&gt;RightBE</title>
<path fill="none" stroke="#d0dce3" d="M257.25,-74.33C275.2,-64.66 299.03,-51.83 319.22,-40.96"/>
<polygon fill="#d0dce3" stroke="#d0dce3" points="321.06,-43.94 328.2,-36.12 317.74,-37.78 321.06,-43.94"/>
</g>
<!-- RightBN -->
<g id="node7" class="node value">
<title>RightBN</title>
<path fill="#ffffff" stroke="#586e75" d="M474.5,-36C474.5,-36 425.5,-36 425.5,-36 419.5,-36 413.5,-30 413.5,-24 413.5,-24 413.5,-12 413.5,-12 413.5,-6 419.5,0 425.5,0 425.5,0 474.5,0 474.5,0 480.5,0 486.5,-6 486.5,-12 486.5,-12 486.5,-24 486.5,-24 486.5,-30 480.5,-36 474.5,-36"/>
<text text-anchor="middle" x="450" y="-14.3" font-family="Inter,Arial" font-size="14.00" fill="#586e75">Right(bₘ)</text>
</g>
<!-- OrAB&#45;&gt;RightBN -->
<g id="edge6" class="edge disabled">
<title>OrAB&#45;&gt;RightBN</title>
<path fill="none" stroke="#d0dce3" d="M257.16,-81.39C289.9,-72.08 346.75,-55.49 403.72,-36.34"/>
<polygon fill="#d0dce3" stroke="#d0dce3" points="404.89,-39.64 413.24,-33.12 402.64,-33.01 404.89,-39.64"/>
</g>
</g>
</svg>
