<?xml version="1.0" encoding="UTF-8" standalone="no"?>
<!DOCTYPE svg PUBLIC "-//W3C//DTD SVG 1.1//EN"
 "http://www.w3.org/Graphics/SVG/1.1/DTD/svg11.dtd">
<!-- Generated by graphviz version 2.43.0 (0)
 -->
<!-- Title: %3 Pages: 1 -->
<svg width="150pt" height="260pt"
 viewBox="0.00 0.00 149.50 260.00" xmlns="http://www.w3.org/2000/svg" xmlns:xlink="http://www.w3.org/1999/xlink">
<g id="graph0" class="graph" transform="scale(1 1) rotate(0) translate(4 256)">
<title>%3</title>
<!-- UnitOrUnit -->
<g id="node1" class="node">
<title>UnitOrUnit</title>
<path fill="#586e75" stroke="#586e75" d="M96.5,-252C96.5,-252 40.5,-252 40.5,-252 34.5,-252 28.5,-246 28.5,-240 28.5,-240 28.5,-228 28.5,-228 28.5,-222 34.5,-216 40.5,-216 40.5,-216 96.5,-216 96.5,-216 102.5,-216 108.5,-222 108.5,-228 108.5,-228 108.5,-240 108.5,-240 108.5,-246 102.5,-252 96.5,-252"/>
<text text-anchor="middle" x="68.5" y="-230.3" font-family="Inter,Arial" font-size="14.00" fill="#ffffff">Unit + Unit</text>
</g>
<!-- Left -->
<!-- UnitOrUnit&#45;&gt;Left -->
<!-- Right -->
<!-- UnitOrUnit&#45;&gt;Right -->
<!-- true -->
<!-- Left&#45;&gt;true -->
<!-- false -->
<!-- Right&#45;&gt;false -->
<!-- true&#45;&gt;Left -->
<!-- Boolean -->
<g id="node6" class="node">
<title>Boolean</title>
<path fill="#586e75" stroke="#586e75" d="M89.5,-36C89.5,-36 47.5,-36 47.5,-36 41.5,-36 35.5,-30 35.5,-24 35.5,-24 35.5,-12 35.5,-12 35.5,-6 41.5,0 47.5,0 47.5,0 89.5,0 89.5,0 95.5,0 101.5,-6 101.5,-12 101.5,-12 101.5,-24 101.5,-24 101.5,-30 95.5,-36 89.5,-36"/>
<text text-anchor="middle" x="68.5" y="-14.3" font-family="Inter,Arial" font-size="14.00" fill="#ffffff">Boolean</text>
</g>
<!-- true&#45;&gt;Boolean -->
<!-- false&#45;&gt;Right -->
<!-- false&#45;&gt;Boolean -->
</g>
</svg>
