<?xml version="1.0" encoding="UTF-8" standalone="no"?>
<!DOCTYPE svg PUBLIC "-//W3C//DTD SVG 1.1//EN"
 "http://www.w3.org/Graphics/SVG/1.1/DTD/svg11.dtd">
<!-- Generated by graphviz version 2.43.0 (0)
 -->
<!-- Title: %3 Pages: 1 -->
<svg width="162pt" height="260pt"
 viewBox="0.00 0.00 162.00 260.00" xmlns="http://www.w3.org/2000/svg" xmlns:xlink="http://www.w3.org/1999/xlink">
<g id="graph0" class="graph" transform="scale(1 1) rotate(0) translate(4 256)">
<title>%3</title>
<!-- UnitOrUnit -->
<g id="node1" class="node">
<title>UnitOrUnit</title>
<path fill="#586e75" stroke="#586e75" d="M108.5,-252C108.5,-252 42.5,-252 42.5,-252 36.5,-252 30.5,-246 30.5,-240 30.5,-240 30.5,-228 30.5,-228 30.5,-222 36.5,-216 42.5,-216 42.5,-216 108.5,-216 108.5,-216 114.5,-216 120.5,-222 120.5,-228 120.5,-228 120.5,-240 120.5,-240 120.5,-246 114.5,-252 108.5,-252"/>
<text text-anchor="middle" x="75.5" y="-230.3" font-family="Inter,Arial" font-size="14.00" fill="#ffffff">Unit ⋁ Unit</text>
</g>
<!-- Left -->
<g id="node2" class="node value">
<title>Left</title>
<path fill="#ffffff" stroke="#586e75" d="M53,-180C53,-180 12,-180 12,-180 6,-180 0,-174 0,-168 0,-168 0,-156 0,-156 0,-150 6,-144 12,-144 12,-144 53,-144 53,-144 59,-144 65,-150 65,-156 65,-156 65,-168 65,-168 65,-174 59,-180 53,-180"/>
<text text-anchor="middle" x="32.5" y="-158.3" font-family="Inter,Arial" font-size="14.00" fill="#586e75">Left(())</text>
</g>
<!-- UnitOrUnit&#45;&gt;Left -->
<g id="edge1" class="edge">
<title>UnitOrUnit&#45;&gt;Left</title>
<path fill="none" stroke="#586e75" d="M64.87,-215.7C59.87,-207.56 53.81,-197.69 48.29,-188.7"/>
<polygon fill="#586e75" stroke="#586e75" points="51.22,-186.79 43.01,-180.1 45.26,-190.46 51.22,-186.79"/>
</g>
<!-- Right -->
<g id="node3" class="node value">
<title>Right</title>
<path fill="#ffffff" stroke="#586e75" d="M142,-180C142,-180 95,-180 95,-180 89,-180 83,-174 83,-168 83,-168 83,-156 83,-156 83,-150 89,-144 95,-144 95,-144 142,-144 142,-144 148,-144 154,-150 154,-156 154,-156 154,-168 154,-168 154,-174 148,-180 142,-180"/>
<text text-anchor="middle" x="118.5" y="-158.3" font-family="Inter,Arial" font-size="14.00" fill="#586e75">Right(())</text>
</g>
<!-- UnitOrUnit&#45;&gt;Right -->
<g id="edge2" class="edge">
<title>UnitOrUnit&#45;&gt;Right</title>
<path fill="none" stroke="#586e75" d="M86.13,-215.7C91.13,-207.56 97.19,-197.69 102.71,-188.7"/>
<polygon fill="#586e75" stroke="#586e75" points="105.74,-190.46 107.99,-180.1 99.78,-186.79 105.74,-190.46"/>
</g>
<!-- true -->
<!-- Left&#45;&gt;true -->
<!-- false -->
<!-- Right&#45;&gt;false -->
<!-- true&#45;&gt;Left -->
<!-- Boolean -->
<g id="node6" class="node">
<title>Boolean</title>
<path fill="#586e75" stroke="#586e75" d="M98.5,-36C98.5,-36 52.5,-36 52.5,-36 46.5,-36 40.5,-30 40.5,-24 40.5,-24 40.5,-12 40.5,-12 40.5,-6 46.5,0 52.5,0 52.5,0 98.5,0 98.5,0 104.5,0 110.5,-6 110.5,-12 110.5,-12 110.5,-24 110.5,-24 110.5,-30 104.5,-36 98.5,-36"/>
<text text-anchor="middle" x="75.5" y="-14.3" font-family="Inter,Arial" font-size="14.00" fill="#ffffff">Boolean</text>
</g>
<!-- true&#45;&gt;Boolean -->
<!-- false&#45;&gt;Right -->
<!-- false&#45;&gt;Boolean -->
</g>
</svg>
