<?xml version="1.0" encoding="UTF-8" standalone="no"?>
<!DOCTYPE svg PUBLIC "-//W3C//DTD SVG 1.1//EN"
 "http://www.w3.org/Graphics/SVG/1.1/DTD/svg11.dtd">
<!-- Generated by graphviz version 2.43.0 (0)
 -->
<!-- Title: %3 Pages: 1 -->
<svg width="162pt" height="260pt"
 viewBox="0.00 0.00 162.00 260.00" xmlns="http://www.w3.org/2000/svg" xmlns:xlink="http://www.w3.org/1999/xlink">
<g id="graph0" class="graph" transform="scale(1 1) rotate(0) translate(4 256)">
<title>%3</title>
<!-- UnitOrUnit -->
<g id="node1" class="node">
<title>UnitOrUnit</title>
<path fill="#586e75" stroke="#586e75" d="M108.5,-252C108.5,-252 42.5,-252 42.5,-252 36.5,-252 30.5,-246 30.5,-240 30.5,-240 30.5,-228 30.5,-228 30.5,-222 36.5,-216 42.5,-216 42.5,-216 108.5,-216 108.5,-216 114.5,-216 120.5,-222 120.5,-228 120.5,-228 120.5,-240 120.5,-240 120.5,-246 114.5,-252 108.5,-252"/>
<text text-anchor="middle" x="75.5" y="-230.3" font-family="Inter,Arial" font-size="14.00" fill="#ffffff">Unit ⋁ Unit</text>
</g>
<!-- Left -->
<!-- UnitOrUnit&#45;&gt;Left -->
<!-- Right -->
<!-- UnitOrUnit&#45;&gt;Right -->
<!-- true -->
<!-- Left&#45;&gt;true -->
<!-- false -->
<!-- Right&#45;&gt;false -->
<!-- true&#45;&gt;Left -->
<!-- Boolean -->
<g id="node6" class="node">
<title>Boolean</title>
<path fill="#586e75" stroke="#586e75" d="M98.5,-36C98.5,-36 52.5,-36 52.5,-36 46.5,-36 40.5,-30 40.5,-24 40.5,-24 40.5,-12 40.5,-12 40.5,-6 46.5,0 52.5,0 52.5,0 98.5,0 98.5,0 104.5,0 110.5,-6 110.5,-12 110.5,-12 110.5,-24 110.5,-24 110.5,-30 104.5,-36 98.5,-36"/>
<text text-anchor="middle" x="75.5" y="-14.3" font-family="Inter,Arial" font-size="14.00" fill="#ffffff">Boolean</text>
</g>
<!-- true&#45;&gt;Boolean -->
<!-- false&#45;&gt;Right -->
<!-- false&#45;&gt;Boolean -->
</g>
</svg>
