<?xml version="1.0" encoding="UTF-8" standalone="no"?>
<!DOCTYPE svg PUBLIC "-//W3C//DTD SVG 1.1//EN"
 "http://www.w3.org/Graphics/SVG/1.1/DTD/svg11.dtd">
<!-- Generated by graphviz version 2.43.0 (0)
 -->
<!-- Title: %3 Pages: 1 -->
<svg width="162pt" height="260pt"
 viewBox="0.00 0.00 162.00 260.00" xmlns="http://www.w3.org/2000/svg" xmlns:xlink="http://www.w3.org/1999/xlink">
<g id="graph0" class="graph" transform="scale(1 1) rotate(0) translate(4 256)">
<title>%3</title>
<!-- UnitOrUnit -->
<g id="node1" class="node">
<title>UnitOrUnit</title>
<path fill="#586e75" stroke="#586e75" d="M110.5,-252C110.5,-252 40.5,-252 40.5,-252 34.5,-252 28.5,-246 28.5,-240 28.5,-240 28.5,-228 28.5,-228 28.5,-222 34.5,-216 40.5,-216 40.5,-216 110.5,-216 110.5,-216 116.5,-216 122.5,-222 122.5,-228 122.5,-228 122.5,-240 122.5,-240 122.5,-246 116.5,-252 110.5,-252"/>
<text text-anchor="middle" x="75.5" y="-230.3" font-family="Inter" font-size="14.00" fill="#ffffff">Unit Or Unit</text>
</g>
<!-- Left -->
<g id="node2" class="node">
<title>Left</title>
<path fill="#ffffff" stroke="#586e75" d="M53,-180C53,-180 12,-180 12,-180 6,-180 0,-174 0,-168 0,-168 0,-156 0,-156 0,-150 6,-144 12,-144 12,-144 53,-144 53,-144 59,-144 65,-150 65,-156 65,-156 65,-168 65,-168 65,-174 59,-180 53,-180"/>
<text text-anchor="middle" x="32.5" y="-158.3" font-family="Inter" font-size="14.00" fill="#586e75">Left(())</text>
</g>
<!-- UnitOrUnit&#45;&gt;Left -->
<g id="edge1" class="edge">
<title>UnitOrUnit&#45;&gt;Left</title>
<path fill="none" stroke="#586e75" d="M64.87,-215.7C59.87,-207.56 53.81,-197.69 48.29,-188.7"/>
<polygon fill="#586e75" stroke="#586e75" points="51.22,-186.79 43.01,-180.1 45.26,-190.46 51.22,-186.79"/>
</g>
<!-- Right -->
<g id="node3" class="node">
<title>Right</title>
<path fill="#ffffff" stroke="#586e75" d="M142,-180C142,-180 95,-180 95,-180 89,-180 83,-174 83,-168 83,-168 83,-156 83,-156 83,-150 89,-144 95,-144 95,-144 142,-144 142,-144 148,-144 154,-150 154,-156 154,-156 154,-168 154,-168 154,-174 148,-180 142,-180"/>
<text text-anchor="middle" x="118.5" y="-158.3" font-family="Inter" font-size="14.00" fill="#586e75">Right(())</text>
</g>
<!-- UnitOrUnit&#45;&gt;Right -->
<g id="edge2" class="edge">
<title>UnitOrUnit&#45;&gt;Right</title>
<path fill="none" stroke="#586e75" d="M86.13,-215.7C91.13,-207.56 97.19,-197.69 102.71,-188.7"/>
<polygon fill="#586e75" stroke="#586e75" points="105.74,-190.46 107.99,-180.1 99.78,-186.79 105.74,-190.46"/>
</g>
<!-- true -->
<g id="node4" class="node">
<title>true</title>
<path fill="#ffffff" stroke="#586e75" d="M47.5,-108C47.5,-108 17.5,-108 17.5,-108 11.5,-108 5.5,-102 5.5,-96 5.5,-96 5.5,-84 5.5,-84 5.5,-78 11.5,-72 17.5,-72 17.5,-72 47.5,-72 47.5,-72 53.5,-72 59.5,-78 59.5,-84 59.5,-84 59.5,-96 59.5,-96 59.5,-102 53.5,-108 47.5,-108"/>
<text text-anchor="middle" x="32.5" y="-86.3" font-family="Inter" font-size="14.00" fill="#586e75">true</text>
</g>
<!-- Left&#45;&gt;true -->
<g id="edge3" class="edge">
<title>Left&#45;&gt;true</title>
<path fill="none" stroke="#586e75" d="M26.58,-143.7C25.79,-135.98 25.56,-126.71 25.9,-118.11"/>
<polygon fill="#586e75" stroke="#586e75" points="29.4,-118.32 26.6,-108.1 22.42,-117.84 29.4,-118.32"/>
</g>
<!-- false -->
<g id="node5" class="node">
<title>false</title>
<path fill="#ffffff" stroke="#586e75" d="M133.5,-108C133.5,-108 103.5,-108 103.5,-108 97.5,-108 91.5,-102 91.5,-96 91.5,-96 91.5,-84 91.5,-84 91.5,-78 97.5,-72 103.5,-72 103.5,-72 133.5,-72 133.5,-72 139.5,-72 145.5,-78 145.5,-84 145.5,-84 145.5,-96 145.5,-96 145.5,-102 139.5,-108 133.5,-108"/>
<text text-anchor="middle" x="118.5" y="-86.3" font-family="Inter" font-size="14.00" fill="#586e75">false</text>
</g>
<!-- Right&#45;&gt;false -->
<g id="edge5" class="edge">
<title>Right&#45;&gt;false</title>
<path fill="none" stroke="#586e75" d="M112.58,-143.7C111.79,-135.98 111.56,-126.71 111.9,-118.11"/>
<polygon fill="#586e75" stroke="#586e75" points="115.4,-118.32 112.6,-108.1 108.42,-117.84 115.4,-118.32"/>
</g>
<!-- true&#45;&gt;Left -->
<g id="edge4" class="edge">
<title>true&#45;&gt;Left</title>
<path fill="none" stroke="#586e75" d="M38.4,-108.1C39.2,-115.79 39.44,-125.05 39.1,-133.67"/>
<polygon fill="#586e75" stroke="#586e75" points="35.61,-133.48 38.42,-143.7 42.59,-133.96 35.61,-133.48"/>
</g>
<!-- Boolean -->
<g id="node6" class="node">
<title>Boolean</title>
<path fill="#586e75" stroke="#586e75" d="M98.5,-36C98.5,-36 52.5,-36 52.5,-36 46.5,-36 40.5,-30 40.5,-24 40.5,-24 40.5,-12 40.5,-12 40.5,-6 46.5,0 52.5,0 52.5,0 98.5,0 98.5,0 104.5,0 110.5,-6 110.5,-12 110.5,-12 110.5,-24 110.5,-24 110.5,-30 104.5,-36 98.5,-36"/>
<text text-anchor="middle" x="75.5" y="-14.3" font-family="Inter" font-size="14.00" fill="#ffffff">Boolean</text>
</g>
<!-- true&#45;&gt;Boolean -->
<g id="edge7" class="edge">
<title>true&#45;&gt;Boolean</title>
<path fill="none" stroke="#586e75" d="M48.42,-63.08C53.95,-54.08 60.01,-44.21 64.99,-36.1"/>
<polygon fill="#586e75" stroke="#586e75" points="45.38,-61.34 43.13,-71.7 51.35,-65.01 45.38,-61.34"/>
</g>
<!-- false&#45;&gt;Right -->
<g id="edge6" class="edge">
<title>false&#45;&gt;Right</title>
<path fill="none" stroke="#586e75" d="M124.4,-108.1C125.2,-115.79 125.44,-125.05 125.1,-133.67"/>
<polygon fill="#586e75" stroke="#586e75" points="121.61,-133.48 124.42,-143.7 128.59,-133.96 121.61,-133.48"/>
</g>
<!-- false&#45;&gt;Boolean -->
<g id="edge8" class="edge">
<title>false&#45;&gt;Boolean</title>
<path fill="none" stroke="#586e75" d="M102.58,-63.08C97.05,-54.08 90.99,-44.21 86.01,-36.1"/>
<polygon fill="#586e75" stroke="#586e75" points="99.65,-65.01 107.87,-71.7 105.62,-61.34 99.65,-65.01"/>
</g>
</g>
</svg>
