<?xml version="1.0" encoding="UTF-8" standalone="no"?>
<!DOCTYPE svg PUBLIC "-//W3C//DTD SVG 1.1//EN"
 "http://www.w3.org/Graphics/SVG/1.1/DTD/svg11.dtd">
<!-- Generated by graphviz version 2.43.0 (0)
 -->
<!-- Title: %3 Pages: 1 -->
<svg width="150pt" height="260pt"
 viewBox="0.00 0.00 149.50 260.00" xmlns="http://www.w3.org/2000/svg" xmlns:xlink="http://www.w3.org/1999/xlink">
<g id="graph0" class="graph" transform="scale(1 1) rotate(0) translate(4 256)">
<title>%3</title>
<!-- UnitOrUnit -->
<g id="node1" class="node">
<title>UnitOrUnit</title>
<path fill="#586e75" stroke="#586e75" d="M96.5,-252C96.5,-252 40.5,-252 40.5,-252 34.5,-252 28.5,-246 28.5,-240 28.5,-240 28.5,-228 28.5,-228 28.5,-222 34.5,-216 40.5,-216 40.5,-216 96.5,-216 96.5,-216 102.5,-216 108.5,-222 108.5,-228 108.5,-228 108.5,-240 108.5,-240 108.5,-246 102.5,-252 96.5,-252"/>
<text text-anchor="middle" x="68.5" y="-230.3" font-family="Inter,Arial" font-size="14.00" fill="#ffffff">Unit + Unit</text>
</g>
<!-- Left -->
<g id="node2" class="node value">
<title>Left</title>
<path fill="#ffffff" stroke="#586e75" d="M45,-180C45,-180 12,-180 12,-180 6,-180 0,-174 0,-168 0,-168 0,-156 0,-156 0,-150 6,-144 12,-144 12,-144 45,-144 45,-144 51,-144 57,-150 57,-156 57,-156 57,-168 57,-168 57,-174 51,-180 45,-180"/>
<text text-anchor="middle" x="28.5" y="-158.3" font-family="Inter,Arial" font-size="14.00" fill="#586e75">Left(())</text>
</g>
<!-- UnitOrUnit&#45;&gt;Left -->
<g id="edge1" class="edge">
<title>UnitOrUnit&#45;&gt;Left</title>
<path fill="none" stroke="#586e75" d="M58.61,-215.7C54.01,-207.64 48.44,-197.89 43.35,-188.98"/>
<polygon fill="#586e75" stroke="#586e75" points="46.27,-187.05 38.27,-180.1 40.2,-190.52 46.27,-187.05"/>
</g>
<!-- Right -->
<g id="node3" class="node value">
<title>Right</title>
<path fill="#ffffff" stroke="#586e75" d="M129.5,-180C129.5,-180 87.5,-180 87.5,-180 81.5,-180 75.5,-174 75.5,-168 75.5,-168 75.5,-156 75.5,-156 75.5,-150 81.5,-144 87.5,-144 87.5,-144 129.5,-144 129.5,-144 135.5,-144 141.5,-150 141.5,-156 141.5,-156 141.5,-168 141.5,-168 141.5,-174 135.5,-180 129.5,-180"/>
<text text-anchor="middle" x="108.5" y="-158.3" font-family="Inter,Arial" font-size="14.00" fill="#586e75">Right(())</text>
</g>
<!-- UnitOrUnit&#45;&gt;Right -->
<g id="edge2" class="edge">
<title>UnitOrUnit&#45;&gt;Right</title>
<path fill="none" stroke="#586e75" d="M78.39,-215.7C82.99,-207.64 88.56,-197.89 93.65,-188.98"/>
<polygon fill="#586e75" stroke="#586e75" points="96.8,-190.52 98.73,-180.1 90.73,-187.05 96.8,-190.52"/>
</g>
<!-- true -->
<!-- Left&#45;&gt;true -->
<!-- false -->
<!-- Right&#45;&gt;false -->
<!-- true&#45;&gt;Left -->
<!-- Boolean -->
<g id="node6" class="node">
<title>Boolean</title>
<path fill="#586e75" stroke="#586e75" d="M89.5,-36C89.5,-36 47.5,-36 47.5,-36 41.5,-36 35.5,-30 35.5,-24 35.5,-24 35.5,-12 35.5,-12 35.5,-6 41.5,0 47.5,0 47.5,0 89.5,0 89.5,0 95.5,0 101.5,-6 101.5,-12 101.5,-12 101.5,-24 101.5,-24 101.5,-30 95.5,-36 89.5,-36"/>
<text text-anchor="middle" x="68.5" y="-14.3" font-family="Inter,Arial" font-size="14.00" fill="#ffffff">Boolean</text>
</g>
<!-- true&#45;&gt;Boolean -->
<!-- false&#45;&gt;Right -->
<!-- false&#45;&gt;Boolean -->
</g>
</svg>
